<ttFont>
    <TTGlyph name=".notdef" xMin="123" yMin="0" xMax="543" yMax="689">
      <contour>
        <pt x="123" y="689" on="1"/>
        <pt x="543" y="689" on="1"/>
        <pt x="543" y="0" on="1"/>
        <pt x="123" y="0" on="1"/>
      </contour>
      <contour>
        <pt x="489" y="52" on="1"/>
        <pt x="489" y="637" on="1"/>
        <pt x="178" y="637" on="1"/>
        <pt x="178" y="52" on="1"/>
      </contour>
      <contour>
        <pt x="231" y="497" on="1"/>
        <pt x="231" y="517" on="0"/>
        <pt x="295" y="536" on="0"/>
        <pt x="324" y="536" on="1"/>
        <pt x="388" y="536" on="0"/>
        <pt x="435" y="466" on="0"/>
        <pt x="435" y="421" on="1"/>
        <pt x="435" y="369" on="0"/>
        <pt x="390" y="310" on="0"/>
        <pt x="340" y="303" on="1"/>
        <pt x="340" y="258" on="1"/>
        <pt x="340" y="247" on="0"/>
        <pt x="324" y="234" on="0"/>
        <pt x="315" y="234" on="1"/>
        <pt x="305" y="234" on="0"/>
        <pt x="290" y="247" on="0"/>
        <pt x="290" y="258" on="1"/>
        <pt x="290" y="342" on="1"/>
        <pt x="344" y="345" on="0"/>
        <pt x="381" y="379" on="0"/>
        <pt x="381" y="419" on="1"/>
        <pt x="381" y="448" on="0"/>
        <pt x="357" y="488" on="0"/>
        <pt x="320" y="488" on="1"/>
        <pt x="304" y="488" on="0"/>
        <pt x="281" y="483" on="0"/>
        <pt x="268" y="477" on="1"/>
        <pt x="264" y="476" on="0"/>
        <pt x="258" y="474" on="0"/>
        <pt x="255" y="474" on="1"/>
        <pt x="244" y="474" on="0"/>
        <pt x="231" y="487" on="0"/>
      </contour>
      <contour>
        <pt x="280" y="170" on="1"/>
        <pt x="280" y="185" on="0"/>
        <pt x="300" y="205" on="0"/>
        <pt x="315" y="205" on="1"/>
        <pt x="330" y="205" on="0"/>
        <pt x="350" y="185" on="0"/>
        <pt x="350" y="170" on="1"/>
        <pt x="350" y="154" on="0"/>
        <pt x="330" y="133" on="0"/>
        <pt x="315" y="133" on="1"/>
        <pt x="300" y="133" on="0"/>
        <pt x="280" y="154" on="0"/>
      </contour>
    </TTGlyph>
    <TTGlyph name="A" xMin="-2" yMin="0" xMax="583" yMax="691">
      <contour>
        <pt x="288" y="595" on="1"/>
        <pt x="196" y="258" on="1"/>
        <pt x="380" y="258" on="1"/>
      </contour>
      <contour>
        <pt x="451" y="0" on="1"/>
        <pt x="406" y="163" on="1"/>
        <pt x="170" y="163" on="1"/>
        <pt x="125" y="0" on="1"/>
        <pt x="-2" y="0" on="1"/>
        <pt x="214" y="691" on="1"/>
        <pt x="367" y="691" on="1"/>
        <pt x="583" y="0" on="1"/>
      </contour>
    </TTGlyph>
    <TTGlyph name="AE" xMin="-17" yMin="0" xMax="783" yMax="691">
      <contour>
        <pt x="328" y="596" on="1"/>
        <pt x="207" y="258" on="1"/>
        <pt x="398" y="258" on="1"/>
      </contour>
      <contour>
        <pt x="452" y="0" on="1"/>
        <pt x="418" y="163" on="1"/>
        <pt x="173" y="163" on="1"/>
        <pt x="114" y="0" on="1"/>
        <pt x="-17" y="0" on="1"/>
        <pt x="256" y="691" on="1"/>
        <pt x="744" y="691" on="1"/>
        <pt x="730" y="597" on="1"/>
        <pt x="438" y="597" on="1"/>
        <pt x="485" y="396" on="1"/>
        <pt x="735" y="396" on="1"/>
        <pt x="735" y="303" on="1"/>
        <pt x="506" y="303" on="1"/>
        <pt x="555" y="94" on="1"/>
        <pt x="783" y="94" on="1"/>
        <pt x="783" y="0" on="1"/>
      </contour>
    </TTGlyph>
    <TTGlyph name="AEacute" xMin="-17" yMin="0" xMax="783" yMax="930">
      <component glyphName="AE" x="0" y="0" flags="0x204"/>
      <component glyphName="acute.case" x="320" y="0" flags="0x4"/>
    </TTGlyph>
    <TTGlyph name="Aacute" xMin="-2" yMin="0" xMax="583" yMax="930">
      <component glyphName="A" x="0" y="0" flags="0x204"/>
      <component glyphName="acute.case" x="132" y="0" flags="0x4"/>
    </TTGlyph>
    <TTGlyph name="Abreve" xMin="-2" yMin="0" xMax="583" yMax="909">
      <component glyphName="A" x="0" y="0" flags="0x204"/>
      <component glyphName="breve.case" x="100" y="0" flags="0x4"/>
    </TTGlyph>
    <TTGlyph name="Acircumflex" xMin="-2" yMin="0" xMax="583" yMax="929">
      <component glyphName="A" x="0" y="0" flags="0x204"/>
      <component glyphName="circumflex.case" x="85" y="0" flags="0x4"/>
    </TTGlyph>
    <TTGlyph name="Adieresis" xMin="-2" yMin="0" xMax="583" yMax="907">
      <component glyphName="A" x="0" y="0" flags="0x204"/>
      <component glyphName="dieresis.case" x="83" y="0" flags="0x4"/>
    </TTGlyph>
    <TTGlyph name="Agrave" xMin="-2" yMin="0" xMax="583" yMax="930">
      <component glyphName="A" x="0" y="0" flags="0x204"/>
      <component glyphName="grave.case" x="124" y="0" flags="0x4"/>
    </TTGlyph>
    <TTGlyph name="Alpha" xMin="-2" yMin="0" xMax="583" yMax="691">
      <component glyphName="A" x="0" y="0" flags="0x204"/>
    </TTGlyph>
    <TTGlyph name="Alphatonos" xMin="-32" yMin="0" xMax="583" yMax="714">
      <component glyphName="A" x="0" y="0" flags="0x204"/>
      <component glyphName="tonos.case" x="-67" y="0" flags="0x4"/>
    </TTGlyph>
    <TTGlyph name="Amacron" xMin="-2" yMin="0" xMax="583" yMax="870">
      <component glyphName="A" x="0" y="0" flags="0x204"/>
      <component glyphName="macron.case" x="117" y="-4" flags="0x4"/>
    </TTGlyph>
    <TTGlyph name="Aogonek" xMin="-2" yMin="-238" xMax="583" yMax="691">
      <component glyphName="A" x="0" y="0" flags="0x204"/>
      <component glyphName="ogonek" x="312" y="0" flags="0x4"/>
    </TTGlyph>
    <TTGlyph name="Aring" xMin="-2" yMin="0" xMax="583" yMax="975">
      <component glyphName="A" x="0" y="0" flags="0x204"/>
      <component glyphName="ring.case" x="136" y="0" flags="0x4"/>
    </TTGlyph>
    <TTGlyph name="Atilde" xMin="-2" yMin="0" xMax="583" yMax="908">
      <component glyphName="A" x="0" y="0" flags="0x204"/>
      <component glyphName="tilde.case" x="85" y="0" flags="0x4"/>
    </TTGlyph>
    <TTGlyph name="B" xMin="85" yMin="0" xMax="575" yMax="691">
      <contour>
        <pt x="85" y="691" on="1"/>
        <pt x="262" y="691" on="1"/>
        <pt x="394" y="691" on="0"/>
        <pt x="545" y="608" on="0"/>
        <pt x="545" y="515" on="1"/>
        <pt x="545" y="451" on="0"/>
        <pt x="466" y="376" on="0"/>
        <pt x="417" y="365" on="1"/>
        <pt x="476" y="355" on="0"/>
        <pt x="575" y="285" on="0"/>
        <pt x="575" y="199" on="1"/>
        <pt x="575" y="86" on="0"/>
        <pt x="413" y="0" on="0"/>
        <pt x="289" y="0" on="1"/>
        <pt x="85" y="0" on="1"/>
      </contour>
      <contour>
        <pt x="209" y="598" on="1"/>
        <pt x="209" y="405" on="1"/>
        <pt x="295" y="405" on="1"/>
        <pt x="349" y="405" on="0"/>
        <pt x="418" y="455" on="0"/>
        <pt x="418" y="505" on="1"/>
        <pt x="418" y="559" on="0"/>
        <pt x="344" y="598" on="0"/>
        <pt x="275" y="598" on="1"/>
      </contour>
      <contour>
        <pt x="209" y="94" on="1"/>
        <pt x="290" y="94" on="1"/>
        <pt x="357" y="94" on="0"/>
        <pt x="445" y="135" on="0"/>
        <pt x="445" y="202" on="1"/>
        <pt x="445" y="266" on="0"/>
        <pt x="363" y="317" on="0"/>
        <pt x="305" y="317" on="1"/>
        <pt x="209" y="317" on="1"/>
      </contour>
    </TTGlyph>
    <TTGlyph name="Beta" xMin="85" yMin="0" xMax="575" yMax="691">
      <component glyphName="B" x="0" y="0" flags="0x204"/>
    </TTGlyph>
    <TTGlyph name="C" xMin="46" yMin="-14" xMax="552" yMax="705">
      <contour>
        <pt x="46" y="346" on="1"/>
        <pt x="46" y="433" on="0"/>
        <pt x="92" y="568" on="0"/>
        <pt x="172" y="658" on="0"/>
        <pt x="281" y="705" on="0"/>
        <pt x="343" y="705" on="1"/>
        <pt x="409" y="705" on="0"/>
        <pt x="502" y="667" on="0"/>
        <pt x="544" y="633" on="1"/>
        <pt x="479" y="558" on="1"/>
        <pt x="449" y="583" on="0"/>
        <pt x="386" y="608" on="0"/>
        <pt x="350" y="608" on="1"/>
        <pt x="278" y="608" on="0"/>
        <pt x="177" y="489" on="0"/>
        <pt x="177" y="346" on="1"/>
        <pt x="177" y="208" on="0"/>
        <pt x="276" y="86" on="0"/>
        <pt x="351" y="86" on="1"/>
        <pt x="397" y="86" on="0"/>
        <pt x="463" y="122" on="0"/>
        <pt x="493" y="144" on="1"/>
        <pt x="552" y="68" on="1"/>
        <pt x="521" y="37" on="0"/>
        <pt x="416" y="-14" on="0"/>
        <pt x="346" y="-14" on="1"/>
        <pt x="214" y="-14" on="0"/>
        <pt x="46" y="171" on="0"/>
      </contour>
    </TTGlyph>
    <TTGlyph name="Cacute" xMin="46" yMin="-14" xMax="552" yMax="930">
      <component glyphName="C" x="0" y="0" flags="0x204"/>
      <component glyphName="acute.case" x="192" y="0" flags="0x4"/>
    </TTGlyph>
    <TTGlyph name="Cacute.loclPLK" xMin="46" yMin="-14" xMax="552" yMax="942">
      <component glyphName="C" x="0" y="0" flags="0x204"/>
      <component glyphName="acute.case.loclPLK" x="192" y="0" flags="0x4"/>
    </TTGlyph>
    <TTGlyph name="Ccaron" xMin="46" yMin="-14" xMax="552" yMax="924">
      <component glyphName="C" x="0" y="0" flags="0x204"/>
      <component glyphName="caron.case" x="144" y="0" flags="0x4"/>
    </TTGlyph>
    <TTGlyph name="Ccedilla" xMin="46" yMin="-250" xMax="552" yMax="705">
      <component glyphName="cedilla.case" x="212" y="0" flags="0x4"/>
      <component glyphName="C" x="0" y="0" flags="0x204"/>
    </TTGlyph>
    <TTGlyph name="Ccircumflex" xMin="46" yMin="-14" xMax="552" yMax="929">
      <component glyphName="C" x="0" y="0" flags="0x204"/>
      <component glyphName="circumflex.case" x="144" y="0" flags="0x4"/>
    </TTGlyph>
    <TTGlyph name="Cdotaccent" xMin="46" yMin="-14" xMax="552" yMax="919">
      <component glyphName="dotaccent.case" x="243" y="0" flags="0x4"/>
      <component glyphName="C" x="0" y="0" flags="0x204"/>
    </TTGlyph>
    <TTGlyph name="Chi" xMin="1" yMin="0" xMax="556" yMax="691">
      <component glyphName="X" x="0" y="0" flags="0x204"/>
    </TTGlyph>
    <TTGlyph name="D" xMin="85" yMin="0" xMax="601" yMax="691">
      <contour>
        <pt x="85" y="691" on="1"/>
        <pt x="250" y="691" on="1"/>
        <pt x="317" y="691" on="0"/>
        <pt x="444" y="664" on="0"/>
        <pt x="542" y="590" on="0"/>
        <pt x="601" y="456" on="0"/>
        <pt x="601" y="349" on="1"/>
        <pt x="601" y="245" on="0"/>
        <pt x="542" y="108" on="0"/>
        <pt x="448" y="31" on="0"/>
        <pt x="328" y="0" on="0"/>
        <pt x="268" y="0" on="1"/>
        <pt x="85" y="0" on="1"/>
      </contour>
      <contour>
        <pt x="471" y="349" on="1"/>
        <pt x="471" y="428" on="0"/>
        <pt x="438" y="526" on="0"/>
        <pt x="383" y="579" on="0"/>
        <pt x="311" y="597" on="0"/>
        <pt x="272" y="597" on="1"/>
        <pt x="209" y="597" on="1"/>
        <pt x="209" y="93" on="1"/>
        <pt x="277" y="93" on="1"/>
        <pt x="316" y="93" on="0"/>
        <pt x="387" y="114" on="0"/>
        <pt x="439" y="171" on="0"/>
        <pt x="471" y="271" on="0"/>
      </contour>
    </TTGlyph>
    <TTGlyph name="Dcaron" xMin="85" yMin="0" xMax="601" yMax="924">
      <component glyphName="D" x="0" y="0" flags="0x204"/>
      <component glyphName="caron.case" x="94" y="0" flags="0x4"/>
    </TTGlyph>
    <TTGlyph name="Dcroat" xMin="17" yMin="0" xMax="614" yMax="691">
      <component glyphName="Eth" x="0" y="0" flags="0x204"/>
    </TTGlyph>
    <TTGlyph name="Delta" xMin="-2" yMin="0" xMax="592" yMax="691">
      <contour>
        <pt x="219" y="691" on="1"/>
        <pt x="372" y="691" on="1"/>
        <pt x="592" y="0" on="1"/>
        <pt x="-2" y="0" on="1"/>
      </contour>
      <contour>
        <pt x="436" y="96" on="1"/>
        <pt x="293" y="593" on="1"/>
        <pt x="150" y="96" on="1"/>
      </contour>
    </TTGlyph>
    <TTGlyph name="E" xMin="85" yMin="0" xMax="485" yMax="691">
      <contour>
        <pt x="85" y="691" on="1"/>
        <pt x="480" y="691" on="1"/>
        <pt x="466" y="597" on="1"/>
        <pt x="209" y="597" on="1"/>
        <pt x="209" y="397" on="1"/>
        <pt x="433" y="397" on="1"/>
        <pt x="433" y="305" on="1"/>
        <pt x="209" y="305" on="1"/>
        <pt x="209" y="94" on="1"/>
        <pt x="485" y="94" on="1"/>
        <pt x="485" y="0" on="1"/>
        <pt x="85" y="0" on="1"/>
      </contour>
    </TTGlyph>
    <TTGlyph name="Eacute" xMin="85" yMin="0" xMax="485" yMax="930">
      <component glyphName="E" x="0" y="0" flags="0x204"/>
      <component glyphName="acute.case" x="127" y="0" flags="0x4"/>
    </TTGlyph>
    <TTGlyph name="Ebreve" xMin="85" yMin="0" xMax="485" yMax="909">
      <component glyphName="E" x="0" y="0" flags="0x204"/>
      <component glyphName="breve.case" x="95" y="0" flags="0x4"/>
    </TTGlyph>
    <TTGlyph name="Ecaron" xMin="85" yMin="0" xMax="485" yMax="924">
      <component glyphName="E" x="0" y="0" flags="0x204"/>
      <component glyphName="caron.case" x="79" y="0" flags="0x4"/>
    </TTGlyph>
    <TTGlyph name="Ecircumflex" xMin="85" yMin="0" xMax="485" yMax="929">
      <component glyphName="circumflex.case" x="79" y="0" flags="0x4"/>
      <component glyphName="E" x="0" y="0" flags="0x204"/>
    </TTGlyph>
    <TTGlyph name="Edieresis" xMin="85" yMin="0" xMax="485" yMax="907">
      <component glyphName="E" x="0" y="0" flags="0x204"/>
      <component glyphName="dieresis.case" x="77" y="0" flags="0x4"/>
    </TTGlyph>
    <TTGlyph name="Edotaccent" xMin="85" yMin="0" xMax="485" yMax="919">
      <component glyphName="dotaccent.case" x="178" y="0" flags="0x4"/>
      <component glyphName="E" x="0" y="0" flags="0x204"/>
    </TTGlyph>
    <TTGlyph name="Egrave" xMin="85" yMin="0" xMax="485" yMax="930">
      <component glyphName="grave.case" x="118" y="0" flags="0x4"/>
      <component glyphName="E" x="0" y="0" flags="0x204"/>
    </TTGlyph>
    <TTGlyph name="Emacron" xMin="85" yMin="0" xMax="485" yMax="870">
      <component glyphName="E" x="0" y="0" flags="0x204"/>
      <component glyphName="macron.case" x="111" y="-4" flags="0x4"/>
    </TTGlyph>
    <TTGlyph name="Eng" xMin="85" yMin="-216" xMax="590" yMax="691">
      <contour>
        <pt x="403" y="-216" on="1"/>
        <pt x="368" y="-135" on="1"/>
        <pt x="419" y="-112" on="0"/>
        <pt x="475" y="-60" on="0"/>
        <pt x="480" y="0" on="1"/>
        <pt x="427" y="0" on="1"/>
        <pt x="184" y="561" on="1"/>
        <pt x="180" y="561" on="1"/>
        <pt x="186" y="518" on="0"/>
        <pt x="199" y="386" on="0"/>
        <pt x="199" y="290" on="1"/>
        <pt x="199" y="0" on="1"/>
        <pt x="85" y="0" on="1"/>
        <pt x="85" y="691" on="1"/>
        <pt x="244" y="691" on="1"/>
        <pt x="490" y="128" on="1"/>
        <pt x="494" y="128" on="1"/>
        <pt x="490" y="150" on="0"/>
        <pt x="476" y="284" on="0"/>
        <pt x="476" y="355" on="1"/>
        <pt x="476" y="691" on="1"/>
        <pt x="590" y="691" on="1"/>
        <pt x="590" y="44" on="1"/>
        <pt x="590" y="-75" on="0"/>
        <pt x="490" y="-180" on="0"/>
      </contour>
    </TTGlyph>
    <TTGlyph name="Eogonek" xMin="85" yMin="-238" xMax="485" yMax="691">
      <component glyphName="ogonek" x="233" y="0" flags="0x4"/>
      <component glyphName="E" x="0" y="0" flags="0x204"/>
    </TTGlyph>
    <TTGlyph name="Epsilon" xMin="85" yMin="0" xMax="485" yMax="691">
      <component glyphName="E" x="0" y="0" flags="0x204"/>
    </TTGlyph>
    <TTGlyph name="Epsilontonos" xMin="-97" yMin="0" xMax="485" yMax="714">
      <component glyphName="E" x="0" y="0" flags="0x204"/>
      <component glyphName="tonos.case" x="-132" y="0" flags="0x4"/>
    </TTGlyph>
    <TTGlyph name="Eta" xMin="85" yMin="0" xMax="589" yMax="691">
      <component glyphName="H" x="0" y="0" flags="0x204"/>
    </TTGlyph>
    <TTGlyph name="Etatonos" xMin="-97" yMin="0" xMax="589" yMax="714">
      <component glyphName="H" x="0" y="0" flags="0x204"/>
      <component glyphName="tonos.case" x="-132" y="0" flags="0x4"/>
    </TTGlyph>
    <TTGlyph name="Eth" xMin="17" yMin="0" xMax="614" yMax="691">
      <contour>
        <pt x="281" y="0" on="1"/>
        <pt x="98" y="0" on="1"/>
        <pt x="98" y="312" on="1"/>
        <pt x="17" y="312" on="1"/>
        <pt x="17" y="394" on="1"/>
        <pt x="98" y="394" on="1"/>
        <pt x="98" y="691" on="1"/>
        <pt x="263" y="691" on="1"/>
        <pt x="330" y="691" on="0"/>
        <pt x="457" y="664" on="0"/>
        <pt x="555" y="590" on="0"/>
        <pt x="614" y="456" on="0"/>
        <pt x="614" y="349" on="1"/>
        <pt x="614" y="245" on="0"/>
        <pt x="555" y="108" on="0"/>
        <pt x="461" y="31" on="0"/>
        <pt x="341" y="0" on="0"/>
      </contour>
      <contour>
        <pt x="222" y="93" on="1"/>
        <pt x="290" y="93" on="1"/>
        <pt x="329" y="93" on="0"/>
        <pt x="400" y="114" on="0"/>
        <pt x="452" y="171" on="0"/>
        <pt x="484" y="271" on="0"/>
        <pt x="484" y="349" on="1"/>
        <pt x="484" y="428" on="0"/>
        <pt x="451" y="526" on="0"/>
        <pt x="396" y="579" on="0"/>
        <pt x="324" y="597" on="0"/>
        <pt x="285" y="597" on="1"/>
        <pt x="222" y="597" on="1"/>
        <pt x="222" y="394" on="1"/>
        <pt x="370" y="394" on="1"/>
        <pt x="370" y="312" on="1"/>
        <pt x="222" y="312" on="1"/>
      </contour>
    </TTGlyph>
    <TTGlyph name="Euro" xMin="16" yMin="-14" xMax="557" yMax="705">
      <contour>
        <pt x="524" y="24" on="1"/>
        <pt x="487" y="7" on="0"/>
        <pt x="413" y="-14" on="0"/>
        <pt x="367" y="-14" on="1"/>
        <pt x="260" y="-14" on="0"/>
        <pt x="124" y="113" on="0"/>
        <pt x="103" y="236" on="1"/>
        <pt x="16" y="236" on="1"/>
        <pt x="34" y="306" on="1"/>
        <pt x="100" y="306" on="1"/>
        <pt x="100" y="388" on="1"/>
        <pt x="16" y="388" on="1"/>
        <pt x="34" y="459" on="1"/>
        <pt x="104" y="459" on="1"/>
        <pt x="130" y="578" on="0"/>
        <pt x="275" y="705" on="0"/>
        <pt x="371" y="705" on="1"/>
        <pt x="427" y="705" on="0"/>
        <pt x="517" y="675" on="0"/>
        <pt x="557" y="648" on="1"/>
        <pt x="515" y="571" on="1"/>
        <pt x="481" y="592" on="0"/>
        <pt x="417" y="613" on="0"/>
        <pt x="377" y="613" on="1"/>
        <pt x="322" y="613" on="0"/>
        <pt x="247" y="541" on="0"/>
        <pt x="229" y="459" on="1"/>
        <pt x="480" y="459" on="1"/>
        <pt x="462" y="388" on="1"/>
        <pt x="224" y="388" on="1"/>
        <pt x="224" y="306" on="1"/>
        <pt x="445" y="306" on="1"/>
        <pt x="428" y="236" on="1"/>
        <pt x="227" y="236" on="1"/>
        <pt x="240" y="152" on="0"/>
        <pt x="316" y="79" on="0"/>
        <pt x="383" y="79" on="1"/>
        <pt x="425" y="79" on="0"/>
        <pt x="493" y="104" on="0"/>
        <pt x="524" y="121" on="1"/>
      </contour>
    </TTGlyph>
    <TTGlyph name="Euro.lf" xMin="18" yMin="-14" xMax="564" yMax="683">
      <contour>
        <pt x="531" y="24" on="1"/>
        <pt x="494" y="7" on="0"/>
        <pt x="420" y="-14" on="0"/>
        <pt x="374" y="-14" on="1"/>
        <pt x="266" y="-14" on="0"/>
        <pt x="127" y="110" on="0"/>
        <pt x="105" y="226" on="1"/>
        <pt x="18" y="226" on="1"/>
        <pt x="36" y="296" on="1"/>
        <pt x="102" y="296" on="1"/>
        <pt x="102" y="378" on="1"/>
        <pt x="18" y="378" on="1"/>
        <pt x="36" y="449" on="1"/>
        <pt x="107" y="449" on="1"/>
        <pt x="132" y="561" on="0"/>
        <pt x="280" y="683" on="0"/>
        <pt x="379" y="683" on="1"/>
        <pt x="434" y="683" on="0"/>
        <pt x="525" y="653" on="0"/>
        <pt x="564" y="627" on="1"/>
        <pt x="519" y="550" on="1"/>
        <pt x="486" y="571" on="0"/>
        <pt x="423" y="591" on="0"/>
        <pt x="383" y="591" on="1"/>
        <pt x="329" y="591" on="0"/>
        <pt x="250" y="523" on="0"/>
        <pt x="232" y="449" on="1"/>
        <pt x="482" y="449" on="1"/>
        <pt x="464" y="378" on="1"/>
        <pt x="226" y="378" on="1"/>
        <pt x="226" y="296" on="1"/>
        <pt x="447" y="296" on="1"/>
        <pt x="430" y="226" on="1"/>
        <pt x="230" y="226" on="1"/>
        <pt x="243" y="149" on="0"/>
        <pt x="321" y="79" on="0"/>
        <pt x="389" y="79" on="1"/>
        <pt x="431" y="79" on="0"/>
        <pt x="500" y="104" on="0"/>
        <pt x="531" y="121" on="1"/>
      </contour>
    </TTGlyph>
    <TTGlyph name="Euro.osf" xMin="18" yMin="-14" xMax="564" yMax="683">
      <component glyphName="Euro.lf" x="0" y="0" flags="0x204"/>
    </TTGlyph>
    <TTGlyph name="Euro.tosf" xMin="33" yMin="-14" xMax="567" yMax="683">
      <contour>
        <pt x="533" y="24" on="1"/>
        <pt x="497" y="7" on="0"/>
        <pt x="426" y="-14" on="0"/>
        <pt x="382" y="-14" on="1"/>
        <pt x="276" y="-14" on="0"/>
        <pt x="141" y="110" on="0"/>
        <pt x="120" y="226" on="1"/>
        <pt x="33" y="226" on="1"/>
        <pt x="51" y="296" on="1"/>
        <pt x="117" y="296" on="1"/>
        <pt x="117" y="378" on="1"/>
        <pt x="33" y="378" on="1"/>
        <pt x="51" y="449" on="1"/>
        <pt x="122" y="449" on="1"/>
        <pt x="147" y="561" on="0"/>
        <pt x="291" y="683" on="0"/>
        <pt x="387" y="683" on="1"/>
        <pt x="440" y="683" on="0"/>
        <pt x="527" y="653" on="0"/>
        <pt x="567" y="627" on="1"/>
        <pt x="522" y="550" on="1"/>
        <pt x="488" y="571" on="0"/>
        <pt x="429" y="591" on="0"/>
        <pt x="391" y="591" on="1"/>
        <pt x="340" y="591" on="0"/>
        <pt x="265" y="523" on="0"/>
        <pt x="246" y="449" on="1"/>
        <pt x="486" y="449" on="1"/>
        <pt x="468" y="378" on="1"/>
        <pt x="240" y="378" on="1"/>
        <pt x="240" y="296" on="1"/>
        <pt x="451" y="296" on="1"/>
        <pt x="434" y="226" on="1"/>
        <pt x="244" y="226" on="1"/>
        <pt x="257" y="149" on="0"/>
        <pt x="331" y="79" on="0"/>
        <pt x="397" y="79" on="1"/>
        <pt x="437" y="79" on="0"/>
        <pt x="503" y="104" on="0"/>
        <pt x="533" y="121" on="1"/>
      </contour>
    </TTGlyph>
    <TTGlyph name="F" xMin="85" yMin="0" xMax="471" yMax="691">
      <contour>
        <pt x="85" y="691" on="1"/>
        <pt x="471" y="691" on="1"/>
        <pt x="457" y="597" on="1"/>
        <pt x="209" y="597" on="1"/>
        <pt x="209" y="384" on="1"/>
        <pt x="425" y="384" on="1"/>
        <pt x="425" y="291" on="1"/>
        <pt x="209" y="291" on="1"/>
        <pt x="209" y="0" on="1"/>
        <pt x="85" y="0" on="1"/>
      </contour>
    </TTGlyph>
    <TTGlyph name="G" xMin="46" yMin="-14" xMax="582" yMax="705">
      <contour>
        <pt x="46" y="346" on="1"/>
        <pt x="46" y="433" on="0"/>
        <pt x="96" y="568" on="0"/>
        <pt x="181" y="658" on="0"/>
        <pt x="295" y="705" on="0"/>
        <pt x="357" y="705" on="1"/>
        <pt x="429" y="705" on="0"/>
        <pt x="533" y="662" on="0"/>
        <pt x="576" y="625" on="1"/>
        <pt x="507" y="554" on="1"/>
        <pt x="473" y="582" on="0"/>
        <pt x="406" y="610" on="0"/>
        <pt x="362" y="610" on="1"/>
        <pt x="288" y="610" on="0"/>
        <pt x="176" y="488" on="0"/>
        <pt x="176" y="346" on="1"/>
        <pt x="176" y="203" on="0"/>
        <pt x="263" y="82" on="0"/>
        <pt x="345" y="82" on="1"/>
        <pt x="376" y="82" on="0"/>
        <pt x="435" y="95" on="0"/>
        <pt x="460" y="110" on="1"/>
        <pt x="460" y="296" on="1"/>
        <pt x="352" y="296" on="1"/>
        <pt x="339" y="389" on="1"/>
        <pt x="582" y="389" on="1"/>
        <pt x="582" y="52" on="1"/>
        <pt x="533" y="21" on="0"/>
        <pt x="412" y="-14" on="0"/>
        <pt x="342" y="-14" on="1"/>
        <pt x="202" y="-14" on="0"/>
        <pt x="46" y="168" on="0"/>
      </contour>
    </TTGlyph>
    <TTGlyph name="Gamma" xMin="85" yMin="0" xMax="503" yMax="691">
      <component glyphName="uni0413" x="0" y="0" flags="0x204"/>
    </TTGlyph>
    <TTGlyph name="Gbreve" xMin="46" yMin="-14" xMax="582" yMax="909">
      <component glyphName="G" x="0" y="0" flags="0x204"/>
      <component glyphName="breve.case" x="163" y="0" flags="0x4"/>
    </TTGlyph>
    <TTGlyph name="Gcircumflex" xMin="46" yMin="-14" xMax="582" yMax="929">
      <component glyphName="circumflex.case" x="148" y="0" flags="0x4"/>
      <component glyphName="G" x="0" y="0" flags="0x204"/>
    </TTGlyph>
    <TTGlyph name="Gcommaaccent" xMin="46" yMin="-308" xMax="582" yMax="705">
      <component glyphName="uni0326.case" x="246" y="0" flags="0x4"/>
      <component glyphName="G" x="0" y="0" flags="0x204"/>
    </TTGlyph>
    <TTGlyph name="Gdotaccent" xMin="46" yMin="-14" xMax="582" yMax="919">
      <component glyphName="dotaccent.case" x="247" y="0" flags="0x4"/>
      <component glyphName="G" x="0" y="0" flags="0x204"/>
    </TTGlyph>
    <TTGlyph name="H" xMin="85" yMin="0" xMax="589" yMax="691">
      <contour>
        <pt x="589" y="0" on="1"/>
        <pt x="465" y="0" on="1"/>
        <pt x="465" y="312" on="1"/>
        <pt x="209" y="312" on="1"/>
        <pt x="209" y="0" on="1"/>
        <pt x="85" y="0" on="1"/>
        <pt x="85" y="691" on="1"/>
        <pt x="209" y="691" on="1"/>
        <pt x="209" y="411" on="1"/>
        <pt x="465" y="411" on="1"/>
        <pt x="465" y="691" on="1"/>
        <pt x="589" y="691" on="1"/>
      </contour>
    </TTGlyph>
    <TTGlyph name="Hbar" xMin="26" yMin="0" xMax="658" yMax="691">
      <contour>
        <pt x="214" y="411" on="1"/>
        <pt x="469" y="411" on="1"/>
        <pt x="469" y="505" on="1"/>
        <pt x="214" y="505" on="1"/>
      </contour>
      <contour>
        <pt x="214" y="312" on="1"/>
        <pt x="214" y="0" on="1"/>
        <pt x="90" y="0" on="1"/>
        <pt x="90" y="505" on="1"/>
        <pt x="26" y="505" on="1"/>
        <pt x="26" y="583" on="1"/>
        <pt x="90" y="583" on="1"/>
        <pt x="90" y="691" on="1"/>
        <pt x="214" y="691" on="1"/>
        <pt x="214" y="583" on="1"/>
        <pt x="469" y="583" on="1"/>
        <pt x="469" y="691" on="1"/>
        <pt x="594" y="691" on="1"/>
        <pt x="594" y="583" on="1"/>
        <pt x="658" y="583" on="1"/>
        <pt x="658" y="505" on="1"/>
        <pt x="594" y="505" on="1"/>
        <pt x="594" y="0" on="1"/>
        <pt x="469" y="0" on="1"/>
        <pt x="469" y="312" on="1"/>
      </contour>
    </TTGlyph>
    <TTGlyph name="Hcircumflex" xMin="85" yMin="0" xMax="589" yMax="929">
      <component glyphName="H" x="0" y="0" flags="0x204"/>
      <component glyphName="circumflex.case" x="131" y="0" flags="0x4"/>
    </TTGlyph>
    <TTGlyph name="I" xMin="85" yMin="0" xMax="210" yMax="691">
      <contour>
        <pt x="85" y="691" on="1"/>
        <pt x="210" y="691" on="1"/>
        <pt x="210" y="0" on="1"/>
        <pt x="85" y="0" on="1"/>
      </contour>
    </TTGlyph>
    <TTGlyph name="IJ" xMin="85" yMin="-151" xMax="525" yMax="691">
      <component glyphName="I" x="0" y="0" flags="0x204"/>
      <component glyphName="J" x="295" y="0" flags="0x4"/>
    </TTGlyph>
    <TTGlyph name="Iacute" xMin="19" yMin="0" xMax="276" yMax="930">
      <component glyphName="I" x="0" y="0" flags="0x204"/>
      <component glyphName="acute.case" x="-11" y="0" flags="0x4"/>
    </TTGlyph>
    <TTGlyph name="Ibreve" xMin="-13" yMin="0" xMax="308" yMax="909">
      <component glyphName="I" x="0" y="0" flags="0x204"/>
      <component glyphName="breve.case" x="-43" y="0" flags="0x4"/>
    </TTGlyph>
    <TTGlyph name="Icircumflex" xMin="-29" yMin="0" xMax="323" yMax="929">
      <component glyphName="I" x="0" y="0" flags="0x204"/>
      <component glyphName="circumflex.case" x="-59" y="0" flags="0x4"/>
    </TTGlyph>
    <TTGlyph name="Idieresis" xMin="-30" yMin="0" xMax="324" yMax="907">
      <component glyphName="I" x="0" y="0" flags="0x204"/>
      <component glyphName="dieresis.case" x="-61" y="0" flags="0x4"/>
    </TTGlyph>
    <TTGlyph name="Idotaccent" xMin="70" yMin="0" xMax="224" yMax="919">
      <component glyphName="I" x="0" y="0" flags="0x204"/>
      <component glyphName="dotaccent.case" x="40" y="0" flags="0x4"/>
    </TTGlyph>
    <TTGlyph name="Igrave" xMin="10" yMin="0" xMax="267" yMax="930">
      <component glyphName="I" x="0" y="0" flags="0x204"/>
      <component glyphName="grave.case" x="-20" y="0" flags="0x4"/>
    </TTGlyph>
    <TTGlyph name="Imacron" xMin="4" yMin="0" xMax="291" yMax="870">
      <component glyphName="I" x="0" y="0" flags="0x204"/>
      <component glyphName="macron.case" x="-26" y="-4" flags="0x4"/>
    </TTGlyph>
    <TTGlyph name="Iogonek" xMin="-17" yMin="-238" xMax="210" yMax="691">
      <component glyphName="I" x="0" y="0" flags="0x204"/>
      <component glyphName="ogonek" x="-14" y="0" flags="0x4"/>
    </TTGlyph>
    <TTGlyph name="Iota" xMin="85" yMin="0" xMax="210" yMax="691">
      <component glyphName="I" x="0" y="0" flags="0x204"/>
    </TTGlyph>
    <TTGlyph name="Iotadieresis" xMin="-30" yMin="0" xMax="324" yMax="907">
      <component glyphName="I" x="0" y="0" flags="0x204"/>
      <component glyphName="dieresis.case" x="-61" y="0" flags="0x4"/>
    </TTGlyph>
    <TTGlyph name="Iotatonos" xMin="-97" yMin="0" xMax="210" yMax="714">
      <component glyphName="I" x="0" y="0" flags="0x204"/>
      <component glyphName="tonos.case" x="-132" y="0" flags="0x4"/>
    </TTGlyph>
    <TTGlyph name="Itilde" xMin="-29" yMin="0" xMax="323" yMax="908">
      <component glyphName="I" x="0" y="0" flags="0x204"/>
      <component glyphName="tilde.case" x="-59" y="0" flags="0x4"/>
    </TTGlyph>
    <TTGlyph name="J" xMin="-2" yMin="-151" xMax="230" yMax="691">
      <contour>
        <pt x="105" y="691" on="1"/>
        <pt x="230" y="691" on="1"/>
        <pt x="230" y="100" on="1"/>
        <pt x="230" y="-17" on="0"/>
        <pt x="116" y="-123" on="0"/>
        <pt x="31" y="-151" on="1"/>
        <pt x="-2" y="-62" on="1"/>
        <pt x="66" y="-35" on="0"/>
        <pt x="105" y="39" on="0"/>
        <pt x="105" y="105" on="1"/>
      </contour>
    </TTGlyph>
    <TTGlyph name="Jcircumflex" xMin="-8" yMin="-151" xMax="344" yMax="929">
      <component glyphName="J" x="0" y="0" flags="0x204"/>
      <component glyphName="circumflex.case" x="-38" y="0" flags="0x4"/>
    </TTGlyph>
    <TTGlyph name="K" xMin="85" yMin="0" xMax="613" yMax="691">
      <contour>
        <pt x="85" y="691" on="1"/>
        <pt x="209" y="691" on="1"/>
        <pt x="209" y="0" on="1"/>
        <pt x="85" y="0" on="1"/>
      </contour>
      <contour>
        <pt x="459" y="691" on="1"/>
        <pt x="594" y="691" on="1"/>
        <pt x="350" y="377" on="1"/>
        <pt x="613" y="0" on="1"/>
        <pt x="465" y="0" on="1"/>
        <pt x="215" y="369" on="1"/>
      </contour>
    </TTGlyph>
    <TTGlyph name="Kappa" xMin="85" yMin="0" xMax="613" yMax="691">
      <component glyphName="K" x="0" y="0" flags="0x204"/>
    </TTGlyph>
    <TTGlyph name="Kcommaaccent" xMin="85" yMin="-308" xMax="613" yMax="691">
      <component glyphName="uni0326.case" x="221" y="0" flags="0x4"/>
      <component glyphName="K" x="0" y="0" flags="0x204"/>
    </TTGlyph>
    <TTGlyph name="L" xMin="85" yMin="0" xMax="487" yMax="691">
      <contour>
        <pt x="85" y="691" on="1"/>
        <pt x="209" y="691" on="1"/>
        <pt x="209" y="103" on="1"/>
        <pt x="487" y="103" on="1"/>
        <pt x="473" y="0" on="1"/>
        <pt x="85" y="0" on="1"/>
      </contour>
    </TTGlyph>
    <TTGlyph name="Lacute" xMin="19" yMin="0" xMax="487" yMax="930">
      <component glyphName="acute.case" x="-11" y="0" flags="0x4"/>
      <component glyphName="L" x="0" y="0" flags="0x204"/>
    </TTGlyph>
    <TTGlyph name="Lambda" xMin="-2" yMin="0" xMax="583" yMax="691">
      <contour>
        <pt x="214" y="691" on="1"/>
        <pt x="367" y="691" on="1"/>
        <pt x="583" y="0" on="1"/>
        <pt x="451" y="0" on="1"/>
        <pt x="289" y="595" on="1"/>
        <pt x="125" y="0" on="1"/>
        <pt x="-2" y="0" on="1"/>
      </contour>
    </TTGlyph>
    <TTGlyph name="Lcaron" xMin="85" yMin="0" xMax="487" yMax="702">
      <component glyphName="caron.alt" x="203" y="0" flags="0x4"/>
      <component glyphName="L" x="0" y="0" flags="0x204"/>
    </TTGlyph>
    <TTGlyph name="Lcommaaccent" xMin="85" yMin="-308" xMax="487" yMax="691">
      <component glyphName="uni0326.case" x="181" y="0" flags="0x4"/>
      <component glyphName="L" x="0" y="0" flags="0x204"/>
    </TTGlyph>
    <TTGlyph name="Ldot" xMin="85" yMin="0" xMax="487" yMax="691">
      <component glyphName="L" x="0" y="0" flags="0x204"/>
      <component glyphName="dotaccent" x="287" y="-327" flags="0x4"/>
    </TTGlyph>
    <TTGlyph name="Lslash" xMin="16" yMin="0" xMax="513" yMax="691">
      <contour>
        <pt x="499" y="0" on="1"/>
        <pt x="111" y="0" on="1"/>
        <pt x="111" y="243" on="1"/>
        <pt x="61" y="212" on="1"/>
        <pt x="16" y="283" on="1"/>
        <pt x="111" y="342" on="1"/>
        <pt x="111" y="691" on="1"/>
        <pt x="235" y="691" on="1"/>
        <pt x="235" y="418" on="1"/>
        <pt x="382" y="509" on="1"/>
        <pt x="426" y="438" on="1"/>
        <pt x="235" y="320" on="1"/>
        <pt x="235" y="103" on="1"/>
        <pt x="513" y="103" on="1"/>
      </contour>
    </TTGlyph>
    <TTGlyph name="M" xMin="50" yMin="0" xMax="732" yMax="691">
      <contour>
        <pt x="514" y="691" on="1"/>
        <pt x="677" y="691" on="1"/>
        <pt x="732" y="0" on="1"/>
        <pt x="611" y="0" on="1"/>
        <pt x="592" y="294" on="1"/>
        <pt x="586" y="371" on="0"/>
        <pt x="580" y="524" on="0"/>
        <pt x="581" y="576" on="1"/>
        <pt x="450" y="76" on="1"/>
        <pt x="333" y="76" on="1"/>
        <pt x="194" y="577" on="1"/>
        <pt x="196" y="510" on="0"/>
        <pt x="192" y="363" on="0"/>
        <pt x="188" y="289" on="1"/>
        <pt x="169" y="0" on="1"/>
        <pt x="50" y="0" on="1"/>
        <pt x="105" y="691" on="1"/>
        <pt x="266" y="691" on="1"/>
        <pt x="394" y="203" on="1"/>
      </contour>
    </TTGlyph>
    <TTGlyph name="Mu" xMin="50" yMin="0" xMax="732" yMax="691">
      <component glyphName="M" x="0" y="0" flags="0x204"/>
    </TTGlyph>
    <TTGlyph name="N" xMin="85" yMin="0" xMax="590" yMax="691">
      <contour>
        <pt x="476" y="691" on="1"/>
        <pt x="590" y="691" on="1"/>
        <pt x="590" y="0" on="1"/>
        <pt x="428" y="0" on="1"/>
        <pt x="182" y="565" on="1"/>
        <pt x="186" y="520" on="0"/>
        <pt x="199" y="386" on="0"/>
        <pt x="199" y="290" on="1"/>
        <pt x="199" y="0" on="1"/>
        <pt x="85" y="0" on="1"/>
        <pt x="85" y="691" on="1"/>
        <pt x="243" y="691" on="1"/>
        <pt x="493" y="125" on="1"/>
        <pt x="489" y="150" on="0"/>
        <pt x="476" y="284" on="0"/>
        <pt x="476" y="355" on="1"/>
      </contour>
    </TTGlyph>
    <TTGlyph name="Nacute" xMin="85" yMin="0" xMax="590" yMax="930">
      <component glyphName="acute.case" x="188" y="0" flags="0x4"/>
      <component glyphName="N" x="0" y="0" flags="0x204"/>
    </TTGlyph>
    <TTGlyph name="Nacute.loclPLK" xMin="85" yMin="0" xMax="590" yMax="942">
      <component glyphName="N" x="0" y="0" flags="0x204"/>
      <component glyphName="acute.case.loclPLK" x="188" y="0" flags="0x4"/>
    </TTGlyph>
    <TTGlyph name="Ncaron" xMin="85" yMin="0" xMax="590" yMax="924">
      <component glyphName="N" x="0" y="0" flags="0x204"/>
      <component glyphName="caron.case" x="140" y="0" flags="0x4"/>
    </TTGlyph>
    <TTGlyph name="Ncommaaccent" xMin="85" yMin="-308" xMax="590" yMax="691">
      <component glyphName="uni0326.case" x="240" y="0" flags="0x4"/>
      <component glyphName="N" x="0" y="0" flags="0x204"/>
    </TTGlyph>
    <TTGlyph name="Ntilde" xMin="85" yMin="0" xMax="590" yMax="908">
      <component glyphName="tilde.case" x="140" y="0" flags="0x4"/>
      <component glyphName="N" x="0" y="0" flags="0x204"/>
    </TTGlyph>
    <TTGlyph name="Nu" xMin="85" yMin="0" xMax="590" yMax="691">
      <component glyphName="N" x="0" y="0" flags="0x204"/>
    </TTGlyph>
    <TTGlyph name="O" xMin="46" yMin="-14" xMax="646" yMax="705">
      <contour>
        <pt x="46" y="345" on="1"/>
        <pt x="46" y="514" on="0"/>
        <pt x="210" y="705" on="0"/>
        <pt x="346" y="705" on="1"/>
        <pt x="482" y="705" on="0"/>
        <pt x="646" y="518" on="0"/>
        <pt x="646" y="345" on="1"/>
        <pt x="646" y="176" on="0"/>
        <pt x="482" y="-14" on="0"/>
        <pt x="346" y="-14" on="1"/>
        <pt x="210" y="-14" on="0"/>
        <pt x="46" y="173" on="0"/>
      </contour>
      <contour>
        <pt x="515" y="345" on="1"/>
        <pt x="515" y="486" on="0"/>
        <pt x="426" y="609" on="0"/>
        <pt x="346" y="609" on="1"/>
        <pt x="268" y="609" on="0"/>
        <pt x="177" y="486" on="0"/>
        <pt x="177" y="345" on="1"/>
        <pt x="177" y="204" on="0"/>
        <pt x="269" y="82" on="0"/>
        <pt x="346" y="82" on="1"/>
        <pt x="425" y="82" on="0"/>
        <pt x="515" y="204" on="0"/>
      </contour>
    </TTGlyph>
    <TTGlyph name="OE" xMin="46" yMin="-14" xMax="854" yMax="705">
      <contour>
        <pt x="495" y="345" on="1"/>
        <pt x="495" y="486" on="0"/>
        <pt x="408" y="609" on="0"/>
        <pt x="336" y="609" on="1"/>
        <pt x="265" y="609" on="0"/>
        <pt x="177" y="486" on="0"/>
        <pt x="177" y="345" on="1"/>
        <pt x="177" y="204" on="0"/>
        <pt x="267" y="82" on="0"/>
        <pt x="336" y="82" on="1"/>
        <pt x="408" y="82" on="0"/>
        <pt x="495" y="204" on="0"/>
      </contour>
      <contour>
        <pt x="854" y="0" on="1"/>
        <pt x="414" y="0" on="1"/>
        <pt x="395" y="-7" on="0"/>
        <pt x="353" y="-14" on="0"/>
        <pt x="331" y="-14" on="1"/>
        <pt x="206" y="-14" on="0"/>
        <pt x="46" y="173" on="0"/>
        <pt x="46" y="345" on="1"/>
        <pt x="46" y="514" on="0"/>
        <pt x="206" y="705" on="0"/>
        <pt x="331" y="705" on="1"/>
        <pt x="354" y="705" on="0"/>
        <pt x="398" y="698" on="0"/>
        <pt x="418" y="691" on="1"/>
        <pt x="850" y="691" on="1"/>
        <pt x="836" y="597" on="1"/>
        <pt x="547" y="597" on="1"/>
        <pt x="579" y="560" on="0"/>
        <pt x="618" y="457" on="0"/>
        <pt x="624" y="397" on="1"/>
        <pt x="803" y="397" on="1"/>
        <pt x="803" y="305" on="1"/>
        <pt x="624" y="305" on="1"/>
        <pt x="620" y="242" on="0"/>
        <pt x="577" y="134" on="0"/>
        <pt x="542" y="94" on="1"/>
        <pt x="854" y="94" on="1"/>
      </contour>
    </TTGlyph>
    <TTGlyph name="Oacute" xMin="46" yMin="-14" xMax="646" yMax="930">
      <component glyphName="acute.case" x="190" y="0" flags="0x4"/>
      <component glyphName="O" x="0" y="0" flags="0x204"/>
    </TTGlyph>
    <TTGlyph name="Oacute.loclPLK" xMin="46" yMin="-14" xMax="646" yMax="942">
      <component glyphName="O" x="0" y="0" flags="0x204"/>
      <component glyphName="acute.case.loclPLK" x="191" y="0" flags="0x4"/>
    </TTGlyph>
    <TTGlyph name="Obreve" xMin="46" yMin="-14" xMax="646" yMax="909">
      <component glyphName="O" x="0" y="0" flags="0x204"/>
      <component glyphName="breve.case" x="158" y="0" flags="0x4"/>
    </TTGlyph>
    <TTGlyph name="Ocircumflex" xMin="46" yMin="-14" xMax="646" yMax="929">
      <component glyphName="circumflex.case" x="143" y="0" flags="0x4"/>
      <component glyphName="O" x="0" y="0" flags="0x204"/>
    </TTGlyph>
    <TTGlyph name="Odieresis" xMin="46" yMin="-14" xMax="646" yMax="907">
      <component glyphName="O" x="0" y="0" flags="0x204"/>
      <component glyphName="dieresis.case" x="141" y="0" flags="0x4"/>
    </TTGlyph>
    <TTGlyph name="Ograve" xMin="46" yMin="-14" xMax="646" yMax="930">
      <component glyphName="grave.case" x="182" y="0" flags="0x4"/>
      <component glyphName="O" x="0" y="0" flags="0x204"/>
    </TTGlyph>
    <TTGlyph name="Ohm" xMin="46" yMin="0" xMax="646" yMax="705">
      <component glyphName="Omega" x="0" y="0" flags="0x204"/>
    </TTGlyph>
    <TTGlyph name="Ohungarumlaut" xMin="46" yMin="-14" xMax="646" yMax="970">
      <component glyphName="hungarumlaut.case" x="197" y="0" flags="0x4"/>
      <component glyphName="O" x="0" y="0" flags="0x204"/>
    </TTGlyph>
    <TTGlyph name="Omacron" xMin="46" yMin="-14" xMax="646" yMax="870">
      <component glyphName="O" x="0" y="0" flags="0x204"/>
      <component glyphName="macron.case" x="175" y="-4" flags="0x4"/>
    </TTGlyph>
    <TTGlyph name="Omega" xMin="46" yMin="0" xMax="646" yMax="705">
      <contour>
        <pt x="46" y="363" on="1"/>
        <pt x="46" y="517" on="0"/>
        <pt x="210" y="705" on="0"/>
        <pt x="346" y="705" on="1"/>
        <pt x="484" y="705" on="0"/>
        <pt x="646" y="520" on="0"/>
        <pt x="646" y="364" on="1"/>
        <pt x="646" y="265" on="0"/>
        <pt x="585" y="137" on="0"/>
        <pt x="513" y="96" on="1"/>
        <pt x="624" y="96" on="1"/>
        <pt x="624" y="0" on="1"/>
        <pt x="393" y="0" on="1"/>
        <pt x="393" y="94" on="1"/>
        <pt x="460" y="119" on="0"/>
        <pt x="515" y="248" on="0"/>
        <pt x="515" y="364" on="1"/>
        <pt x="515" y="489" on="0"/>
        <pt x="426" y="609" on="0"/>
        <pt x="346" y="609" on="1"/>
        <pt x="268" y="609" on="0"/>
        <pt x="177" y="489" on="0"/>
        <pt x="177" y="363" on="1"/>
        <pt x="177" y="241" on="0"/>
        <pt x="235" y="119" on="0"/>
        <pt x="298" y="94" on="1"/>
        <pt x="298" y="0" on="1"/>
        <pt x="67" y="0" on="1"/>
        <pt x="67" y="96" on="1"/>
        <pt x="174" y="96" on="1"/>
        <pt x="108" y="133" on="0"/>
        <pt x="46" y="261" on="0"/>
      </contour>
    </TTGlyph>
    <TTGlyph name="Omegatonos" xMin="-67" yMin="0" xMax="646" yMax="714">
      <component glyphName="Omega" x="0" y="0" flags="0x204"/>
      <component glyphName="tonos.case" x="-102" y="0" flags="0x4"/>
    </TTGlyph>
    <TTGlyph name="Omicron" xMin="46" yMin="-14" xMax="646" yMax="705">
      <component glyphName="O" x="0" y="0" flags="0x204"/>
    </TTGlyph>
    <TTGlyph name="Omicrontonos" xMin="-64" yMin="-14" xMax="646" yMax="714">
      <component glyphName="O" x="0" y="0" flags="0x204"/>
      <component glyphName="tonos.case" x="-99" y="0" flags="0x4"/>
    </TTGlyph>
    <TTGlyph name="Oslash" xMin="46" yMin="-130" xMax="646" yMax="823">
      <contour>
        <pt x="177" y="345" on="1"/>
        <pt x="177" y="255" on="0"/>
        <pt x="210" y="145" on="0"/>
        <pt x="240" y="117" on="1"/>
        <pt x="387" y="605" on="1"/>
        <pt x="377" y="607" on="0"/>
        <pt x="357" y="609" on="0"/>
        <pt x="346" y="609" on="1"/>
        <pt x="268" y="609" on="0"/>
        <pt x="177" y="486" on="0"/>
      </contour>
      <contour>
        <pt x="346" y="82" on="1"/>
        <pt x="425" y="82" on="0"/>
        <pt x="515" y="204" on="0"/>
        <pt x="515" y="345" on="1"/>
        <pt x="515" y="437" on="0"/>
        <pt x="482" y="548" on="0"/>
        <pt x="451" y="575" on="1"/>
        <pt x="304" y="86" on="1"/>
        <pt x="314" y="84" on="0"/>
        <pt x="335" y="82" on="0"/>
      </contour>
      <contour>
        <pt x="346" y="-14" on="1"/>
        <pt x="330" y="-14" on="0"/>
        <pt x="300" y="-11" on="0"/>
        <pt x="286" y="-9" on="1"/>
        <pt x="251" y="-130" on="1"/>
        <pt x="153" y="-104" on="1"/>
        <pt x="193" y="25" on="1"/>
        <pt x="124" y="65" on="0"/>
        <pt x="46" y="228" on="0"/>
        <pt x="46" y="345" on="1"/>
        <pt x="46" y="514" on="0"/>
        <pt x="210" y="705" on="0"/>
        <pt x="346" y="705" on="1"/>
        <pt x="361" y="705" on="0"/>
        <pt x="391" y="702" on="0"/>
        <pt x="405" y="700" on="1"/>
        <pt x="442" y="823" on="1"/>
        <pt x="539" y="797" on="1"/>
        <pt x="498" y="667" on="1"/>
        <pt x="567" y="627" on="0"/>
        <pt x="646" y="464" on="0"/>
        <pt x="646" y="345" on="1"/>
        <pt x="646" y="176" on="0"/>
        <pt x="482" y="-14" on="0"/>
      </contour>
    </TTGlyph>
    <TTGlyph name="Oslashacute" xMin="46" yMin="-130" xMax="646" yMax="953">
      <component glyphName="Oslash" x="0" y="0" flags="0x204"/>
      <component glyphName="acute.case" x="184" y="23" flags="0x4"/>
    </TTGlyph>
    <TTGlyph name="Oslashacute.001" xMin="46" yMin="-130" xMax="646" yMax="953">
      <component glyphName="Oslash" x="0" y="0" flags="0x204"/>
      <component glyphName="acute.case" x="184" y="23" flags="0x4"/>
    </TTGlyph>
    <TTGlyph name="Otilde" xMin="46" yMin="-14" xMax="646" yMax="908">
      <component glyphName="O" x="0" y="0" flags="0x204"/>
      <component glyphName="tilde.case" x="143" y="0" flags="0x4"/>
    </TTGlyph>
    <TTGlyph name="P" xMin="85" yMin="0" xMax="561" yMax="691">
      <contour>
        <pt x="209" y="599" on="1"/>
        <pt x="209" y="337" on="1"/>
        <pt x="283" y="337" on="1"/>
        <pt x="350" y="337" on="0"/>
        <pt x="432" y="394" on="0"/>
        <pt x="432" y="472" on="1"/>
        <pt x="432" y="539" on="0"/>
        <pt x="352" y="599" on="0"/>
        <pt x="283" y="599" on="1"/>
      </contour>
      <contour>
        <pt x="291" y="243" on="1"/>
        <pt x="209" y="243" on="1"/>
        <pt x="209" y="0" on="1"/>
        <pt x="85" y="0" on="1"/>
        <pt x="85" y="691" on="1"/>
        <pt x="284" y="691" on="1"/>
        <pt x="412" y="691" on="0"/>
        <pt x="561" y="582" on="0"/>
        <pt x="561" y="472" on="1"/>
        <pt x="561" y="353" on="0"/>
        <pt x="407" y="243" on="0"/>
      </contour>
    </TTGlyph>
    <TTGlyph name="Phi" xMin="27" yMin="0" xMax="797" yMax="691">
      <contour>
        <pt x="472" y="0" on="1"/>
        <pt x="352" y="0" on="1"/>
        <pt x="352" y="71" on="1"/>
        <pt x="198" y="78" on="0"/>
        <pt x="27" y="222" on="0"/>
        <pt x="27" y="345" on="1"/>
        <pt x="27" y="473" on="0"/>
        <pt x="205" y="614" on="0"/>
        <pt x="352" y="618" on="1"/>
        <pt x="352" y="691" on="1"/>
        <pt x="472" y="691" on="1"/>
        <pt x="472" y="618" on="1"/>
        <pt x="626" y="611" on="0"/>
        <pt x="797" y="468" on="0"/>
        <pt x="797" y="348" on="1"/>
        <pt x="797" y="217" on="0"/>
        <pt x="619" y="75" on="0"/>
        <pt x="472" y="71" on="1"/>
      </contour>
      <contour>
        <pt x="154" y="345" on="1"/>
        <pt x="154" y="257" on="0"/>
        <pt x="255" y="158" on="0"/>
        <pt x="356" y="154" on="1"/>
        <pt x="356" y="536" on="1"/>
        <pt x="253" y="529" on="0"/>
        <pt x="154" y="433" on="0"/>
      </contour>
      <contour>
        <pt x="670" y="348" on="1"/>
        <pt x="670" y="433" on="0"/>
        <pt x="569" y="531" on="0"/>
        <pt x="468" y="535" on="1"/>
        <pt x="468" y="153" on="1"/>
        <pt x="571" y="160" on="0"/>
        <pt x="670" y="258" on="0"/>
      </contour>
    </TTGlyph>
    <TTGlyph name="Pi" xMin="85" yMin="0" xMax="585" yMax="691">
      <component glyphName="uni041F" x="0" y="0" flags="0x204"/>
    </TTGlyph>
    <TTGlyph name="Psi" xMin="28" yMin="0" xMax="680" yMax="691">
      <contour>
        <pt x="416" y="0" on="1"/>
        <pt x="292" y="0" on="1"/>
        <pt x="292" y="188" on="1"/>
        <pt x="160" y="201" on="0"/>
        <pt x="28" y="323" on="0"/>
        <pt x="28" y="427" on="1"/>
        <pt x="28" y="691" on="1"/>
        <pt x="149" y="691" on="1"/>
        <pt x="149" y="430" on="1"/>
        <pt x="149" y="361" on="0"/>
        <pt x="218" y="287" on="0"/>
        <pt x="296" y="280" on="1"/>
        <pt x="296" y="691" on="1"/>
        <pt x="412" y="691" on="1"/>
        <pt x="412" y="281" on="1"/>
        <pt x="487" y="288" on="0"/>
        <pt x="559" y="361" on="0"/>
        <pt x="559" y="430" on="1"/>
        <pt x="559" y="691" on="1"/>
        <pt x="680" y="691" on="1"/>
        <pt x="680" y="430" on="1"/>
        <pt x="680" y="322" on="0"/>
        <pt x="543" y="201" on="0"/>
        <pt x="416" y="189" on="1"/>
      </contour>
    </TTGlyph>
    <TTGlyph name="Q" xMin="46" yMin="-121" xMax="680" yMax="705">
      <contour>
        <pt x="603" y="-121" on="1"/>
        <pt x="549" y="-69" on="0"/>
        <pt x="435" y="-12" on="0"/>
        <pt x="340" y="-12" on="1"/>
        <pt x="209" y="-12" on="0"/>
        <pt x="46" y="173" on="0"/>
        <pt x="46" y="345" on="1"/>
        <pt x="46" y="514" on="0"/>
        <pt x="210" y="705" on="0"/>
        <pt x="346" y="705" on="1"/>
        <pt x="482" y="705" on="0"/>
        <pt x="646" y="518" on="0"/>
        <pt x="646" y="345" on="1"/>
        <pt x="646" y="220" on="0"/>
        <pt x="555" y="78" on="0"/>
        <pt x="486" y="41" on="1"/>
        <pt x="548" y="41" on="0"/>
        <pt x="642" y="7" on="0"/>
        <pt x="680" y="-21" on="1"/>
      </contour>
      <contour>
        <pt x="515" y="345" on="1"/>
        <pt x="515" y="486" on="0"/>
        <pt x="426" y="609" on="0"/>
        <pt x="346" y="609" on="1"/>
        <pt x="268" y="609" on="0"/>
        <pt x="177" y="486" on="0"/>
        <pt x="177" y="345" on="1"/>
        <pt x="177" y="204" on="0"/>
        <pt x="269" y="82" on="0"/>
        <pt x="346" y="82" on="1"/>
        <pt x="425" y="82" on="0"/>
        <pt x="515" y="204" on="0"/>
      </contour>
    </TTGlyph>
    <TTGlyph name="R" xMin="85" yMin="0" xMax="597" yMax="691">
      <contour>
        <pt x="209" y="599" on="1"/>
        <pt x="209" y="371" on="1"/>
        <pt x="294" y="371" on="1"/>
        <pt x="358" y="371" on="0"/>
        <pt x="427" y="426" on="0"/>
        <pt x="427" y="489" on="1"/>
        <pt x="427" y="547" on="0"/>
        <pt x="358" y="599" on="0"/>
        <pt x="283" y="599" on="1"/>
      </contour>
      <contour>
        <pt x="454" y="0" on="1"/>
        <pt x="298" y="280" on="1"/>
        <pt x="209" y="280" on="1"/>
        <pt x="209" y="0" on="1"/>
        <pt x="85" y="0" on="1"/>
        <pt x="85" y="691" on="1"/>
        <pt x="285" y="691" on="1"/>
        <pt x="419" y="691" on="0"/>
        <pt x="557" y="590" on="0"/>
        <pt x="557" y="489" on="1"/>
        <pt x="557" y="418" on="0"/>
        <pt x="486" y="329" on="0"/>
        <pt x="415" y="303" on="1"/>
        <pt x="597" y="0" on="1"/>
      </contour>
    </TTGlyph>
    <TTGlyph name="Racute" xMin="85" yMin="0" xMax="597" yMax="930">
      <component glyphName="R" x="0" y="0" flags="0x204"/>
      <component glyphName="acute.case" x="144" y="0" flags="0x4"/>
    </TTGlyph>
    <TTGlyph name="Rcaron" xMin="85" yMin="0" xMax="597" yMax="924">
      <component glyphName="R" x="0" y="0" flags="0x204"/>
      <component glyphName="caron.case" x="96" y="0" flags="0x4"/>
    </TTGlyph>
    <TTGlyph name="Rcommaaccent" xMin="85" yMin="-308" xMax="597" yMax="691">
      <component glyphName="uni0326.case" x="211" y="0" flags="0x4"/>
      <component glyphName="R" x="0" y="0" flags="0x204"/>
    </TTGlyph>
    <TTGlyph name="Rho" xMin="85" yMin="0" xMax="561" yMax="691">
      <component glyphName="P" x="0" y="0" flags="0x204"/>
    </TTGlyph>
    <TTGlyph name="S" xMin="18" yMin="-14" xMax="523" yMax="705">
      <contour>
        <pt x="47" y="516" on="1"/>
        <pt x="47" y="600" on="0"/>
        <pt x="178" y="705" on="0"/>
        <pt x="278" y="705" on="1"/>
        <pt x="352" y="705" on="0"/>
        <pt x="458" y="661" on="0"/>
        <pt x="502" y="621" on="1"/>
        <pt x="439" y="549" on="1"/>
        <pt x="402" y="580" on="0"/>
        <pt x="328" y="609" on="0"/>
        <pt x="285" y="609" on="1"/>
        <pt x="237" y="609" on="0"/>
        <pt x="174" y="566" on="0"/>
        <pt x="174" y="524" on="1"/>
        <pt x="174" y="484" on="0"/>
        <pt x="231" y="439" on="0"/>
        <pt x="318" y="412" on="1"/>
        <pt x="407" y="384" on="0"/>
        <pt x="523" y="293" on="0"/>
        <pt x="523" y="196" on="1"/>
        <pt x="523" y="104" on="0"/>
        <pt x="386" y="-14" on="0"/>
        <pt x="265" y="-14" on="1"/>
        <pt x="184" y="-14" on="0"/>
        <pt x="61" y="37" on="0"/>
        <pt x="18" y="79" on="1"/>
        <pt x="86" y="153" on="1"/>
        <pt x="121" y="120" on="0"/>
        <pt x="208" y="82" on="0"/>
        <pt x="262" y="82" on="1"/>
        <pt x="318" y="82" on="0"/>
        <pt x="394" y="137" on="0"/>
        <pt x="394" y="190" on="1"/>
        <pt x="394" y="235" on="0"/>
        <pt x="336" y="285" on="0"/>
        <pt x="254" y="310" on="1"/>
        <pt x="147" y="344" on="0"/>
        <pt x="47" y="438" on="0"/>
      </contour>
    </TTGlyph>
    <TTGlyph name="Sacute" xMin="18" yMin="-14" xMax="523" yMax="930">
      <component glyphName="S" x="0" y="0" flags="0x204"/>
      <component glyphName="acute.case" x="126" y="0" flags="0x4"/>
    </TTGlyph>
    <TTGlyph name="Sacute.loclPLK" xMin="18" yMin="-14" xMax="523" yMax="942">
      <component glyphName="S" x="0" y="0" flags="0x204"/>
      <component glyphName="acute.case.loclPLK" x="127" y="0" flags="0x4"/>
    </TTGlyph>
    <TTGlyph name="Scaron" xMin="18" yMin="-14" xMax="523" yMax="924">
      <component glyphName="S" x="0" y="0" flags="0x204"/>
      <component glyphName="caron.case" x="78" y="0" flags="0x4"/>
    </TTGlyph>
    <TTGlyph name="Scedilla" xMin="18" yMin="-250" xMax="523" yMax="705">
      <component glyphName="cedilla.case" x="142" y="0" flags="0x4"/>
      <component glyphName="S" x="0" y="0" flags="0x204"/>
    </TTGlyph>
    <TTGlyph name="Scircumflex" xMin="18" yMin="-14" xMax="523" yMax="929">
      <component glyphName="S" x="0" y="0" flags="0x204"/>
      <component glyphName="circumflex.case" x="78" y="0" flags="0x4"/>
    </TTGlyph>
    <TTGlyph name="Scommaaccent" xMin="18" yMin="-308" xMax="523" yMax="705">
      <component glyphName="uni0326.case" x="175" y="0" flags="0x4"/>
      <component glyphName="S" x="0" y="0" flags="0x204"/>
    </TTGlyph>
    <TTGlyph name="Sigma" xMin="32" yMin="0" xMax="471" yMax="691">
      <contour>
        <pt x="32" y="691" on="1"/>
        <pt x="471" y="691" on="1"/>
        <pt x="471" y="595" on="1"/>
        <pt x="171" y="595" on="1"/>
        <pt x="357" y="373" on="1"/>
        <pt x="357" y="309" on="1"/>
        <pt x="170" y="96" on="1"/>
        <pt x="471" y="96" on="1"/>
        <pt x="471" y="0" on="1"/>
        <pt x="32" y="0" on="1"/>
        <pt x="32" y="95" on="1"/>
        <pt x="241" y="339" on="1"/>
        <pt x="32" y="595" on="1"/>
      </contour>
    </TTGlyph>
    <TTGlyph name="T" xMin="12" yMin="0" xMax="521" yMax="691">
      <contour>
        <pt x="12" y="691" on="1"/>
        <pt x="521" y="691" on="1"/>
        <pt x="508" y="591" on="1"/>
        <pt x="326" y="591" on="1"/>
        <pt x="326" y="0" on="1"/>
        <pt x="201" y="0" on="1"/>
        <pt x="201" y="591" on="1"/>
        <pt x="12" y="591" on="1"/>
      </contour>
    </TTGlyph>
    <TTGlyph name="Tau" xMin="12" yMin="0" xMax="521" yMax="691">
      <component glyphName="T" x="0" y="0" flags="0x204"/>
    </TTGlyph>
    <TTGlyph name="Tbar" xMin="12" yMin="-1" xMax="521" yMax="689">
      <contour>
        <pt x="446" y="309" on="1"/>
        <pt x="326" y="309" on="1"/>
        <pt x="326" y="-1" on="1"/>
        <pt x="201" y="-1" on="1"/>
        <pt x="201" y="309" on="1"/>
        <pt x="82" y="309" on="1"/>
        <pt x="82" y="388" on="1"/>
        <pt x="201" y="388" on="1"/>
        <pt x="201" y="589" on="1"/>
        <pt x="12" y="589" on="1"/>
        <pt x="12" y="689" on="1"/>
        <pt x="521" y="689" on="1"/>
        <pt x="508" y="589" on="1"/>
        <pt x="326" y="589" on="1"/>
        <pt x="326" y="388" on="1"/>
        <pt x="446" y="388" on="1"/>
      </contour>
    </TTGlyph>
    <TTGlyph name="Tcaron" xMin="12" yMin="0" xMax="521" yMax="924">
      <component glyphName="T" x="0" y="0" flags="0x204"/>
      <component glyphName="caron.case" x="58" y="0" flags="0x4"/>
    </TTGlyph>
    <TTGlyph name="Tcedilla" xMin="12" yMin="-250" xMax="521" yMax="691">
      <component glyphName="cedillaTcedilla" x="161" y="0" flags="0x4"/>
      <component glyphName="T" x="0" y="0" flags="0x204"/>
    </TTGlyph>
    <TTGlyph name="Theta" xMin="46" yMin="-14" xMax="646" yMax="705">
      <contour>
        <pt x="46" y="345" on="1"/>
        <pt x="46" y="514" on="0"/>
        <pt x="210" y="705" on="0"/>
        <pt x="346" y="705" on="1"/>
        <pt x="482" y="705" on="0"/>
        <pt x="646" y="518" on="0"/>
        <pt x="646" y="345" on="1"/>
        <pt x="646" y="176" on="0"/>
        <pt x="482" y="-14" on="0"/>
        <pt x="346" y="-14" on="1"/>
        <pt x="210" y="-14" on="0"/>
        <pt x="46" y="173" on="0"/>
      </contour>
      <contour>
        <pt x="519" y="345" on="1"/>
        <pt x="519" y="486" on="0"/>
        <pt x="428" y="609" on="0"/>
        <pt x="346" y="609" on="1"/>
        <pt x="265" y="609" on="0"/>
        <pt x="173" y="486" on="0"/>
        <pt x="173" y="345" on="1"/>
        <pt x="173" y="204" on="0"/>
        <pt x="267" y="82" on="0"/>
        <pt x="346" y="82" on="1"/>
        <pt x="427" y="82" on="0"/>
        <pt x="519" y="204" on="0"/>
      </contour>
      <contour>
        <pt x="234" y="393" on="1"/>
        <pt x="457" y="393" on="1"/>
        <pt x="457" y="311" on="1"/>
        <pt x="234" y="311" on="1"/>
      </contour>
    </TTGlyph>
    <TTGlyph name="Thorn" xMin="85" yMin="0" xMax="561" yMax="691">
      <contour>
        <pt x="209" y="485" on="1"/>
        <pt x="209" y="215" on="1"/>
        <pt x="283" y="215" on="1"/>
        <pt x="350" y="215" on="0"/>
        <pt x="432" y="273" on="0"/>
        <pt x="432" y="354" on="1"/>
        <pt x="432" y="424" on="0"/>
        <pt x="352" y="485" on="0"/>
        <pt x="283" y="485" on="1"/>
      </contour>
      <contour>
        <pt x="291" y="121" on="1"/>
        <pt x="209" y="121" on="1"/>
        <pt x="209" y="0" on="1"/>
        <pt x="85" y="0" on="1"/>
        <pt x="85" y="691" on="1"/>
        <pt x="209" y="691" on="1"/>
        <pt x="209" y="577" on="1"/>
        <pt x="284" y="577" on="1"/>
        <pt x="412" y="577" on="0"/>
        <pt x="561" y="468" on="0"/>
        <pt x="561" y="355" on="1"/>
        <pt x="561" y="233" on="0"/>
        <pt x="407" y="121" on="0"/>
      </contour>
    </TTGlyph>
    <TTGlyph name="TseHelper.cy" xMin="85" yMin="0" xMax="577" yMax="691">
      <contour>
        <pt x="577" y="691" on="1"/>
        <pt x="577" y="0" on="1"/>
        <pt x="85" y="0" on="1"/>
        <pt x="85" y="691" on="1"/>
        <pt x="209" y="691" on="1"/>
        <pt x="209" y="99" on="1"/>
        <pt x="452" y="99" on="1"/>
        <pt x="452" y="691" on="1"/>
      </contour>
    </TTGlyph>
    <TTGlyph name="U" xMin="75" yMin="-14" xMax="582" yMax="691">
      <contour>
        <pt x="457" y="691" on="1"/>
        <pt x="582" y="691" on="1"/>
        <pt x="582" y="225" on="1"/>
        <pt x="582" y="122" on="0"/>
        <pt x="452" y="-14" on="0"/>
        <pt x="328" y="-14" on="1"/>
        <pt x="203" y="-14" on="0"/>
        <pt x="75" y="120" on="0"/>
        <pt x="75" y="225" on="1"/>
        <pt x="75" y="691" on="1"/>
        <pt x="199" y="691" on="1"/>
        <pt x="199" y="232" on="1"/>
        <pt x="199" y="158" on="0"/>
        <pt x="262" y="84" on="0"/>
        <pt x="328" y="84" on="1"/>
        <pt x="394" y="84" on="0"/>
        <pt x="457" y="158" on="0"/>
        <pt x="457" y="232" on="1"/>
      </contour>
    </TTGlyph>
    <TTGlyph name="Uacute" xMin="75" yMin="-14" xMax="582" yMax="930">
      <component glyphName="U" x="0" y="0" flags="0x204"/>
      <component glyphName="acute.case" x="170" y="0" flags="0x4"/>
    </TTGlyph>
    <TTGlyph name="Ubreve" xMin="75" yMin="-14" xMax="582" yMax="909">
      <component glyphName="U" x="0" y="0" flags="0x204"/>
      <component glyphName="breve.case" x="138" y="0" flags="0x4"/>
    </TTGlyph>
    <TTGlyph name="Ucircumflex" xMin="75" yMin="-14" xMax="582" yMax="929">
      <component glyphName="circumflex.case" x="123" y="0" flags="0x4"/>
      <component glyphName="U" x="0" y="0" flags="0x204"/>
    </TTGlyph>
    <TTGlyph name="Udieresis" xMin="75" yMin="-14" xMax="582" yMax="907">
      <component glyphName="U" x="0" y="0" flags="0x204"/>
      <component glyphName="dieresis.case" x="121" y="0" flags="0x4"/>
    </TTGlyph>
    <TTGlyph name="Ugrave" xMin="75" yMin="-14" xMax="582" yMax="930">
      <component glyphName="grave.case" x="161" y="0" flags="0x4"/>
      <component glyphName="U" x="0" y="0" flags="0x204"/>
    </TTGlyph>
    <TTGlyph name="Uhungarumlaut" xMin="75" yMin="-14" xMax="582" yMax="970">
      <component glyphName="hungarumlaut.case" x="177" y="0" flags="0x4"/>
      <component glyphName="U" x="0" y="0" flags="0x204"/>
    </TTGlyph>
    <TTGlyph name="Umacron" xMin="75" yMin="-14" xMax="582" yMax="870">
      <component glyphName="U" x="0" y="0" flags="0x204"/>
      <component glyphName="macron.case" x="155" y="-4" flags="0x4"/>
    </TTGlyph>
    <TTGlyph name="Uogonek" xMin="75" yMin="-238" xMax="582" yMax="691">
      <component glyphName="U" x="0" y="0" flags="0x204"/>
      <component glyphName="ogonek.thin" x="214" y="0" flags="0x4"/>
    </TTGlyph>
    <TTGlyph name="Upsilon" xMin="0" yMin="0" xMax="569" yMax="691">
      <component glyphName="Y" x="0" y="0" flags="0x204"/>
    </TTGlyph>
    <TTGlyph name="Upsilondieresis" xMin="0" yMin="0" xMax="569" yMax="907">
      <component glyphName="Y" x="0" y="0" flags="0x204"/>
      <component glyphName="dieresis.case" x="78" y="0" flags="0x4"/>
    </TTGlyph>
    <TTGlyph name="Upsilontonos" xMin="-174" yMin="0" xMax="569" yMax="714">
      <component glyphName="Y" x="0" y="0" flags="0x204"/>
      <component glyphName="tonos.case" x="-209" y="0" flags="0x4"/>
    </TTGlyph>
    <TTGlyph name="Uring" xMin="75" yMin="-14" xMax="582" yMax="975">
      <component glyphName="ring.case" x="174" y="0" flags="0x4"/>
      <component glyphName="U" x="0" y="0" flags="0x204"/>
    </TTGlyph>
    <TTGlyph name="Utilde" xMin="75" yMin="-14" xMax="582" yMax="908">
      <component glyphName="U" x="0" y="0" flags="0x204"/>
      <component glyphName="tilde.case" x="123" y="0" flags="0x4"/>
    </TTGlyph>
    <TTGlyph name="V" xMin="-2" yMin="0" xMax="564" yMax="691">
      <contour>
        <pt x="438" y="691" on="1"/>
        <pt x="564" y="691" on="1"/>
        <pt x="356" y="0" on="1"/>
        <pt x="211" y="0" on="1"/>
        <pt x="-2" y="691" on="1"/>
        <pt x="130" y="691" on="1"/>
        <pt x="285" y="114" on="1"/>
      </contour>
    </TTGlyph>
    <TTGlyph name="W" xMin="18" yMin="0" xMax="816" yMax="691">
      <contour>
        <pt x="700" y="691" on="1"/>
        <pt x="816" y="691" on="1"/>
        <pt x="687" y="0" on="1"/>
        <pt x="526" y="0" on="1"/>
        <pt x="416" y="557" on="1"/>
        <pt x="304" y="0" on="1"/>
        <pt x="147" y="0" on="1"/>
        <pt x="18" y="691" on="1"/>
        <pt x="141" y="691" on="1"/>
        <pt x="235" y="100" on="1"/>
        <pt x="352" y="691" on="1"/>
        <pt x="483" y="691" on="1"/>
        <pt x="600" y="100" on="1"/>
      </contour>
    </TTGlyph>
    <TTGlyph name="Wacute" xMin="18" yMin="0" xMax="816" yMax="930">
      <component glyphName="acute.case" x="260" y="0" flags="0x4"/>
      <component glyphName="W" x="0" y="0" flags="0x204"/>
    </TTGlyph>
    <TTGlyph name="Wcircumflex" xMin="18" yMin="0" xMax="816" yMax="929">
      <component glyphName="circumflex.case" x="212" y="0" flags="0x4"/>
      <component glyphName="W" x="0" y="0" flags="0x204"/>
    </TTGlyph>
    <TTGlyph name="Wdieresis" xMin="18" yMin="0" xMax="816" yMax="907">
      <component glyphName="W" x="0" y="0" flags="0x204"/>
      <component glyphName="dieresis.case" x="210" y="0" flags="0x4"/>
    </TTGlyph>
    <TTGlyph name="Wgrave" xMin="18" yMin="0" xMax="816" yMax="930">
      <component glyphName="grave.case" x="251" y="0" flags="0x4"/>
      <component glyphName="W" x="0" y="0" flags="0x204"/>
    </TTGlyph>
    <TTGlyph name="X" xMin="1" yMin="0" xMax="556" yMax="691">
      <contour>
        <pt x="276" y="288" on="1"/>
        <pt x="134" y="0" on="1"/>
        <pt x="1" y="0" on="1"/>
        <pt x="202" y="368" on="1"/>
        <pt x="18" y="691" on="1"/>
        <pt x="156" y="691" on="1"/>
        <pt x="278" y="447" on="1"/>
        <pt x="403" y="691" on="1"/>
        <pt x="536" y="691" on="1"/>
        <pt x="351" y="373" on="1"/>
        <pt x="556" y="0" on="1"/>
        <pt x="418" y="0" on="1"/>
      </contour>
    </TTGlyph>
    <TTGlyph name="Xi" xMin="38" yMin="0" xMax="478" yMax="691">
      <contour>
        <pt x="38" y="691" on="1"/>
        <pt x="474" y="691" on="1"/>
        <pt x="458" y="583" on="1"/>
        <pt x="38" y="583" on="1"/>
      </contour>
      <contour>
        <pt x="101" y="402" on="1"/>
        <pt x="410" y="402" on="1"/>
        <pt x="410" y="299" on="1"/>
        <pt x="101" y="299" on="1"/>
      </contour>
      <contour>
        <pt x="38" y="111" on="1"/>
        <pt x="478" y="111" on="1"/>
        <pt x="478" y="0" on="1"/>
        <pt x="38" y="0" on="1"/>
      </contour>
    </TTGlyph>
    <TTGlyph name="Y" xMin="0" yMin="0" xMax="569" yMax="691">
      <contour>
        <pt x="438" y="691" on="1"/>
        <pt x="569" y="691" on="1"/>
        <pt x="347" y="263" on="1"/>
        <pt x="347" y="0" on="1"/>
        <pt x="222" y="0" on="1"/>
        <pt x="222" y="262" on="1"/>
        <pt x="0" y="691" on="1"/>
        <pt x="136" y="691" on="1"/>
        <pt x="287" y="365" on="1"/>
      </contour>
    </TTGlyph>
    <TTGlyph name="Yacute" xMin="0" yMin="0" xMax="569" yMax="930">
      <component glyphName="Y" x="0" y="0" flags="0x204"/>
      <component glyphName="acute.case" x="128" y="0" flags="0x4"/>
    </TTGlyph>
    <TTGlyph name="Ycircumflex" xMin="0" yMin="0" xMax="569" yMax="929">
      <component glyphName="Y" x="0" y="0" flags="0x204"/>
      <component glyphName="circumflex.case" x="80" y="0" flags="0x4"/>
    </TTGlyph>
    <TTGlyph name="Ydieresis" xMin="0" yMin="0" xMax="569" yMax="907">
      <component glyphName="Y" x="0" y="0" flags="0x204"/>
      <component glyphName="dieresis.case" x="78" y="0" flags="0x4"/>
    </TTGlyph>
    <TTGlyph name="Ygrave" xMin="0" yMin="0" xMax="569" yMax="930">
      <component glyphName="Y" x="0" y="0" flags="0x204"/>
      <component glyphName="grave.case" x="119" y="0" flags="0x4"/>
    </TTGlyph>
    <TTGlyph name="Z" xMin="25" yMin="0" xMax="494" yMax="691">
      <contour>
        <pt x="59" y="691" on="1"/>
        <pt x="492" y="691" on="1"/>
        <pt x="492" y="594" on="1"/>
        <pt x="168" y="102" on="1"/>
        <pt x="494" y="102" on="1"/>
        <pt x="481" y="0" on="1"/>
        <pt x="25" y="0" on="1"/>
        <pt x="25" y="96" on="1"/>
        <pt x="353" y="591" on="1"/>
        <pt x="59" y="591" on="1"/>
      </contour>
    </TTGlyph>
    <TTGlyph name="Zacute" xMin="25" yMin="0" xMax="494" yMax="930">
      <component glyphName="Z" x="0" y="0" flags="0x204"/>
      <component glyphName="acute.case" x="116" y="0" flags="0x4"/>
    </TTGlyph>
    <TTGlyph name="Zacute.loclPLK" xMin="25" yMin="0" xMax="494" yMax="942">
      <component glyphName="Z" x="0" y="0" flags="0x204"/>
      <component glyphName="acute.case.loclPLK" x="116" y="0" flags="0x4"/>
    </TTGlyph>
    <TTGlyph name="Zcaron" xMin="25" yMin="0" xMax="494" yMax="924">
      <component glyphName="Z" x="0" y="0" flags="0x204"/>
      <component glyphName="caron.case" x="68" y="0" flags="0x4"/>
    </TTGlyph>
    <TTGlyph name="Zdotaccent" xMin="25" yMin="0" xMax="494" yMax="919">
      <component glyphName="dotaccent.case" x="167" y="0" flags="0x4"/>
      <component glyphName="Z" x="0" y="0" flags="0x204"/>
    </TTGlyph>
    <TTGlyph name="Zeta" xMin="25" yMin="0" xMax="494" yMax="691">
      <component glyphName="Z" x="0" y="0" flags="0x204"/>
    </TTGlyph>
    <TTGlyph name="a" xMin="37" yMin="-14" xMax="505" yMax="543">
      <contour>
        <pt x="239" y="73" on="1"/>
        <pt x="274" y="73" on="0"/>
        <pt x="327" y="109" on="0"/>
        <pt x="346" y="143" on="1"/>
        <pt x="346" y="252" on="1"/>
        <pt x="289" y="252" on="1"/>
        <pt x="225" y="252" on="0"/>
        <pt x="160" y="205" on="0"/>
        <pt x="160" y="156" on="1"/>
        <pt x="160" y="116" on="0"/>
        <pt x="200" y="73" on="0"/>
      </contour>
      <contour>
        <pt x="479" y="-13" on="1"/>
        <pt x="436" y="-9" on="0"/>
        <pt x="380" y="26" on="0"/>
        <pt x="365" y="64" on="1"/>
        <pt x="337" y="23" on="0"/>
        <pt x="254" y="-14" on="0"/>
        <pt x="207" y="-14" on="1"/>
        <pt x="129" y="-14" on="0"/>
        <pt x="37" y="76" on="0"/>
        <pt x="37" y="148" on="1"/>
        <pt x="37" y="233" on="0"/>
        <pt x="162" y="324" on="0"/>
        <pt x="276" y="324" on="1"/>
        <pt x="346" y="324" on="1"/>
        <pt x="346" y="356" on="1"/>
        <pt x="346" y="408" on="0"/>
        <pt x="296" y="451" on="0"/>
        <pt x="244" y="451" on="1"/>
        <pt x="216" y="451" on="0"/>
        <pt x="143" y="436" on="0"/>
        <pt x="103" y="423" on="1"/>
        <pt x="75" y="505" on="1"/>
        <pt x="124" y="524" on="0"/>
        <pt x="220" y="543" on="0"/>
        <pt x="265" y="543" on="1"/>
        <pt x="368" y="543" on="0"/>
        <pt x="464" y="449" on="0"/>
        <pt x="464" y="362" on="1"/>
        <pt x="464" y="136" on="1"/>
        <pt x="464" y="103" on="0"/>
        <pt x="486" y="75" on="0"/>
        <pt x="505" y="68" on="1"/>
      </contour>
    </TTGlyph>
    <TTGlyph name="a.sc" xMin="-2" yMin="0" xMax="513" yMax="566">
      <contour>
        <pt x="254" y="477" on="1"/>
        <pt x="181" y="216" on="1"/>
        <pt x="327" y="216" on="1"/>
      </contour>
      <contour>
        <pt x="387" y="0" on="1"/>
        <pt x="352" y="127" on="1"/>
        <pt x="156" y="127" on="1"/>
        <pt x="121" y="0" on="1"/>
        <pt x="-2" y="0" on="1"/>
        <pt x="183" y="566" on="1"/>
        <pt x="329" y="566" on="1"/>
        <pt x="513" y="0" on="1"/>
      </contour>
    </TTGlyph>
    <TTGlyph name="aacute" xMin="37" yMin="-14" xMax="505" yMax="816">
      <component glyphName="a" x="0" y="0" flags="0x204"/>
      <component glyphName="acute" x="97" y="0" flags="0x4"/>
    </TTGlyph>
    <TTGlyph name="aacute.sc" xMin="-2" yMin="0" xMax="513" yMax="846">
      <component glyphName="a.sc" x="0" y="0" flags="0x204"/>
      <component glyphName="acute.sc" x="95" y="0" flags="0x4"/>
    </TTGlyph>
    <TTGlyph name="abreve" xMin="37" yMin="-14" xMax="505" yMax="802">
      <component glyphName="a" x="0" y="0" flags="0x204"/>
      <component glyphName="breve" x="75" y="0" flags="0x4"/>
    </TTGlyph>
    <TTGlyph name="abreve.sc" xMin="-2" yMin="0" xMax="513" yMax="832">
      <component glyphName="breve.sc" x="65" y="0" flags="0x4"/>
      <component glyphName="a.sc" x="0" y="0" flags="0x204"/>
    </TTGlyph>
    <TTGlyph name="acircumflex" xMin="37" yMin="-14" xMax="505" yMax="805">
      <component glyphName="a" x="0" y="0" flags="0x204"/>
      <component glyphName="circumflex" x="59" y="0" flags="0x4"/>
    </TTGlyph>
    <TTGlyph name="acircumflex.sc" xMin="-2" yMin="0" xMax="513" yMax="835">
      <component glyphName="a.sc" x="0" y="0" flags="0x204"/>
      <component glyphName="circumflex.sc" x="50" y="0" flags="0x4"/>
    </TTGlyph>
    <TTGlyph name="acute" xMin="30" yMin="631" xMax="287" yMax="816">
      <contour>
        <pt x="30" y="694" on="1"/>
        <pt x="237" y="816" on="1"/>
        <pt x="287" y="721" on="1"/>
        <pt x="65" y="631" on="1"/>
      </contour>
    </TTGlyph>
    <TTGlyph name="acute.case" xMin="30" yMin="753" xMax="287" yMax="930">
      <contour>
        <pt x="30" y="816" on="1"/>
        <pt x="238" y="930" on="1"/>
        <pt x="287" y="836" on="1"/>
        <pt x="61" y="753" on="1"/>
      </contour>
    </TTGlyph>
    <TTGlyph name="acute.case.loclPLK" xMin="96" yMin="737" xMax="289" yMax="942">
      <contour>
        <pt x="96" y="770" on="1"/>
        <pt x="198" y="942" on="1"/>
        <pt x="289" y="887" on="1"/>
        <pt x="152" y="737" on="1"/>
      </contour>
    </TTGlyph>
    <TTGlyph name="acute.loclPLK" xMin="96" yMin="579" xMax="288" yMax="791">
      <contour>
        <pt x="96" y="612" on="1"/>
        <pt x="197" y="791" on="1"/>
        <pt x="288" y="736" on="1"/>
        <pt x="152" y="579" on="1"/>
      </contour>
    </TTGlyph>
    <TTGlyph name="acute.sc" xMin="30" yMin="661" xMax="287" yMax="846">
      <component glyphName="acute" x="0" y="30" flags="0x4"/>
    </TTGlyph>
    <TTGlyph name="acute.sc.loclPLK" xMin="96" yMin="622" xMax="288" yMax="834">
      <contour>
        <pt x="96" y="655" on="1"/>
        <pt x="197" y="834" on="1"/>
        <pt x="288" y="779" on="1"/>
        <pt x="152" y="622" on="1"/>
      </contour>
    </TTGlyph>
    <TTGlyph name="acutecomb" xMin="39" yMin="627" xMax="296" yMax="804">
      <contour>
        <pt x="39" y="690" on="1"/>
        <pt x="247" y="804" on="1"/>
        <pt x="296" y="710" on="1"/>
        <pt x="70" y="627" on="1"/>
      </contour>
    </TTGlyph>
    <TTGlyph name="acutecombcomb" xMin="39" yMin="627" xMax="296" yMax="804">
      <component glyphName="acutecomb" x="0" y="0" flags="0x204"/>
    </TTGlyph>
    <TTGlyph name="adieresis" xMin="37" yMin="-14" xMax="505" yMax="781">
      <component glyphName="a" x="0" y="0" flags="0x204"/>
      <component glyphName="dieresis" x="57" y="0" flags="0x4"/>
    </TTGlyph>
    <TTGlyph name="adieresis.sc" xMin="-2" yMin="0" xMax="513" yMax="811">
      <component glyphName="a.sc" x="0" y="0" flags="0x204"/>
      <component glyphName="dieresis.sc" x="48" y="0" flags="0x4"/>
    </TTGlyph>
    <TTGlyph name="ae" xMin="37" yMin="-14" xMax="810" yMax="543">
      <contour>
        <pt x="584" y="456" on="1"/>
        <pt x="538" y="456" on="0"/>
        <pt x="480" y="387" on="0"/>
        <pt x="474" y="306" on="1"/>
        <pt x="692" y="306" on="1"/>
        <pt x="692" y="312" on="1"/>
        <pt x="691" y="379" on="0"/>
        <pt x="639" y="456" on="0"/>
      </contour>
      <contour>
        <pt x="244" y="73" on="1"/>
        <pt x="281" y="73" on="0"/>
        <pt x="339" y="114" on="0"/>
        <pt x="364" y="154" on="1"/>
        <pt x="358" y="175" on="0"/>
        <pt x="351" y="222" on="0"/>
        <pt x="351" y="247" on="1"/>
        <pt x="351" y="251" on="1"/>
        <pt x="294" y="251" on="1"/>
        <pt x="231" y="251" on="0"/>
        <pt x="166" y="204" on="0"/>
        <pt x="166" y="155" on="1"/>
        <pt x="166" y="116" on="0"/>
        <pt x="206" y="73" on="0"/>
      </contour>
      <contour>
        <pt x="791" y="55" on="1"/>
        <pt x="752" y="24" on="0"/>
        <pt x="656" y="-14" on="0"/>
        <pt x="597" y="-14" on="1"/>
        <pt x="531" y="-14" on="0"/>
        <pt x="430" y="36" on="0"/>
        <pt x="399" y="80" on="1"/>
        <pt x="362" y="28" on="0"/>
        <pt x="269" y="-14" on="0"/>
        <pt x="210" y="-14" on="1"/>
        <pt x="130" y="-14" on="0"/>
        <pt x="37" y="76" on="0"/>
        <pt x="37" y="148" on="1"/>
        <pt x="37" y="233" on="0"/>
        <pt x="165" y="324" on="0"/>
        <pt x="280" y="324" on="1"/>
        <pt x="350" y="324" on="1"/>
        <pt x="350" y="356" on="1"/>
        <pt x="350" y="408" on="0"/>
        <pt x="300" y="450" on="0"/>
        <pt x="249" y="450" on="1"/>
        <pt x="221" y="450" on="0"/>
        <pt x="148" y="435" on="0"/>
        <pt x="108" y="422" on="1"/>
        <pt x="79" y="505" on="1"/>
        <pt x="128" y="524" on="0"/>
        <pt x="225" y="543" on="0"/>
        <pt x="269" y="543" on="1"/>
        <pt x="330" y="543" on="0"/>
        <pt x="407" y="502" on="0"/>
        <pt x="429" y="468" on="1"/>
        <pt x="456" y="503" on="0"/>
        <pt x="534" y="543" on="0"/>
        <pt x="586" y="543" on="1"/>
        <pt x="691" y="543" on="0"/>
        <pt x="810" y="401" on="0"/>
        <pt x="810" y="278" on="1"/>
        <pt x="810" y="265" on="0"/>
        <pt x="809" y="236" on="0"/>
        <pt x="808" y="226" on="1"/>
        <pt x="475" y="226" on="1"/>
        <pt x="482" y="143" on="0"/>
        <pt x="554" y="78" on="0"/>
        <pt x="608" y="78" on="1"/>
        <pt x="644" y="78" on="0"/>
        <pt x="706" y="100" on="0"/>
        <pt x="740" y="124" on="1"/>
      </contour>
    </TTGlyph>
    <TTGlyph name="ae.sc" xMin="-17" yMin="0" xMax="686" yMax="566">
      <contour>
        <pt x="289" y="476" on="1"/>
        <pt x="192" y="216" on="1"/>
        <pt x="343" y="216" on="1"/>
      </contour>
      <contour>
        <pt x="388" y="0" on="1"/>
        <pt x="362" y="127" on="1"/>
        <pt x="158" y="127" on="1"/>
        <pt x="111" y="0" on="1"/>
        <pt x="-17" y="0" on="1"/>
        <pt x="219" y="566" on="1"/>
        <pt x="653" y="566" on="1"/>
        <pt x="640" y="478" on="1"/>
        <pt x="398" y="478" on="1"/>
        <pt x="431" y="330" on="1"/>
        <pt x="645" y="330" on="1"/>
        <pt x="645" y="244" on="1"/>
        <pt x="450" y="244" on="1"/>
        <pt x="485" y="88" on="1"/>
        <pt x="686" y="88" on="1"/>
        <pt x="686" y="0" on="1"/>
      </contour>
    </TTGlyph>
    <TTGlyph name="aeacute" xMin="37" yMin="-14" xMax="810" yMax="816">
      <component glyphName="acute" x="256" y="0" flags="0x4"/>
      <component glyphName="ae" x="0" y="0" flags="0x204"/>
    </TTGlyph>
    <TTGlyph name="aeacute.sc" xMin="-17" yMin="0" xMax="686" yMax="846">
      <component glyphName="ae.sc" x="0" y="0" flags="0x204"/>
      <component glyphName="acute.sc" x="247" y="0" flags="0x4"/>
    </TTGlyph>
    <TTGlyph name="agrave" xMin="37" yMin="-14" xMax="505" yMax="816">
      <component glyphName="a" x="0" y="0" flags="0x204"/>
      <component glyphName="grave" x="117" y="0" flags="0x4"/>
    </TTGlyph>
    <TTGlyph name="agrave.sc" xMin="-2" yMin="0" xMax="513" yMax="846">
      <component glyphName="grave.sc" x="100" y="0" flags="0x4"/>
      <component glyphName="a.sc" x="0" y="0" flags="0x204"/>
    </TTGlyph>
    <TTGlyph name="alpha" xMin="48" yMin="-15" xMax="560" yMax="543">
      <contour>
        <pt x="48" y="260" on="1"/>
        <pt x="48" y="383" on="0"/>
        <pt x="155" y="543" on="0"/>
        <pt x="254" y="543" on="1"/>
        <pt x="321" y="543" on="0"/>
        <pt x="401" y="471" on="0"/>
        <pt x="416" y="390" on="1"/>
        <pt x="439" y="529" on="1"/>
        <pt x="545" y="529" on="1"/>
        <pt x="484" y="254" on="1"/>
        <pt x="510" y="132" on="1"/>
        <pt x="514" y="110" on="0"/>
        <pt x="538" y="86" on="0"/>
        <pt x="560" y="79" on="1"/>
        <pt x="520" y="-15" on="1"/>
        <pt x="482" y="-9" on="0"/>
        <pt x="424" y="37" on="0"/>
        <pt x="417" y="80" on="1"/>
        <pt x="408" y="127" on="1"/>
        <pt x="386" y="65" on="0"/>
        <pt x="308" y="-14" on="0"/>
        <pt x="244" y="-14" on="1"/>
        <pt x="154" y="-14" on="0"/>
        <pt x="48" y="124" on="0"/>
      </contour>
      <contour>
        <pt x="386" y="269" on="1"/>
        <pt x="367" y="376" on="0"/>
        <pt x="311" y="452" on="0"/>
        <pt x="267" y="452" on="1"/>
        <pt x="223" y="452" on="0"/>
        <pt x="172" y="356" on="0"/>
        <pt x="172" y="260" on="1"/>
        <pt x="172" y="163" on="0"/>
        <pt x="221" y="77" on="0"/>
        <pt x="264" y="77" on="1"/>
        <pt x="298" y="77" on="0"/>
        <pt x="364" y="150" on="0"/>
      </contour>
    </TTGlyph>
    <TTGlyph name="alpha.sc" xMin="-2" yMin="0" xMax="513" yMax="566">
      <component glyphName="a.sc" x="0" y="0" flags="0x204"/>
    </TTGlyph>
    <TTGlyph name="alphatonos" xMin="48" yMin="-15" xMax="560" yMax="827">
      <component glyphName="tonos" x="205" y="0" flags="0x4"/>
      <component glyphName="alpha" x="0" y="0" flags="0x204"/>
    </TTGlyph>
    <TTGlyph name="alphatonos.sc" xMin="-2" yMin="0" xMax="513" yMax="566">
      <component glyphName="a.sc" x="0" y="0" flags="0x204"/>
    </TTGlyph>
    <TTGlyph name="amacron" xMin="37" yMin="-14" xMax="505" yMax="748">
      <component glyphName="a" x="0" y="0" flags="0x204"/>
      <component glyphName="macron" x="91" y="0" flags="0x4"/>
    </TTGlyph>
    <TTGlyph name="amacron.sc" xMin="-2" yMin="0" xMax="513" yMax="778">
      <component glyphName="a.sc" x="0" y="0" flags="0x204"/>
      <component glyphName="macron.sc" x="82" y="0" flags="0x4"/>
    </TTGlyph>
    <TTGlyph name="ampersand" xMin="72" yMin="-14" xMax="710" yMax="705">
      <contour>
        <pt x="113" y="545" on="1"/>
        <pt x="113" y="610" on="0"/>
        <pt x="210" y="705" on="0"/>
        <pt x="306" y="705" on="1"/>
        <pt x="396" y="705" on="0"/>
        <pt x="503" y="616" on="0"/>
        <pt x="503" y="550" on="1"/>
        <pt x="503" y="486" on="0"/>
        <pt x="422" y="399" on="0"/>
        <pt x="365" y="364" on="1"/>
        <pt x="524" y="215" on="1"/>
        <pt x="540" y="247" on="0"/>
        <pt x="569" y="327" on="0"/>
        <pt x="579" y="373" on="1"/>
        <pt x="684" y="342" on="1"/>
        <pt x="665" y="283" on="0"/>
        <pt x="619" y="187" on="0"/>
        <pt x="594" y="150" on="1"/>
        <pt x="710" y="44" on="1"/>
        <pt x="615" y="-14" on="1"/>
        <pt x="526" y="72" on="1"/>
        <pt x="482" y="29" on="0"/>
        <pt x="373" y="-14" on="0"/>
        <pt x="306" y="-14" on="1"/>
        <pt x="202" y="-14" on="0"/>
        <pt x="72" y="89" on="0"/>
        <pt x="72" y="176" on="1"/>
        <pt x="72" y="239" on="0"/>
        <pt x="144" y="332" on="0"/>
        <pt x="209" y="373" on="1"/>
        <pt x="162" y="419" on="0"/>
        <pt x="113" y="496" on="0"/>
      </contour>
      <contour>
        <pt x="387" y="545" on="1"/>
        <pt x="387" y="581" on="0"/>
        <pt x="345" y="622" on="0"/>
        <pt x="308" y="622" on="1"/>
        <pt x="271" y="622" on="0"/>
        <pt x="229" y="579" on="0"/>
        <pt x="229" y="546" on="1"/>
        <pt x="229" y="512" on="0"/>
        <pt x="265" y="460" on="0"/>
        <pt x="299" y="427" on="1"/>
        <pt x="340" y="453" on="0"/>
        <pt x="387" y="509" on="0"/>
      </contour>
      <contour>
        <pt x="462" y="133" on="1"/>
        <pt x="278" y="309" on="1"/>
        <pt x="237" y="281" on="0"/>
        <pt x="196" y="220" on="0"/>
        <pt x="196" y="181" on="1"/>
        <pt x="196" y="132" on="0"/>
        <pt x="267" y="76" on="0"/>
        <pt x="323" y="76" on="1"/>
        <pt x="365" y="76" on="0"/>
        <pt x="432" y="105" on="0"/>
      </contour>
    </TTGlyph>
    <TTGlyph name="aogonek" xMin="37" yMin="-251" xMax="505" yMax="543">
      <component glyphName="a" x="0" y="0" flags="0x204"/>
      <component glyphName="ogonek" x="267" y="-13" flags="0x4"/>
    </TTGlyph>
    <TTGlyph name="aogonek.sc" xMin="-2" yMin="-238" xMax="513" yMax="566">
      <component glyphName="ogonek.sc" x="253" y="0" flags="0x4"/>
      <component glyphName="a.sc" x="0" y="0" flags="0x204"/>
    </TTGlyph>
    <TTGlyph name="approxequal" xMin="55" yMin="147" xMax="500" yMax="498">
      <component glyphName="approxequal.lf" x="28" y="0" flags="0x4"/>
    </TTGlyph>
    <TTGlyph name="approxequal.lf" xMin="27" yMin="147" xMax="472" yMax="498">
      <component glyphName="asciitilde.lf" x="0" y="-95" flags="0x4"/>
      <component glyphName="asciitilde.lf" x="0" y="103" flags="0x4"/>
    </TTGlyph>
    <TTGlyph name="approxequal.osf" xMin="27" yMin="147" xMax="472" yMax="498">
      <component glyphName="approxequal.lf" x="0" y="0" flags="0x204"/>
    </TTGlyph>
    <TTGlyph name="approxequal.tosf" xMin="55" yMin="147" xMax="500" yMax="498">
      <component glyphName="approxequal.lf" x="28" y="0" flags="0x4"/>
    </TTGlyph>
    <TTGlyph name="aring" xMin="37" yMin="-14" xMax="505" yMax="849">
      <component glyphName="a" x="0" y="0" flags="0x204"/>
      <component glyphName="ring" x="111" y="0" flags="0x4"/>
    </TTGlyph>
    <TTGlyph name="aring.sc" xMin="-2" yMin="0" xMax="513" yMax="879">
      <component glyphName="ring.sc" x="101" y="0" flags="0x4"/>
      <component glyphName="a.sc" x="0" y="0" flags="0x204"/>
    </TTGlyph>
    <TTGlyph name="arrowdown" xMin="126" yMin="-42" xMax="774" yMax="643">
      <contour>
        <pt x="393" y="643" on="1"/>
        <pt x="507" y="643" on="1"/>
        <pt x="507" y="120" on="1"/>
        <pt x="520" y="147" on="0"/>
        <pt x="552" y="184" on="0"/>
        <pt x="574" y="204" on="1"/>
        <pt x="705" y="325" on="1"/>
        <pt x="774" y="250" on="1"/>
        <pt x="450" y="-42" on="1"/>
        <pt x="126" y="250" on="1"/>
        <pt x="195" y="325" on="1"/>
        <pt x="326" y="204" on="1"/>
        <pt x="348" y="184" on="0"/>
        <pt x="380" y="147" on="0"/>
        <pt x="393" y="120" on="1"/>
      </contour>
    </TTGlyph>
    <TTGlyph name="arrowdownwhite" xMin="60" yMin="-94" xMax="660" yMax="750">
      <contour>
        <pt x="279" y="750" on="1"/>
        <pt x="441" y="750" on="1"/>
        <pt x="463" y="750" on="0"/>
        <pt x="491" y="722" on="0"/>
        <pt x="491" y="700" on="1"/>
        <pt x="491" y="204" on="1"/>
        <pt x="660" y="204" on="1"/>
        <pt x="360" y="-94" on="1"/>
        <pt x="60" y="204" on="1"/>
        <pt x="229" y="204" on="1"/>
        <pt x="229" y="700" on="1"/>
        <pt x="229" y="722" on="0"/>
        <pt x="257" y="750" on="0"/>
      </contour>
      <contour>
        <pt x="444" y="706" on="1"/>
        <pt x="276" y="706" on="1"/>
        <pt x="276" y="159" on="1"/>
        <pt x="169" y="159" on="1"/>
        <pt x="360" y="-30" on="1"/>
        <pt x="551" y="159" on="1"/>
        <pt x="444" y="159" on="1"/>
      </contour>
    </TTGlyph>
    <TTGlyph name="arrowleft" xMin="97" yMin="10" xMax="790" yMax="648">
      <contour>
        <pt x="97" y="329" on="1"/>
        <pt x="384" y="648" on="1"/>
        <pt x="466" y="578" on="1"/>
        <pt x="349" y="450" on="1"/>
        <pt x="325" y="423" on="0"/>
        <pt x="292" y="394" on="0"/>
        <pt x="267" y="379" on="1"/>
        <pt x="790" y="379" on="1"/>
        <pt x="790" y="279" on="1"/>
        <pt x="267" y="279" on="1"/>
        <pt x="290" y="265" on="0"/>
        <pt x="329" y="230" on="0"/>
        <pt x="349" y="208" on="1"/>
        <pt x="466" y="80" on="1"/>
        <pt x="384" y="10" on="1"/>
      </contour>
    </TTGlyph>
    <TTGlyph name="arrowleftwhite" xMin="40" yMin="13" xMax="920" yMax="613">
      <contour>
        <pt x="920" y="387" on="1"/>
        <pt x="920" y="239" on="1"/>
        <pt x="920" y="217" on="0"/>
        <pt x="892" y="189" on="0"/>
        <pt x="870" y="189" on="1"/>
        <pt x="338" y="189" on="1"/>
        <pt x="338" y="13" on="1"/>
        <pt x="40" y="313" on="1"/>
        <pt x="338" y="613" on="1"/>
        <pt x="338" y="437" on="1"/>
        <pt x="870" y="437" on="1"/>
        <pt x="892" y="437" on="0"/>
        <pt x="920" y="409" on="0"/>
      </contour>
      <contour>
        <pt x="876" y="233" on="1"/>
        <pt x="876" y="393" on="1"/>
        <pt x="293" y="393" on="1"/>
        <pt x="293" y="504" on="1"/>
        <pt x="104" y="313" on="1"/>
        <pt x="293" y="122" on="1"/>
        <pt x="293" y="233" on="1"/>
      </contour>
    </TTGlyph>
    <TTGlyph name="arrowright" xMin="110" yMin="10" xMax="803" yMax="648">
      <contour>
        <pt x="516" y="648" on="1"/>
        <pt x="803" y="329" on="1"/>
        <pt x="516" y="10" on="1"/>
        <pt x="434" y="80" on="1"/>
        <pt x="551" y="208" on="1"/>
        <pt x="571" y="230" on="0"/>
        <pt x="610" y="265" on="0"/>
        <pt x="633" y="279" on="1"/>
        <pt x="110" y="279" on="1"/>
        <pt x="110" y="379" on="1"/>
        <pt x="633" y="379" on="1"/>
        <pt x="608" y="394" on="0"/>
        <pt x="575" y="423" on="0"/>
        <pt x="551" y="450" on="1"/>
        <pt x="434" y="578" on="1"/>
      </contour>
    </TTGlyph>
    <TTGlyph name="arrowrightwhite" xMin="40" yMin="13" xMax="920" yMax="613">
      <contour>
        <pt x="40" y="239" on="1"/>
        <pt x="40" y="387" on="1"/>
        <pt x="40" y="409" on="0"/>
        <pt x="68" y="437" on="0"/>
        <pt x="90" y="437" on="1"/>
        <pt x="622" y="437" on="1"/>
        <pt x="622" y="613" on="1"/>
        <pt x="920" y="313" on="1"/>
        <pt x="622" y="13" on="1"/>
        <pt x="622" y="189" on="1"/>
        <pt x="90" y="189" on="1"/>
        <pt x="68" y="189" on="0"/>
        <pt x="40" y="217" on="0"/>
      </contour>
      <contour>
        <pt x="84" y="393" on="1"/>
        <pt x="84" y="233" on="1"/>
        <pt x="667" y="233" on="1"/>
        <pt x="667" y="122" on="1"/>
        <pt x="856" y="313" on="1"/>
        <pt x="667" y="504" on="1"/>
        <pt x="667" y="393" on="1"/>
      </contour>
    </TTGlyph>
    <TTGlyph name="arrowup" xMin="126" yMin="0" xMax="774" yMax="685">
      <contour>
        <pt x="507" y="0" on="1"/>
        <pt x="393" y="0" on="1"/>
        <pt x="393" y="523" on="1"/>
        <pt x="380" y="496" on="0"/>
        <pt x="348" y="459" on="0"/>
        <pt x="326" y="439" on="1"/>
        <pt x="195" y="318" on="1"/>
        <pt x="126" y="393" on="1"/>
        <pt x="450" y="685" on="1"/>
        <pt x="774" y="393" on="1"/>
        <pt x="705" y="318" on="1"/>
        <pt x="574" y="439" on="1"/>
        <pt x="552" y="459" on="0"/>
        <pt x="520" y="496" on="0"/>
        <pt x="507" y="523" on="1"/>
      </contour>
    </TTGlyph>
    <TTGlyph name="arrowupdn" xMin="126" yMin="-203" xMax="774" yMax="877">
      <contour>
        <pt x="126" y="585" on="1"/>
        <pt x="450" y="877" on="1"/>
        <pt x="774" y="585" on="1"/>
        <pt x="705" y="511" on="1"/>
        <pt x="574" y="632" on="1"/>
        <pt x="552" y="652" on="0"/>
        <pt x="520" y="689" on="0"/>
        <pt x="507" y="715" on="1"/>
        <pt x="507" y="-41" on="1"/>
        <pt x="520" y="-15" on="0"/>
        <pt x="552" y="22" on="0"/>
        <pt x="574" y="42" on="1"/>
        <pt x="705" y="163" on="1"/>
        <pt x="774" y="89" on="1"/>
        <pt x="450" y="-203" on="1"/>
        <pt x="126" y="89" on="1"/>
        <pt x="195" y="163" on="1"/>
        <pt x="326" y="42" on="1"/>
        <pt x="348" y="22" on="0"/>
        <pt x="380" y="-15" on="0"/>
        <pt x="393" y="-41" on="1"/>
        <pt x="393" y="715" on="1"/>
        <pt x="380" y="689" on="0"/>
        <pt x="348" y="652" on="0"/>
        <pt x="326" y="632" on="1"/>
        <pt x="195" y="511" on="1"/>
      </contour>
    </TTGlyph>
    <TTGlyph name="arrowupwhite" xMin="60" yMin="-12" xMax="660" yMax="832">
      <contour>
        <pt x="441" y="-12" on="1"/>
        <pt x="279" y="-12" on="1"/>
        <pt x="257" y="-12" on="0"/>
        <pt x="229" y="16" on="0"/>
        <pt x="229" y="38" on="1"/>
        <pt x="229" y="534" on="1"/>
        <pt x="60" y="534" on="1"/>
        <pt x="360" y="832" on="1"/>
        <pt x="660" y="534" on="1"/>
        <pt x="491" y="534" on="1"/>
        <pt x="491" y="38" on="1"/>
        <pt x="491" y="16" on="0"/>
        <pt x="463" y="-12" on="0"/>
      </contour>
      <contour>
        <pt x="276" y="32" on="1"/>
        <pt x="444" y="32" on="1"/>
        <pt x="444" y="579" on="1"/>
        <pt x="551" y="579" on="1"/>
        <pt x="360" y="768" on="1"/>
        <pt x="169" y="579" on="1"/>
        <pt x="276" y="579" on="1"/>
      </contour>
    </TTGlyph>
    <TTGlyph name="asciicircum" xMin="31" yMin="527" xMax="517" yMax="842">
      <contour>
        <pt x="220" y="842" on="1"/>
        <pt x="328" y="842" on="1"/>
        <pt x="517" y="527" on="1"/>
        <pt x="395" y="527" on="1"/>
        <pt x="273" y="745" on="1"/>
        <pt x="153" y="527" on="1"/>
        <pt x="31" y="527" on="1"/>
      </contour>
    </TTGlyph>
    <TTGlyph name="asciitilde" xMin="55" yMin="242" xMax="500" yMax="395">
      <component glyphName="asciitilde.lf" x="28" y="0" flags="0x4"/>
    </TTGlyph>
    <TTGlyph name="asciitilde.lf" xMin="27" yMin="242" xMax="472" yMax="395">
      <contour>
        <pt x="27" y="285" on="1"/>
        <pt x="46" y="322" on="0"/>
        <pt x="115" y="395" on="0"/>
        <pt x="174" y="395" on="1"/>
        <pt x="205" y="395" on="0"/>
        <pt x="250" y="376" on="0"/>
        <pt x="286" y="353" on="0"/>
        <pt x="317" y="334" on="0"/>
        <pt x="333" y="334" on="1"/>
        <pt x="359" y="334" on="0"/>
        <pt x="388" y="364" on="0"/>
        <pt x="400" y="386" on="1"/>
        <pt x="472" y="348" on="1"/>
        <pt x="453" y="311" on="0"/>
        <pt x="385" y="242" on="0"/>
        <pt x="327" y="242" on="1"/>
        <pt x="296" y="242" on="0"/>
        <pt x="250" y="261" on="0"/>
        <pt x="214" y="285" on="0"/>
        <pt x="184" y="304" on="0"/>
        <pt x="168" y="304" on="1"/>
        <pt x="141" y="304" on="0"/>
        <pt x="111" y="270" on="0"/>
        <pt x="99" y="248" on="1"/>
      </contour>
    </TTGlyph>
    <TTGlyph name="asciitilde.osf" xMin="27" yMin="242" xMax="472" yMax="395">
      <component glyphName="asciitilde.lf" x="0" y="0" flags="0x204"/>
    </TTGlyph>
    <TTGlyph name="asciitilde.tosf" xMin="55" yMin="242" xMax="500" yMax="395">
      <component glyphName="asciitilde.lf" x="28" y="0" flags="0x4"/>
    </TTGlyph>
    <TTGlyph name="asterisk" xMin="15" yMin="346" xMax="429" yMax="740">
      <contour>
        <pt x="295" y="347" on="1"/>
        <pt x="221" y="477" on="1"/>
        <pt x="149" y="346" on="1"/>
        <pt x="61" y="410" on="1"/>
        <pt x="162" y="521" on="1"/>
        <pt x="15" y="550" on="1"/>
        <pt x="48" y="651" on="1"/>
        <pt x="184" y="589" on="1"/>
        <pt x="167" y="740" on="1"/>
        <pt x="276" y="740" on="1"/>
        <pt x="258" y="587" on="1"/>
        <pt x="394" y="652" on="1"/>
        <pt x="429" y="550" on="1"/>
        <pt x="281" y="521" on="1"/>
        <pt x="383" y="411" on="1"/>
      </contour>
    </TTGlyph>
    <TTGlyph name="at" xMin="61" yMin="-217" xMax="959" yMax="705">
      <contour>
        <pt x="526" y="-217" on="1"/>
        <pt x="422" y="-217" on="0"/>
        <pt x="250" y="-152" on="0"/>
        <pt x="128" y="-34" on="0"/>
        <pt x="61" y="137" on="0"/>
        <pt x="61" y="241" on="1"/>
        <pt x="61" y="340" on="0"/>
        <pt x="130" y="511" on="0"/>
        <pt x="252" y="635" on="0"/>
        <pt x="424" y="705" on="0"/>
        <pt x="526" y="705" on="1"/>
        <pt x="631" y="705" on="0"/>
        <pt x="793" y="640" on="0"/>
        <pt x="902" y="531" on="0"/>
        <pt x="959" y="388" on="0"/>
        <pt x="959" y="311" on="1"/>
        <pt x="959" y="247" on="0"/>
        <pt x="932" y="136" on="0"/>
        <pt x="880" y="54" on="0"/>
        <pt x="803" y="7" on="0"/>
        <pt x="753" y="7" on="1"/>
        <pt x="693" y="7" on="0"/>
        <pt x="631" y="75" on="0"/>
        <pt x="623" y="110" on="1"/>
        <pt x="606" y="70" on="0"/>
        <pt x="536" y="10" on="0"/>
        <pt x="479" y="10" on="1"/>
        <pt x="393" y="10" on="0"/>
        <pt x="302" y="134" on="0"/>
        <pt x="302" y="232" on="1"/>
        <pt x="302" y="358" on="0"/>
        <pt x="426" y="496" on="0"/>
        <pt x="527" y="496" on="1"/>
        <pt x="567" y="496" on="0"/>
        <pt x="649" y="476" on="0"/>
        <pt x="690" y="454" on="1"/>
        <pt x="690" y="201" on="1"/>
        <pt x="690" y="138" on="0"/>
        <pt x="720" y="90" on="0"/>
        <pt x="749" y="90" on="1"/>
        <pt x="794" y="90" on="0"/>
        <pt x="846" y="190" on="0"/>
        <pt x="846" y="309" on="1"/>
        <pt x="846" y="447" on="0"/>
        <pt x="685" y="612" on="0"/>
        <pt x="526" y="612" on="1"/>
        <pt x="444" y="612" on="0"/>
        <pt x="312" y="557" on="0"/>
        <pt x="223" y="458" on="0"/>
        <pt x="175" y="322" on="0"/>
        <pt x="175" y="241" on="1"/>
        <pt x="175" y="78" on="0"/>
        <pt x="357" y="-124" on="0"/>
        <pt x="527" y="-124" on="1"/>
        <pt x="581" y="-124" on="0"/>
        <pt x="680" y="-103" on="0"/>
        <pt x="720" y="-89" on="1"/>
        <pt x="751" y="-176" on="1"/>
        <pt x="702" y="-194" on="0"/>
        <pt x="592" y="-217" on="0"/>
      </contour>
      <contour>
        <pt x="494" y="90" on="1"/>
        <pt x="535" y="90" on="0"/>
        <pt x="578" y="140" on="0"/>
        <pt x="586" y="161" on="1"/>
        <pt x="586" y="404" on="1"/>
        <pt x="573" y="410" on="0"/>
        <pt x="545" y="416" on="0"/>
        <pt x="526" y="416" on="1"/>
        <pt x="472" y="416" on="0"/>
        <pt x="414" y="328" on="0"/>
        <pt x="414" y="232" on="1"/>
        <pt x="414" y="160" on="0"/>
        <pt x="454" y="90" on="0"/>
      </contour>
    </TTGlyph>
    <TTGlyph name="atilde" xMin="37" yMin="-14" xMax="505" yMax="782">
      <component glyphName="a" x="0" y="0" flags="0x204"/>
      <component glyphName="tilde" x="59" y="0" flags="0x4"/>
    </TTGlyph>
    <TTGlyph name="atilde.sc" xMin="-2" yMin="0" xMax="513" yMax="812">
      <component glyphName="tilde.sc" x="50" y="0" flags="0x4"/>
      <component glyphName="a.sc" x="0" y="0" flags="0x204"/>
    </TTGlyph>
    <TTGlyph name="b" xMin="81" yMin="-14" xMax="544" yMax="754">
      <contour>
        <pt x="335" y="-14" on="1"/>
        <pt x="292" y="-14" on="0"/>
        <pt x="221" y="22" on="0"/>
        <pt x="195" y="54" on="1"/>
        <pt x="187" y="0" on="1"/>
        <pt x="81" y="0" on="1"/>
        <pt x="81" y="740" on="1"/>
        <pt x="201" y="754" on="1"/>
        <pt x="201" y="467" on="1"/>
        <pt x="226" y="502" on="0"/>
        <pt x="301" y="543" on="0"/>
        <pt x="346" y="543" on="1"/>
        <pt x="439" y="543" on="0"/>
        <pt x="544" y="396" on="0"/>
        <pt x="544" y="265" on="1"/>
        <pt x="544" y="142" on="0"/>
        <pt x="432" y="-14" on="0"/>
      </contour>
      <contour>
        <pt x="304" y="77" on="1"/>
        <pt x="354" y="77" on="0"/>
        <pt x="417" y="164" on="0"/>
        <pt x="417" y="265" on="1"/>
        <pt x="417" y="372" on="0"/>
        <pt x="358" y="452" on="0"/>
        <pt x="310" y="452" on="1"/>
        <pt x="273" y="452" on="0"/>
        <pt x="220" y="409" on="0"/>
        <pt x="201" y="378" on="1"/>
        <pt x="201" y="139" on="1"/>
        <pt x="219" y="111" on="0"/>
        <pt x="273" y="77" on="0"/>
      </contour>
    </TTGlyph>
    <TTGlyph name="b.sc" xMin="85" yMin="0" xMax="520" yMax="567">
      <contour>
        <pt x="85" y="567" on="1"/>
        <pt x="244" y="567" on="1"/>
        <pt x="360" y="567" on="0"/>
        <pt x="494" y="499" on="0"/>
        <pt x="494" y="421" on="1"/>
        <pt x="494" y="369" on="0"/>
        <pt x="426" y="310" on="0"/>
        <pt x="385" y="300" on="1"/>
        <pt x="434" y="291" on="0"/>
        <pt x="520" y="233" on="0"/>
        <pt x="520" y="164" on="1"/>
        <pt x="520" y="70" on="0"/>
        <pt x="377" y="0" on="0"/>
        <pt x="268" y="0" on="1"/>
        <pt x="85" y="0" on="1"/>
      </contour>
      <contour>
        <pt x="205" y="480" on="1"/>
        <pt x="205" y="337" on="1"/>
        <pt x="271" y="337" on="1"/>
        <pt x="317" y="337" on="0"/>
        <pt x="373" y="374" on="0"/>
        <pt x="373" y="411" on="1"/>
        <pt x="373" y="451" on="0"/>
        <pt x="313" y="480" on="0"/>
        <pt x="256" y="480" on="1"/>
      </contour>
      <contour>
        <pt x="205" y="88" on="1"/>
        <pt x="269" y="88" on="1"/>
        <pt x="324" y="88" on="0"/>
        <pt x="395" y="119" on="0"/>
        <pt x="395" y="170" on="1"/>
        <pt x="395" y="217" on="0"/>
        <pt x="329" y="255" on="0"/>
        <pt x="280" y="255" on="1"/>
        <pt x="205" y="255" on="1"/>
      </contour>
    </TTGlyph>
    <TTGlyph name="backslash" xMin="92" yMin="-107" xMax="428" yMax="811">
      <contour>
        <pt x="92" y="787" on="1"/>
        <pt x="195" y="811" on="1"/>
        <pt x="428" y="-83" on="1"/>
        <pt x="324" y="-107" on="1"/>
      </contour>
    </TTGlyph>
    <TTGlyph name="bar" xMin="141" yMin="-103" xMax="251" yMax="808">
      <contour>
        <pt x="141" y="808" on="1"/>
        <pt x="251" y="808" on="1"/>
        <pt x="251" y="-103" on="1"/>
        <pt x="141" y="-103" on="1"/>
      </contour>
    </TTGlyph>
    <TTGlyph name="beta" xMin="81" yMin="-217" xMax="567" yMax="754">
      <contour>
        <pt x="319" y="80" on="1"/>
        <pt x="370" y="80" on="0"/>
        <pt x="446" y="145" on="0"/>
        <pt x="446" y="211" on="1"/>
        <pt x="446" y="286" on="0"/>
        <pt x="363" y="355" on="0"/>
        <pt x="292" y="355" on="1"/>
        <pt x="245" y="355" on="1"/>
        <pt x="255" y="441" on="1"/>
        <pt x="294" y="441" on="1"/>
        <pt x="338" y="441" on="0"/>
        <pt x="398" y="499" on="0"/>
        <pt x="398" y="559" on="1"/>
        <pt x="398" y="613" on="0"/>
        <pt x="341" y="665" on="0"/>
        <pt x="297" y="665" on="1"/>
        <pt x="249" y="665" on="0"/>
        <pt x="199" y="605" on="0"/>
        <pt x="199" y="544" on="1"/>
        <pt x="199" y="116" on="1"/>
        <pt x="223" y="98" on="0"/>
        <pt x="280" y="80" on="0"/>
      </contour>
      <contour>
        <pt x="199" y="-201" on="1"/>
        <pt x="81" y="-217" on="1"/>
        <pt x="81" y="543" on="1"/>
        <pt x="81" y="642" on="0"/>
        <pt x="200" y="754" on="0"/>
        <pt x="298" y="754" on="1"/>
        <pt x="391" y="754" on="0"/>
        <pt x="512" y="654" on="0"/>
        <pt x="512" y="573" on="1"/>
        <pt x="512" y="499" on="0"/>
        <pt x="431" y="416" on="0"/>
        <pt x="368" y="405" on="1"/>
        <pt x="402" y="401" on="0"/>
        <pt x="473" y="380" on="0"/>
        <pt x="530" y="336" on="0"/>
        <pt x="567" y="261" on="0"/>
        <pt x="567" y="205" on="1"/>
        <pt x="567" y="106" on="0"/>
        <pt x="436" y="-14" on="0"/>
        <pt x="341" y="-14" on="1"/>
        <pt x="301" y="-14" on="0"/>
        <pt x="230" y="12" on="0"/>
        <pt x="199" y="34" on="1"/>
      </contour>
    </TTGlyph>
    <TTGlyph name="beta.sc" xMin="85" yMin="0" xMax="520" yMax="567">
      <component glyphName="b.sc" x="0" y="0" flags="0x204"/>
    </TTGlyph>
    <TTGlyph name="beta.ss10" xMin="49" yMin="-14" xMax="527" yMax="754">
      <contour>
        <pt x="49" y="344" on="1"/>
        <pt x="49" y="443" on="0"/>
        <pt x="94" y="597" on="0"/>
        <pt x="170" y="700" on="0"/>
        <pt x="271" y="754" on="0"/>
        <pt x="326" y="754" on="1"/>
        <pt x="416" y="754" on="0"/>
        <pt x="486" y="668" on="0"/>
        <pt x="486" y="622" on="1"/>
        <pt x="486" y="558" on="0"/>
        <pt x="395" y="453" on="0"/>
        <pt x="302" y="425" on="1"/>
        <pt x="321" y="430" on="0"/>
        <pt x="347" y="434" on="0"/>
        <pt x="359" y="434" on="1"/>
        <pt x="451" y="434" on="0"/>
        <pt x="527" y="311" on="0"/>
        <pt x="527" y="227" on="1"/>
        <pt x="527" y="130" on="0"/>
        <pt x="400" y="-14" on="0"/>
        <pt x="287" y="-14" on="1"/>
        <pt x="158" y="-14" on="0"/>
        <pt x="49" y="178" on="0"/>
      </contour>
      <contour>
        <pt x="319" y="666" on="1"/>
        <pt x="270" y="666" on="0"/>
        <pt x="186" y="560" on="0"/>
        <pt x="176" y="423" on="1"/>
        <pt x="209" y="436" on="1"/>
        <pt x="291" y="470" on="0"/>
        <pt x="372" y="552" on="0"/>
        <pt x="372" y="612" on="1"/>
        <pt x="372" y="640" on="0"/>
        <pt x="342" y="666" on="0"/>
      </contour>
      <contour>
        <pt x="286" y="77" on="1"/>
        <pt x="340" y="77" on="0"/>
        <pt x="399" y="156" on="0"/>
        <pt x="399" y="222" on="1"/>
        <pt x="399" y="291" on="0"/>
        <pt x="354" y="372" on="0"/>
        <pt x="291" y="372" on="1"/>
        <pt x="272" y="372" on="0"/>
        <pt x="228" y="360" on="0"/>
        <pt x="205" y="350" on="1"/>
        <pt x="173" y="335" on="1"/>
        <pt x="172" y="206" on="0"/>
        <pt x="222" y="77" on="0"/>
      </contour>
    </TTGlyph>
    <TTGlyph name="braceleft" xMin="18" yMin="-138" xMax="286" yMax="838">
      <contour>
        <pt x="86" y="682" on="1"/>
        <pt x="86" y="762" on="0"/>
        <pt x="171" y="838" on="0"/>
        <pt x="286" y="838" on="1"/>
        <pt x="286" y="750" on="1"/>
        <pt x="238" y="750" on="0"/>
        <pt x="199" y="721" on="0"/>
        <pt x="199" y="686" on="1"/>
        <pt x="199" y="469" on="1"/>
        <pt x="199" y="409" on="0"/>
        <pt x="153" y="361" on="0"/>
        <pt x="112" y="349" on="1"/>
        <pt x="152" y="338" on="0"/>
        <pt x="199" y="290" on="0"/>
        <pt x="199" y="231" on="1"/>
        <pt x="199" y="14" on="1"/>
        <pt x="199" y="-21" on="0"/>
        <pt x="238" y="-50" on="0"/>
        <pt x="286" y="-50" on="1"/>
        <pt x="286" y="-138" on="1"/>
        <pt x="171" y="-138" on="0"/>
        <pt x="86" y="-61" on="0"/>
        <pt x="86" y="18" on="1"/>
        <pt x="86" y="222" on="1"/>
        <pt x="86" y="264" on="0"/>
        <pt x="58" y="300" on="0"/>
        <pt x="18" y="300" on="1"/>
        <pt x="18" y="399" on="1"/>
        <pt x="58" y="399" on="0"/>
        <pt x="86" y="436" on="0"/>
        <pt x="86" y="478" on="1"/>
      </contour>
    </TTGlyph>
    <TTGlyph name="braceleft.case" xMin="18" yMin="-148" xMax="286" yMax="828">
      <component glyphName="braceleft" x="0" y="-10" flags="0x4"/>
    </TTGlyph>
    <TTGlyph name="braceright" xMin="37" yMin="-138" xMax="304" yMax="838">
      <contour>
        <pt x="37" y="750" on="1"/>
        <pt x="37" y="838" on="1"/>
        <pt x="152" y="838" on="0"/>
        <pt x="237" y="762" on="0"/>
        <pt x="237" y="682" on="1"/>
        <pt x="237" y="478" on="1"/>
        <pt x="237" y="436" on="0"/>
        <pt x="265" y="399" on="0"/>
        <pt x="304" y="399" on="1"/>
        <pt x="304" y="300" on="1"/>
        <pt x="265" y="300" on="0"/>
        <pt x="237" y="264" on="0"/>
        <pt x="237" y="222" on="1"/>
        <pt x="237" y="18" on="1"/>
        <pt x="237" y="-61" on="0"/>
        <pt x="152" y="-138" on="0"/>
        <pt x="37" y="-138" on="1"/>
        <pt x="37" y="-50" on="1"/>
        <pt x="85" y="-50" on="0"/>
        <pt x="124" y="-21" on="0"/>
        <pt x="124" y="14" on="1"/>
        <pt x="124" y="231" on="1"/>
        <pt x="124" y="290" on="0"/>
        <pt x="171" y="338" on="0"/>
        <pt x="211" y="349" on="1"/>
        <pt x="170" y="361" on="0"/>
        <pt x="124" y="409" on="0"/>
        <pt x="124" y="469" on="1"/>
        <pt x="124" y="686" on="1"/>
        <pt x="124" y="721" on="0"/>
        <pt x="85" y="750" on="0"/>
      </contour>
    </TTGlyph>
    <TTGlyph name="braceright.case" xMin="37" yMin="-148" xMax="304" yMax="828">
      <component glyphName="braceright" x="0" y="-10" flags="0x4"/>
    </TTGlyph>
    <TTGlyph name="bracketleft" xMin="52" yMin="-119" xMax="283" yMax="819">
      <contour>
        <pt x="52" y="819" on="1"/>
        <pt x="283" y="819" on="1"/>
        <pt x="283" y="724" on="1"/>
        <pt x="165" y="724" on="1"/>
        <pt x="165" y="-25" on="1"/>
        <pt x="283" y="-25" on="1"/>
        <pt x="283" y="-119" on="1"/>
        <pt x="52" y="-119" on="1"/>
      </contour>
    </TTGlyph>
    <TTGlyph name="bracketleft.case" xMin="52" yMin="-129" xMax="283" yMax="809">
      <component glyphName="bracketleft" x="0" y="-10" flags="0x4"/>
    </TTGlyph>
    <TTGlyph name="bracketright" xMin="39" yMin="-119" xMax="271" yMax="819">
      <contour>
        <pt x="39" y="819" on="1"/>
        <pt x="271" y="819" on="1"/>
        <pt x="271" y="-119" on="1"/>
        <pt x="39" y="-119" on="1"/>
        <pt x="39" y="-25" on="1"/>
        <pt x="157" y="-25" on="1"/>
        <pt x="157" y="725" on="1"/>
        <pt x="39" y="725" on="1"/>
      </contour>
    </TTGlyph>
    <TTGlyph name="bracketright.case" xMin="39" yMin="-129" xMax="271" yMax="809">
      <component glyphName="bracketright" x="0" y="-10" flags="0x4"/>
    </TTGlyph>
    <TTGlyph name="breve" xMin="30" yMin="639" xMax="351" yMax="802">
      <contour>
        <pt x="351" y="788" on="1"/>
        <pt x="345" y="722" on="0"/>
        <pt x="258" y="639" on="0"/>
        <pt x="189" y="639" on="1"/>
        <pt x="122" y="639" on="0"/>
        <pt x="36" y="722" on="0"/>
        <pt x="30" y="788" on="1"/>
        <pt x="102" y="802" on="1"/>
        <pt x="112" y="765" on="0"/>
        <pt x="155" y="725" on="0"/>
        <pt x="189" y="725" on="1"/>
        <pt x="224" y="725" on="0"/>
        <pt x="269" y="765" on="0"/>
        <pt x="279" y="802" on="1"/>
      </contour>
    </TTGlyph>
    <TTGlyph name="breve.cy" xMin="30" yMin="639" xMax="351" yMax="785">
      <contour>
        <pt x="351" y="771" on="1"/>
        <pt x="345" y="711" on="0"/>
        <pt x="258" y="639" on="0"/>
        <pt x="189" y="639" on="1"/>
        <pt x="122" y="639" on="0"/>
        <pt x="36" y="711" on="0"/>
        <pt x="30" y="771" on="1"/>
        <pt x="102" y="785" on="1"/>
        <pt x="112" y="753" on="0"/>
        <pt x="155" y="725" on="0"/>
        <pt x="189" y="725" on="1"/>
        <pt x="224" y="725" on="0"/>
        <pt x="269" y="753" on="0"/>
        <pt x="279" y="785" on="1"/>
      </contour>
    </TTGlyph>
    <TTGlyph name="breve.cy.case" xMin="30" yMin="765" xMax="351" yMax="911">
      <component glyphName="breve.cy" x="0" y="126" flags="0x4"/>
    </TTGlyph>
    <TTGlyph name="breve.cy.sc" xMin="30" yMin="669" xMax="351" yMax="815">
      <component glyphName="breve.cy" x="0" y="30" flags="0x4"/>
    </TTGlyph>
    <TTGlyph name="breve.case" xMin="30" yMin="755" xMax="351" yMax="909">
      <contour>
        <pt x="351" y="894" on="1"/>
        <pt x="345" y="836" on="0"/>
        <pt x="258" y="755" on="0"/>
        <pt x="189" y="755" on="1"/>
        <pt x="122" y="755" on="0"/>
        <pt x="36" y="836" on="0"/>
        <pt x="30" y="894" on="1"/>
        <pt x="102" y="909" on="1"/>
        <pt x="112" y="879" on="0"/>
        <pt x="155" y="842" on="0"/>
        <pt x="189" y="842" on="1"/>
        <pt x="224" y="842" on="0"/>
        <pt x="269" y="879" on="0"/>
        <pt x="279" y="909" on="1"/>
      </contour>
    </TTGlyph>
    <TTGlyph name="breve.sc" xMin="30" yMin="669" xMax="351" yMax="832">
      <component glyphName="breve" x="0" y="30" flags="0x4"/>
    </TTGlyph>
    <TTGlyph name="brevecombcomb" xMin="39" yMin="629" xMax="360" yMax="783">
      <component glyphName="uni0306" x="0" y="0" flags="0x204"/>
    </TTGlyph>
    <TTGlyph name="brokenbar" xMin="141" yMin="-103" xMax="251" yMax="808">
      <contour>
        <pt x="141" y="808" on="1"/>
        <pt x="251" y="808" on="1"/>
        <pt x="251" y="443" on="1"/>
        <pt x="141" y="443" on="1"/>
      </contour>
      <contour>
        <pt x="141" y="262" on="1"/>
        <pt x="251" y="262" on="1"/>
        <pt x="251" y="-103" on="1"/>
        <pt x="141" y="-103" on="1"/>
      </contour>
    </TTGlyph>
    <TTGlyph name="bullet" xMin="44" yMin="218" xMax="290" yMax="465">
      <contour>
        <pt x="44" y="342" on="1"/>
        <pt x="44" y="394" on="0"/>
        <pt x="114" y="465" on="0"/>
        <pt x="167" y="465" on="1"/>
        <pt x="219" y="465" on="0"/>
        <pt x="290" y="393" on="0"/>
        <pt x="290" y="341" on="1"/>
        <pt x="290" y="289" on="0"/>
        <pt x="219" y="218" on="0"/>
        <pt x="167" y="218" on="1"/>
        <pt x="114" y="218" on="0"/>
        <pt x="44" y="290" on="0"/>
      </contour>
    </TTGlyph>
    <TTGlyph name="bulletoperator" xMin="41" yMin="231" xMax="198" yMax="388">
      <component glyphName="periodcentered" x="0" y="0" flags="0x204"/>
    </TTGlyph>
    <TTGlyph name="c" xMin="46" yMin="-14" xMax="459" yMax="543">
      <contour>
        <pt x="46" y="260" on="1"/>
        <pt x="46" y="385" on="0"/>
        <pt x="177" y="543" on="0"/>
        <pt x="289" y="543" on="1"/>
        <pt x="339" y="543" on="0"/>
        <pt x="422" y="513" on="0"/>
        <pt x="459" y="482" on="1"/>
        <pt x="404" y="408" on="1"/>
        <pt x="379" y="428" on="0"/>
        <pt x="328" y="448" on="0"/>
        <pt x="297" y="448" on="1"/>
        <pt x="240" y="448" on="0"/>
        <pt x="174" y="358" on="0"/>
        <pt x="174" y="262" on="1"/>
        <pt x="174" y="165" on="0"/>
        <pt x="241" y="84" on="0"/>
        <pt x="296" y="84" on="1"/>
        <pt x="327" y="84" on="0"/>
        <pt x="375" y="104" on="0"/>
        <pt x="403" y="125" on="1"/>
        <pt x="459" y="46" on="1"/>
        <pt x="423" y="17" on="0"/>
        <pt x="339" y="-14" on="0"/>
        <pt x="290" y="-14" on="1"/>
        <pt x="177" y="-14" on="0"/>
        <pt x="46" y="134" on="0"/>
      </contour>
    </TTGlyph>
    <TTGlyph name="c.sc" xMin="46" yMin="-13" xMax="493" yMax="577">
      <contour>
        <pt x="46" y="285" on="1"/>
        <pt x="46" y="425" on="0"/>
        <pt x="197" y="577" on="0"/>
        <pt x="307" y="577" on="1"/>
        <pt x="366" y="577" on="0"/>
        <pt x="449" y="545" on="0"/>
        <pt x="485" y="516" on="1"/>
        <pt x="425" y="446" on="1"/>
        <pt x="400" y="465" on="0"/>
        <pt x="346" y="487" on="0"/>
        <pt x="315" y="487" on="1"/>
        <pt x="254" y="487" on="0"/>
        <pt x="171" y="392" on="0"/>
        <pt x="171" y="285" on="1"/>
        <pt x="171" y="178" on="0"/>
        <pt x="253" y="81" on="0"/>
        <pt x="316" y="81" on="1"/>
        <pt x="354" y="81" on="0"/>
        <pt x="410" y="110" on="0"/>
        <pt x="436" y="129" on="1"/>
        <pt x="493" y="58" on="1"/>
        <pt x="465" y="30" on="0"/>
        <pt x="372" y="-13" on="0"/>
        <pt x="310" y="-13" on="1"/>
        <pt x="194" y="-13" on="0"/>
        <pt x="46" y="140" on="0"/>
      </contour>
    </TTGlyph>
    <TTGlyph name="cacute" xMin="46" yMin="-14" xMax="459" yMax="816">
      <component glyphName="acute" x="121" y="0" flags="0x4"/>
      <component glyphName="c" x="0" y="0" flags="0x204"/>
    </TTGlyph>
    <TTGlyph name="cacute.loclPLK" xMin="46" yMin="-14" xMax="459" yMax="791">
      <component glyphName="c" x="0" y="0" flags="0x204"/>
      <component glyphName="acute.loclPLK" x="132" y="0" flags="0x4"/>
    </TTGlyph>
    <TTGlyph name="cacute.sc" xMin="46" yMin="-13" xMax="493" yMax="846">
      <component glyphName="acute.sc" x="152" y="0" flags="0x4"/>
      <component glyphName="c.sc" x="0" y="0" flags="0x204"/>
    </TTGlyph>
    <TTGlyph name="cacute.sc.loclPLK" xMin="46" yMin="-13" xMax="493" yMax="834">
      <component glyphName="acute.sc.loclPLK" x="156" y="0" flags="0x4"/>
      <component glyphName="c.sc" x="0" y="0" flags="0x204"/>
    </TTGlyph>
    <TTGlyph name="capslock" xMin="60" yMin="-12" xMax="660" yMax="832">
      <contour>
        <pt x="491" y="255" on="1"/>
        <pt x="229" y="255" on="1"/>
        <pt x="229" y="534" on="1"/>
        <pt x="60" y="534" on="1"/>
        <pt x="360" y="832" on="1"/>
        <pt x="660" y="534" on="1"/>
        <pt x="491" y="534" on="1"/>
      </contour>
      <contour>
        <pt x="276" y="297" on="1"/>
        <pt x="444" y="297" on="1"/>
        <pt x="444" y="579" on="1"/>
        <pt x="551" y="579" on="1"/>
        <pt x="360" y="768" on="1"/>
        <pt x="169" y="579" on="1"/>
        <pt x="276" y="579" on="1"/>
      </contour>
      <contour>
        <pt x="229" y="155" on="1"/>
        <pt x="491" y="155" on="1"/>
        <pt x="491" y="38" on="1"/>
        <pt x="491" y="16" on="0"/>
        <pt x="463" y="-12" on="0"/>
        <pt x="441" y="-12" on="1"/>
        <pt x="279" y="-12" on="1"/>
        <pt x="257" y="-12" on="0"/>
        <pt x="229" y="16" on="0"/>
        <pt x="229" y="38" on="1"/>
      </contour>
      <contour>
        <pt x="444" y="113" on="1"/>
        <pt x="276" y="113" on="1"/>
        <pt x="276" y="32" on="1"/>
        <pt x="444" y="32" on="1"/>
      </contour>
    </TTGlyph>
    <TTGlyph name="caron" xMin="30" yMin="620" xMax="382" yMax="797">
      <contour>
        <pt x="206" y="710" on="1"/>
        <pt x="336" y="797" on="1"/>
        <pt x="382" y="743" on="1"/>
        <pt x="244" y="620" on="1"/>
        <pt x="168" y="620" on="1"/>
        <pt x="30" y="743" on="1"/>
        <pt x="77" y="797" on="1"/>
      </contour>
    </TTGlyph>
    <TTGlyph name="caron.alt" xMin="68" yMin="493" xMax="179" yMax="702">
      <contour>
        <pt x="68" y="501" on="1"/>
        <pt x="81" y="702" on="1"/>
        <pt x="179" y="691" on="1"/>
        <pt x="133" y="493" on="1"/>
      </contour>
    </TTGlyph>
    <TTGlyph name="caron.case" xMin="30" yMin="752" xMax="382" yMax="924">
      <contour>
        <pt x="206" y="841" on="1"/>
        <pt x="336" y="924" on="1"/>
        <pt x="382" y="870" on="1"/>
        <pt x="244" y="752" on="1"/>
        <pt x="168" y="752" on="1"/>
        <pt x="30" y="870" on="1"/>
        <pt x="77" y="924" on="1"/>
      </contour>
    </TTGlyph>
    <TTGlyph name="caron.sc" xMin="30" yMin="650" xMax="382" yMax="827">
      <component glyphName="caron" x="0" y="30" flags="0x4"/>
    </TTGlyph>
    <TTGlyph name="caroncombcomb" xMin="39" yMin="626" xMax="391" yMax="798">
      <component glyphName="uni030C" x="0" y="0" flags="0x204"/>
    </TTGlyph>
    <TTGlyph name="ccaron" xMin="46" yMin="-14" xMax="466" yMax="797">
      <component glyphName="caron" x="84" y="0" flags="0x4"/>
      <component glyphName="c" x="0" y="0" flags="0x204"/>
    </TTGlyph>
    <TTGlyph name="ccaron.sc" xMin="46" yMin="-13" xMax="493" yMax="827">
      <component glyphName="caron.sc" x="107" y="0" flags="0x4"/>
      <component glyphName="c.sc" x="0" y="0" flags="0x204"/>
    </TTGlyph>
    <TTGlyph name="ccedilla" xMin="46" yMin="-250" xMax="459" yMax="543">
      <component glyphName="c" x="0" y="0" flags="0x204"/>
      <component glyphName="cedilla" x="148" y="0" flags="0x4"/>
    </TTGlyph>
    <TTGlyph name="ccedilla.sc" xMin="46" yMin="-250" xMax="493" yMax="577">
      <component glyphName="cedilla.sc" x="166" y="0" flags="0x4"/>
      <component glyphName="c.sc" x="0" y="0" flags="0x204"/>
    </TTGlyph>
    <TTGlyph name="ccircumflex" xMin="46" yMin="-14" xMax="466" yMax="805">
      <component glyphName="circumflex" x="84" y="0" flags="0x4"/>
      <component glyphName="c" x="0" y="0" flags="0x204"/>
    </TTGlyph>
    <TTGlyph name="ccircumflex.sc" xMin="46" yMin="-13" xMax="493" yMax="835">
      <component glyphName="c.sc" x="0" y="0" flags="0x204"/>
      <component glyphName="circumflex.sc" x="107" y="0" flags="0x4"/>
    </TTGlyph>
    <TTGlyph name="cdotaccent" xMin="46" yMin="-14" xMax="459" yMax="793">
      <component glyphName="c" x="0" y="0" flags="0x204"/>
      <component glyphName="dotaccent" x="183" y="0" flags="0x4"/>
    </TTGlyph>
    <TTGlyph name="cdotaccent.sc" xMin="46" yMin="-13" xMax="493" yMax="823">
      <component glyphName="dotaccent.sc" x="206" y="0" flags="0x4"/>
      <component glyphName="c.sc" x="0" y="0" flags="0x204"/>
    </TTGlyph>
    <TTGlyph name="cedilla" xMin="30" yMin="-250" xMax="265" yMax="16">
      <contour>
        <pt x="96" y="16" on="1"/>
        <pt x="167" y="16" on="1"/>
        <pt x="167" y="-53" on="1"/>
        <pt x="218" y="-57" on="0"/>
        <pt x="265" y="-109" on="0"/>
        <pt x="265" y="-144" on="1"/>
        <pt x="265" y="-193" on="0"/>
        <pt x="188" y="-250" on="0"/>
        <pt x="130" y="-250" on="1"/>
        <pt x="99" y="-250" on="0"/>
        <pt x="46" y="-235" on="0"/>
        <pt x="30" y="-223" on="1"/>
        <pt x="60" y="-162" on="1"/>
        <pt x="74" y="-170" on="0"/>
        <pt x="104" y="-179" on="0"/>
        <pt x="123" y="-179" on="1"/>
        <pt x="144" y="-179" on="0"/>
        <pt x="172" y="-162" on="0"/>
        <pt x="172" y="-143" on="1"/>
        <pt x="172" y="-124" on="0"/>
        <pt x="130" y="-105" on="0"/>
        <pt x="81" y="-105" on="1"/>
      </contour>
    </TTGlyph>
    <TTGlyph name="cedilla.case" xMin="30" yMin="-250" xMax="265" yMax="16">
      <component glyphName="cedilla" x="0" y="0" flags="0x204"/>
    </TTGlyph>
    <TTGlyph name="cedilla.sc" xMin="30" yMin="-250" xMax="265" yMax="16">
      <component glyphName="cedilla" x="0" y="0" flags="0x204"/>
    </TTGlyph>
    <TTGlyph name="cedillaTcedilla" xMin="30" yMin="-250" xMax="265" yMax="16">
      <contour>
        <pt x="96" y="16" on="1"/>
        <pt x="165" y="16" on="1"/>
        <pt x="165" y="-53" on="1"/>
        <pt x="216" y="-57" on="0"/>
        <pt x="265" y="-109" on="0"/>
        <pt x="265" y="-144" on="1"/>
        <pt x="265" y="-193" on="0"/>
        <pt x="186" y="-250" on="0"/>
        <pt x="127" y="-250" on="1"/>
        <pt x="97" y="-250" on="0"/>
        <pt x="46" y="-235" on="0"/>
        <pt x="30" y="-223" on="1"/>
        <pt x="60" y="-162" on="1"/>
        <pt x="74" y="-170" on="0"/>
        <pt x="102" y="-179" on="0"/>
        <pt x="120" y="-179" on="1"/>
        <pt x="142" y="-179" on="0"/>
        <pt x="172" y="-162" on="0"/>
        <pt x="172" y="-143" on="1"/>
        <pt x="172" y="-124" on="0"/>
        <pt x="130" y="-105" on="0"/>
        <pt x="81" y="-105" on="1"/>
      </contour>
    </TTGlyph>
    <TTGlyph name="cent" xMin="72" yMin="-157" xMax="485" yMax="687">
      <component glyphName="cent.lf" x="26" y="0" flags="0x4"/>
    </TTGlyph>
    <TTGlyph name="cent.lf" xMin="46" yMin="-157" xMax="459" yMax="687">
      <contour>
        <pt x="459" y="46" on="1"/>
        <pt x="432" y="24" on="0"/>
        <pt x="370" y="-5" on="0"/>
        <pt x="336" y="-10" on="1"/>
        <pt x="336" y="-157" on="1"/>
        <pt x="242" y="-157" on="1"/>
        <pt x="242" y="-10" on="1"/>
        <pt x="151" y="5" on="0"/>
        <pt x="46" y="148" on="0"/>
        <pt x="46" y="260" on="1"/>
        <pt x="46" y="372" on="0"/>
        <pt x="151" y="523" on="0"/>
        <pt x="243" y="539" on="1"/>
        <pt x="243" y="687" on="1"/>
        <pt x="336" y="687" on="1"/>
        <pt x="336" y="539" on="1"/>
        <pt x="370" y="534" on="0"/>
        <pt x="431" y="506" on="0"/>
        <pt x="459" y="482" on="1"/>
        <pt x="404" y="408" on="1"/>
        <pt x="379" y="428" on="0"/>
        <pt x="328" y="448" on="0"/>
        <pt x="297" y="448" on="1"/>
        <pt x="240" y="448" on="0"/>
        <pt x="174" y="358" on="0"/>
        <pt x="174" y="262" on="1"/>
        <pt x="174" y="165" on="0"/>
        <pt x="241" y="84" on="0"/>
        <pt x="296" y="84" on="1"/>
        <pt x="327" y="84" on="0"/>
        <pt x="375" y="104" on="0"/>
        <pt x="403" y="125" on="1"/>
      </contour>
    </TTGlyph>
    <TTGlyph name="cent.osf" xMin="46" yMin="-157" xMax="459" yMax="687">
      <component glyphName="cent.lf" x="0" y="0" flags="0x204"/>
    </TTGlyph>
    <TTGlyph name="cent.tosf" xMin="70" yMin="-157" xMax="483" yMax="687">
      <component glyphName="cent" x="-2" y="0" flags="0x4"/>
    </TTGlyph>
    <TTGlyph name="chi" xMin="-12" yMin="-215" xMax="479" yMax="541">
      <contour>
        <pt x="359" y="-215" on="1"/>
        <pt x="237" y="89" on="1"/>
        <pt x="113" y="-214" on="1"/>
        <pt x="-8" y="-201" on="1"/>
        <pt x="176" y="185" on="1"/>
        <pt x="116" y="315" on="0"/>
        <pt x="37" y="451" on="0"/>
        <pt x="-12" y="502" on="1"/>
        <pt x="105" y="541" on="1"/>
        <pt x="142" y="495" on="0"/>
        <pt x="201" y="390" on="0"/>
        <pt x="241" y="280" on="1"/>
        <pt x="337" y="541" on="1"/>
        <pt x="461" y="527" on="1"/>
        <pt x="302" y="186" on="1"/>
        <pt x="479" y="-198" on="1"/>
      </contour>
    </TTGlyph>
    <TTGlyph name="chi.sc" xMin="1" yMin="0" xMax="492" yMax="566">
      <component glyphName="x.sc" x="0" y="0" flags="0x204"/>
    </TTGlyph>
    <TTGlyph name="circumflex" xMin="30" yMin="628" xMax="382" yMax="805">
      <contour>
        <pt x="206" y="715" on="1"/>
        <pt x="76" y="628" on="1"/>
        <pt x="30" y="682" on="1"/>
        <pt x="168" y="805" on="1"/>
        <pt x="244" y="805" on="1"/>
        <pt x="382" y="682" on="1"/>
        <pt x="335" y="628" on="1"/>
      </contour>
    </TTGlyph>
    <TTGlyph name="circumflex.case" xMin="30" yMin="757" xMax="382" yMax="929">
      <contour>
        <pt x="382" y="811" on="1"/>
        <pt x="336" y="757" on="1"/>
        <pt x="206" y="839" on="1"/>
        <pt x="77" y="757" on="1"/>
        <pt x="30" y="811" on="1"/>
        <pt x="168" y="929" on="1"/>
        <pt x="244" y="929" on="1"/>
      </contour>
    </TTGlyph>
    <TTGlyph name="circumflex.sc" xMin="30" yMin="658" xMax="382" yMax="835">
      <component glyphName="circumflex" x="0" y="30" flags="0x4"/>
    </TTGlyph>
    <TTGlyph name="circumflexcombcomb" xMin="39" yMin="631" xMax="391" yMax="803">
      <component glyphName="uni0302" x="0" y="0" flags="0x204"/>
    </TTGlyph>
    <TTGlyph name="clear" xMin="100" yMin="-12" xMax="1140" yMax="713">
      <contour>
        <pt x="1090" y="-12" on="1"/>
        <pt x="150" y="-12" on="1"/>
        <pt x="128" y="-12" on="0"/>
        <pt x="100" y="16" on="0"/>
        <pt x="100" y="38" on="1"/>
        <pt x="100" y="663" on="1"/>
        <pt x="100" y="685" on="0"/>
        <pt x="128" y="713" on="0"/>
        <pt x="150" y="713" on="1"/>
        <pt x="1090" y="713" on="1"/>
        <pt x="1112" y="713" on="0"/>
        <pt x="1140" y="685" on="0"/>
        <pt x="1140" y="663" on="1"/>
        <pt x="1140" y="38" on="1"/>
        <pt x="1140" y="16" on="0"/>
        <pt x="1112" y="-12" on="0"/>
      </contour>
      <contour>
        <pt x="553" y="355" on="1"/>
        <pt x="399" y="201" on="1"/>
        <pt x="466" y="134" on="1"/>
        <pt x="620" y="288" on="1"/>
        <pt x="774" y="134" on="1"/>
        <pt x="841" y="201" on="1"/>
        <pt x="687" y="355" on="1"/>
        <pt x="841" y="508" on="1"/>
        <pt x="774" y="577" on="1"/>
        <pt x="620" y="422" on="1"/>
        <pt x="466" y="577" on="1"/>
        <pt x="399" y="508" on="1"/>
      </contour>
    </TTGlyph>
    <TTGlyph name="colon" xMin="41" yMin="-14" xMax="198" yMax="501">
      <component glyphName="period" x="0" y="0" flags="0x204"/>
      <component glyphName="period" x="0" y="358" flags="0x4"/>
    </TTGlyph>
    <TTGlyph name="comma" xMin="33" yMin="-171" xMax="198" yMax="143">
      <contour>
        <pt x="41" y="65" on="1"/>
        <pt x="41" y="97" on="0"/>
        <pt x="86" y="143" on="0"/>
        <pt x="119" y="143" on="1"/>
        <pt x="153" y="143" on="0"/>
        <pt x="198" y="97" on="0"/>
        <pt x="198" y="65" on="1"/>
        <pt x="198" y="46" on="0"/>
        <pt x="187" y="7" on="0"/>
        <pt x="174" y="-21" on="1"/>
        <pt x="108" y="-171" on="1"/>
        <pt x="33" y="-171" on="1"/>
        <pt x="74" y="0" on="1"/>
        <pt x="59" y="10" on="0"/>
        <pt x="41" y="45" on="0"/>
      </contour>
    </TTGlyph>
    <TTGlyph name="copyright" xMin="81" yMin="112" xMax="729" yMax="756">
      <contour>
        <pt x="81" y="433" on="1"/>
        <pt x="81" y="500" on="0"/>
        <pt x="132" y="618" on="0"/>
        <pt x="220" y="705" on="0"/>
        <pt x="339" y="756" on="0"/>
        <pt x="406" y="756" on="1"/>
        <pt x="473" y="756" on="0"/>
        <pt x="591" y="705" on="0"/>
        <pt x="678" y="618" on="0"/>
        <pt x="729" y="500" on="0"/>
        <pt x="729" y="433" on="1"/>
        <pt x="729" y="367" on="0"/>
        <pt x="678" y="249" on="0"/>
        <pt x="591" y="162" on="0"/>
        <pt x="473" y="112" on="0"/>
        <pt x="406" y="112" on="1"/>
        <pt x="339" y="112" on="0"/>
        <pt x="220" y="162" on="0"/>
        <pt x="132" y="249" on="0"/>
        <pt x="81" y="367" on="0"/>
      </contour>
      <contour>
        <pt x="655" y="433" on="1"/>
        <pt x="655" y="540" on="0"/>
        <pt x="513" y="692" on="0"/>
        <pt x="406" y="692" on="1"/>
        <pt x="299" y="692" on="0"/>
        <pt x="156" y="540" on="0"/>
        <pt x="156" y="433" on="1"/>
        <pt x="156" y="326" on="0"/>
        <pt x="299" y="176" on="0"/>
        <pt x="406" y="176" on="1"/>
        <pt x="513" y="176" on="0"/>
        <pt x="655" y="326" on="0"/>
      </contour>
      <contour>
        <pt x="239" y="434" on="1"/>
        <pt x="239" y="527" on="0"/>
        <pt x="338" y="627" on="0"/>
        <pt x="408" y="627" on="1"/>
        <pt x="446" y="627" on="0"/>
        <pt x="506" y="604" on="0"/>
        <pt x="531" y="583" on="1"/>
        <pt x="489" y="528" on="1"/>
        <pt x="471" y="543" on="0"/>
        <pt x="435" y="556" on="0"/>
        <pt x="415" y="556" on="1"/>
        <pt x="380" y="556" on="0"/>
        <pt x="331" y="500" on="0"/>
        <pt x="331" y="434" on="1"/>
        <pt x="331" y="372" on="0"/>
        <pt x="377" y="315" on="0"/>
        <pt x="414" y="315" on="1"/>
        <pt x="439" y="315" on="0"/>
        <pt x="478" y="331" on="0"/>
        <pt x="497" y="345" on="1"/>
        <pt x="534" y="290" on="1"/>
        <pt x="511" y="269" on="0"/>
        <pt x="449" y="241" on="0"/>
        <pt x="409" y="241" on="1"/>
        <pt x="334" y="241" on="0"/>
        <pt x="239" y="341" on="0"/>
      </contour>
    </TTGlyph>
    <TTGlyph name="currency" xMin="22" yMin="84" xMax="534" yMax="600">
      <component glyphName="currency.lf" x="-2" y="0" flags="0x4"/>
    </TTGlyph>
    <TTGlyph name="currency.lf" xMin="24" yMin="84" xMax="536" yMax="600">
      <contour>
        <pt x="475" y="84" on="1"/>
        <pt x="397" y="160" on="1"/>
        <pt x="372" y="145" on="0"/>
        <pt x="313" y="129" on="0"/>
        <pt x="279" y="129" on="1"/>
        <pt x="246" y="129" on="0"/>
        <pt x="188" y="146" on="0"/>
        <pt x="163" y="161" on="1"/>
        <pt x="85" y="84" on="1"/>
        <pt x="24" y="145" on="1"/>
        <pt x="101" y="222" on="1"/>
        <pt x="85" y="247" on="0"/>
        <pt x="67" y="308" on="0"/>
        <pt x="67" y="341" on="1"/>
        <pt x="67" y="374" on="0"/>
        <pt x="85" y="434" on="0"/>
        <pt x="101" y="459" on="1"/>
        <pt x="24" y="538" on="1"/>
        <pt x="85" y="600" on="1"/>
        <pt x="163" y="521" on="1"/>
        <pt x="188" y="536" on="0"/>
        <pt x="246" y="553" on="0"/>
        <pt x="279" y="553" on="1"/>
        <pt x="313" y="553" on="0"/>
        <pt x="372" y="537" on="0"/>
        <pt x="397" y="522" on="1"/>
        <pt x="475" y="600" on="1"/>
        <pt x="536" y="538" on="1"/>
        <pt x="461" y="462" on="1"/>
        <pt x="477" y="437" on="0"/>
        <pt x="496" y="375" on="0"/>
        <pt x="496" y="341" on="1"/>
        <pt x="496" y="307" on="0"/>
        <pt x="477" y="245" on="0"/>
        <pt x="460" y="220" on="1"/>
        <pt x="536" y="145" on="1"/>
      </contour>
      <contour>
        <pt x="392" y="342" on="1"/>
        <pt x="392" y="400" on="0"/>
        <pt x="335" y="467" on="0"/>
        <pt x="281" y="467" on="1"/>
        <pt x="227" y="467" on="0"/>
        <pt x="169" y="400" on="0"/>
        <pt x="169" y="342" on="1"/>
        <pt x="169" y="283" on="0"/>
        <pt x="227" y="216" on="0"/>
        <pt x="281" y="216" on="1"/>
        <pt x="335" y="216" on="0"/>
        <pt x="392" y="283" on="0"/>
      </contour>
    </TTGlyph>
    <TTGlyph name="currency.osf" xMin="24" yMin="84" xMax="536" yMax="600">
      <component glyphName="currency.lf" x="0" y="0" flags="0x204"/>
    </TTGlyph>
    <TTGlyph name="currency.tosf" xMin="22" yMin="84" xMax="534" yMax="600">
      <component glyphName="currency.lf" x="-2" y="0" flags="0x4"/>
    </TTGlyph>
    <TTGlyph name="d" xMin="51" yMin="-14" xMax="518" yMax="754">
      <contour>
        <pt x="284" y="77" on="1"/>
        <pt x="321" y="77" on="0"/>
        <pt x="375" y="114" on="0"/>
        <pt x="398" y="148" on="1"/>
        <pt x="398" y="394" on="1"/>
        <pt x="376" y="421" on="0"/>
        <pt x="327" y="452" on="0"/>
        <pt x="293" y="452" on="1"/>
        <pt x="241" y="452" on="0"/>
        <pt x="178" y="361" on="0"/>
        <pt x="178" y="264" on="1"/>
        <pt x="178" y="163" on="0"/>
        <pt x="235" y="77" on="0"/>
      </contour>
      <contour>
        <pt x="412" y="0" on="1"/>
        <pt x="403" y="68" on="1"/>
        <pt x="378" y="31" on="0"/>
        <pt x="302" y="-14" on="0"/>
        <pt x="251" y="-14" on="1"/>
        <pt x="154" y="-14" on="0"/>
        <pt x="51" y="138" on="0"/>
        <pt x="51" y="263" on="1"/>
        <pt x="51" y="385" on="0"/>
        <pt x="165" y="543" on="0"/>
        <pt x="264" y="543" on="1"/>
        <pt x="306" y="543" on="0"/>
        <pt x="373" y="509" on="0"/>
        <pt x="398" y="484" on="1"/>
        <pt x="398" y="754" on="1"/>
        <pt x="518" y="740" on="1"/>
        <pt x="518" y="0" on="1"/>
      </contour>
    </TTGlyph>
    <TTGlyph name="d.sc" xMin="85" yMin="0" xMax="543" yMax="566">
      <contour>
        <pt x="85" y="566" on="1"/>
        <pt x="236" y="566" on="1"/>
        <pt x="295" y="566" on="0"/>
        <pt x="406" y="544" on="0"/>
        <pt x="491" y="483" on="0"/>
        <pt x="543" y="374" on="0"/>
        <pt x="543" y="287" on="1"/>
        <pt x="543" y="201" on="0"/>
        <pt x="492" y="89" on="0"/>
        <pt x="410" y="25" on="0"/>
        <pt x="305" y="0" on="0"/>
        <pt x="251" y="0" on="1"/>
        <pt x="85" y="0" on="1"/>
      </contour>
      <contour>
        <pt x="418" y="287" on="1"/>
        <pt x="418" y="406" on="0"/>
        <pt x="322" y="478" on="0"/>
        <pt x="256" y="478" on="1"/>
        <pt x="205" y="478" on="1"/>
        <pt x="205" y="88" on="1"/>
        <pt x="260" y="88" on="1"/>
        <pt x="326" y="88" on="0"/>
        <pt x="418" y="167" on="0"/>
      </contour>
    </TTGlyph>
    <TTGlyph name="dagger" xMin="45" yMin="0" xMax="511" yMax="691">
      <contour>
        <pt x="221" y="691" on="1"/>
        <pt x="335" y="691" on="1"/>
        <pt x="335" y="547" on="1"/>
        <pt x="511" y="547" on="1"/>
        <pt x="511" y="448" on="1"/>
        <pt x="335" y="448" on="1"/>
        <pt x="335" y="0" on="1"/>
        <pt x="221" y="0" on="1"/>
        <pt x="221" y="448" on="1"/>
        <pt x="45" y="448" on="1"/>
        <pt x="45" y="547" on="1"/>
        <pt x="221" y="547" on="1"/>
      </contour>
    </TTGlyph>
    <TTGlyph name="dagger.lf" xMin="35" yMin="0" xMax="483" yMax="672">
      <contour>
        <pt x="202" y="672" on="1"/>
        <pt x="316" y="672" on="1"/>
        <pt x="316" y="528" on="1"/>
        <pt x="483" y="528" on="1"/>
        <pt x="483" y="429" on="1"/>
        <pt x="316" y="429" on="1"/>
        <pt x="316" y="0" on="1"/>
        <pt x="202" y="0" on="1"/>
        <pt x="202" y="429" on="1"/>
        <pt x="35" y="429" on="1"/>
        <pt x="35" y="528" on="1"/>
        <pt x="202" y="528" on="1"/>
      </contour>
    </TTGlyph>
    <TTGlyph name="dagger.osf" xMin="35" yMin="0" xMax="483" yMax="672">
      <component glyphName="dagger.lf" x="0" y="0" flags="0x204"/>
    </TTGlyph>
    <TTGlyph name="dagger.tosf" xMin="54" yMin="0" xMax="502" yMax="672">
      <component glyphName="dagger.lf" x="19" y="0" flags="0x4"/>
    </TTGlyph>
    <TTGlyph name="daggerdbl" xMin="45" yMin="0" xMax="511" yMax="691">
      <contour>
        <pt x="509" y="177" on="1"/>
        <pt x="335" y="177" on="1"/>
        <pt x="335" y="0" on="1"/>
        <pt x="221" y="0" on="1"/>
        <pt x="221" y="177" on="1"/>
        <pt x="47" y="177" on="1"/>
        <pt x="47" y="276" on="1"/>
        <pt x="221" y="276" on="1"/>
        <pt x="221" y="448" on="1"/>
        <pt x="45" y="448" on="1"/>
        <pt x="45" y="547" on="1"/>
        <pt x="221" y="547" on="1"/>
        <pt x="221" y="691" on="1"/>
        <pt x="335" y="691" on="1"/>
        <pt x="335" y="547" on="1"/>
        <pt x="511" y="547" on="1"/>
        <pt x="511" y="448" on="1"/>
        <pt x="335" y="448" on="1"/>
        <pt x="335" y="276" on="1"/>
        <pt x="509" y="276" on="1"/>
      </contour>
    </TTGlyph>
    <TTGlyph name="daggerdbl.lf" xMin="35" yMin="0" xMax="483" yMax="672">
      <contour>
        <pt x="483" y="153" on="1"/>
        <pt x="316" y="153" on="1"/>
        <pt x="316" y="0" on="1"/>
        <pt x="202" y="0" on="1"/>
        <pt x="202" y="153" on="1"/>
        <pt x="35" y="153" on="1"/>
        <pt x="35" y="252" on="1"/>
        <pt x="202" y="252" on="1"/>
        <pt x="202" y="429" on="1"/>
        <pt x="35" y="429" on="1"/>
        <pt x="35" y="528" on="1"/>
        <pt x="202" y="528" on="1"/>
        <pt x="202" y="672" on="1"/>
        <pt x="316" y="672" on="1"/>
        <pt x="316" y="528" on="1"/>
        <pt x="483" y="528" on="1"/>
        <pt x="483" y="429" on="1"/>
        <pt x="316" y="429" on="1"/>
        <pt x="316" y="252" on="1"/>
        <pt x="483" y="252" on="1"/>
      </contour>
    </TTGlyph>
    <TTGlyph name="daggerdbl.osf" xMin="35" yMin="0" xMax="483" yMax="672">
      <component glyphName="daggerdbl.lf" x="0" y="0" flags="0x204"/>
    </TTGlyph>
    <TTGlyph name="daggerdbl.tosf" xMin="54" yMin="0" xMax="502" yMax="672">
      <component glyphName="daggerdbl.lf" x="19" y="0" flags="0x4"/>
    </TTGlyph>
    <TTGlyph name="dcaron" xMin="51" yMin="-14" xMax="685" yMax="754">
      <component glyphName="caron.alt" x="506" y="49" flags="0x4"/>
      <component glyphName="d" x="0" y="0" flags="0x204"/>
    </TTGlyph>
    <TTGlyph name="dcaron.sc" xMin="85" yMin="0" xMax="543" yMax="827">
      <component glyphName="d.sc" x="0" y="0" flags="0x204"/>
      <component glyphName="caron.sc" x="69" y="0" flags="0x4"/>
    </TTGlyph>
    <TTGlyph name="dcroat" xMin="51" yMin="-14" xMax="590" yMax="754">
      <contour>
        <pt x="284" y="77" on="1"/>
        <pt x="321" y="77" on="0"/>
        <pt x="375" y="114" on="0"/>
        <pt x="398" y="148" on="1"/>
        <pt x="398" y="394" on="1"/>
        <pt x="376" y="421" on="0"/>
        <pt x="327" y="452" on="0"/>
        <pt x="293" y="452" on="1"/>
        <pt x="241" y="452" on="0"/>
        <pt x="178" y="361" on="0"/>
        <pt x="178" y="264" on="1"/>
        <pt x="178" y="163" on="0"/>
        <pt x="235" y="77" on="0"/>
      </contour>
      <contour>
        <pt x="412" y="0" on="1"/>
        <pt x="403" y="68" on="1"/>
        <pt x="378" y="31" on="0"/>
        <pt x="302" y="-14" on="0"/>
        <pt x="251" y="-14" on="1"/>
        <pt x="154" y="-14" on="0"/>
        <pt x="51" y="138" on="0"/>
        <pt x="51" y="263" on="1"/>
        <pt x="51" y="385" on="0"/>
        <pt x="165" y="543" on="0"/>
        <pt x="264" y="543" on="1"/>
        <pt x="306" y="543" on="0"/>
        <pt x="373" y="509" on="0"/>
        <pt x="398" y="484" on="1"/>
        <pt x="398" y="602" on="1"/>
        <pt x="255" y="602" on="1"/>
        <pt x="243" y="681" on="1"/>
        <pt x="398" y="681" on="1"/>
        <pt x="398" y="754" on="1"/>
        <pt x="518" y="740" on="1"/>
        <pt x="518" y="681" on="1"/>
        <pt x="590" y="681" on="1"/>
        <pt x="590" y="602" on="1"/>
        <pt x="518" y="602" on="1"/>
        <pt x="518" y="0" on="1"/>
      </contour>
    </TTGlyph>
    <TTGlyph name="dcroat.sc" xMin="11" yMin="0" xMax="527" yMax="566">
      <component glyphName="eth.sc" x="0" y="0" flags="0x204"/>
    </TTGlyph>
    <TTGlyph name="degree" xMin="66" yMin="396" xMax="407" yMax="725">
      <component glyphName="degree.lf" x="18" y="20" flags="0x4"/>
    </TTGlyph>
    <TTGlyph name="degree.lf" xMin="48" yMin="376" xMax="389" yMax="705">
      <contour>
        <pt x="389" y="540" on="1"/>
        <pt x="389" y="462" on="0"/>
        <pt x="282" y="376" on="0"/>
        <pt x="218" y="376" on="1"/>
        <pt x="155" y="376" on="0"/>
        <pt x="48" y="463" on="0"/>
        <pt x="48" y="541" on="1"/>
        <pt x="48" y="619" on="0"/>
        <pt x="155" y="705" on="0"/>
        <pt x="218" y="705" on="1"/>
        <pt x="282" y="705" on="0"/>
        <pt x="389" y="618" on="0"/>
      </contour>
      <contour>
        <pt x="139" y="541" on="1"/>
        <pt x="139" y="497" on="0"/>
        <pt x="186" y="451" on="0"/>
        <pt x="218" y="451" on="1"/>
        <pt x="252" y="451" on="0"/>
        <pt x="298" y="497" on="0"/>
        <pt x="298" y="540" on="1"/>
        <pt x="298" y="584" on="0"/>
        <pt x="252" y="630" on="0"/>
        <pt x="218" y="630" on="1"/>
        <pt x="186" y="630" on="0"/>
        <pt x="139" y="585" on="0"/>
      </contour>
    </TTGlyph>
    <TTGlyph name="degree.osf" xMin="48" yMin="376" xMax="389" yMax="705">
      <component glyphName="degree.lf" x="0" y="0" flags="0x204"/>
    </TTGlyph>
    <TTGlyph name="degree.tosf" xMin="66" yMin="376" xMax="407" yMax="705">
      <component glyphName="degree.lf" x="18" y="0" flags="0x4"/>
    </TTGlyph>
    <TTGlyph name="deleterightKey" xMin="100" yMin="-12" xMax="1360" yMax="713">
      <contour>
        <pt x="980" y="-12" on="1"/>
        <pt x="150" y="-12" on="1"/>
        <pt x="128" y="-12" on="0"/>
        <pt x="100" y="16" on="0"/>
        <pt x="100" y="38" on="1"/>
        <pt x="100" y="663" on="1"/>
        <pt x="100" y="685" on="0"/>
        <pt x="128" y="713" on="0"/>
        <pt x="150" y="713" on="1"/>
        <pt x="980" y="713" on="1"/>
        <pt x="1360" y="352" on="1"/>
      </contour>
      <contour>
        <pt x="503" y="355" on="1"/>
        <pt x="349" y="201" on="1"/>
        <pt x="416" y="134" on="1"/>
        <pt x="570" y="288" on="1"/>
        <pt x="724" y="134" on="1"/>
        <pt x="791" y="201" on="1"/>
        <pt x="637" y="355" on="1"/>
        <pt x="791" y="508" on="1"/>
        <pt x="724" y="577" on="1"/>
        <pt x="570" y="422" on="1"/>
        <pt x="416" y="577" on="1"/>
        <pt x="349" y="508" on="1"/>
      </contour>
    </TTGlyph>
    <TTGlyph name="delta" xMin="46" yMin="-14" xMax="532" yMax="754">
      <contour>
        <pt x="532" y="245" on="1"/>
        <pt x="532" y="136" on="0"/>
        <pt x="402" y="-14" on="0"/>
        <pt x="289" y="-14" on="1"/>
        <pt x="179" y="-14" on="0"/>
        <pt x="46" y="122" on="0"/>
        <pt x="46" y="241" on="1"/>
        <pt x="46" y="322" on="0"/>
        <pt x="129" y="434" on="0"/>
        <pt x="198" y="467" on="1"/>
        <pt x="141" y="498" on="0"/>
        <pt x="101" y="566" on="0"/>
        <pt x="101" y="609" on="1"/>
        <pt x="101" y="666" on="0"/>
        <pt x="197" y="754" on="0"/>
        <pt x="293" y="754" on="1"/>
        <pt x="353" y="754" on="0"/>
        <pt x="442" y="722" on="0"/>
        <pt x="477" y="697" on="1"/>
        <pt x="419" y="628" on="1"/>
        <pt x="391" y="647" on="0"/>
        <pt x="337" y="666" on="0"/>
        <pt x="304" y="666" on="1"/>
        <pt x="258" y="666" on="0"/>
        <pt x="220" y="630" on="0"/>
        <pt x="220" y="605" on="1"/>
        <pt x="220" y="575" on="0"/>
        <pt x="262" y="538" on="0"/>
        <pt x="332" y="508" on="1"/>
        <pt x="431" y="467" on="0"/>
        <pt x="532" y="350" on="0"/>
      </contour>
      <contour>
        <pt x="288" y="78" on="1"/>
        <pt x="345" y="78" on="0"/>
        <pt x="405" y="162" on="0"/>
        <pt x="405" y="245" on="1"/>
        <pt x="405" y="321" on="0"/>
        <pt x="347" y="401" on="0"/>
        <pt x="266" y="437" on="1"/>
        <pt x="219" y="404" on="0"/>
        <pt x="172" y="313" on="0"/>
        <pt x="172" y="243" on="1"/>
        <pt x="172" y="162" on="0"/>
        <pt x="230" y="78" on="0"/>
      </contour>
    </TTGlyph>
    <TTGlyph name="delta.sc" xMin="-2" yMin="0" xMax="522" yMax="568">
      <contour>
        <pt x="187" y="568" on="1"/>
        <pt x="333" y="568" on="1"/>
        <pt x="522" y="0" on="1"/>
        <pt x="-2" y="0" on="1"/>
      </contour>
      <contour>
        <pt x="372" y="90" on="1"/>
        <pt x="258" y="477" on="1"/>
        <pt x="143" y="90" on="1"/>
      </contour>
    </TTGlyph>
    <TTGlyph name="descRound.cy" xMin="30" yMin="-248" xMax="269" yMax="25">
      <contour>
        <pt x="87" y="0" on="1"/>
        <pt x="109" y="25" on="1"/>
        <pt x="181" y="2" on="0"/>
        <pt x="269" y="-76" on="0"/>
        <pt x="269" y="-131" on="1"/>
        <pt x="269" y="-184" on="0"/>
        <pt x="194" y="-248" on="0"/>
        <pt x="133" y="-248" on="1"/>
        <pt x="99" y="-248" on="0"/>
        <pt x="49" y="-233" on="0"/>
        <pt x="30" y="-223" on="1"/>
        <pt x="56" y="-158" on="1"/>
        <pt x="68" y="-164" on="0"/>
        <pt x="100" y="-175" on="0"/>
        <pt x="123" y="-175" on="1"/>
        <pt x="151" y="-175" on="0"/>
        <pt x="179" y="-146" on="0"/>
        <pt x="179" y="-121" on="1"/>
        <pt x="179" y="-90" on="0"/>
        <pt x="137" y="-28" on="0"/>
      </contour>
    </TTGlyph>
    <TTGlyph name="descStraight.cy" xMin="32" yMin="-157" xMax="181" yMax="92">
      <contour>
        <pt x="32" y="92" on="1"/>
        <pt x="181" y="92" on="1"/>
        <pt x="181" y="-157" on="1"/>
        <pt x="91" y="-157" on="1"/>
        <pt x="75" y="0" on="1"/>
        <pt x="38" y="0" on="1"/>
      </contour>
    </TTGlyph>
    <TTGlyph name="descStraight.cy.case" xMin="30" yMin="-157" xMax="181" yMax="98">
      <contour>
        <pt x="30" y="98" on="1"/>
        <pt x="181" y="98" on="1"/>
        <pt x="181" y="-157" on="1"/>
        <pt x="90" y="-157" on="1"/>
        <pt x="73" y="0" on="1"/>
        <pt x="31" y="0" on="1"/>
      </contour>
    </TTGlyph>
    <TTGlyph name="dieresis" xMin="31" yMin="648" xMax="385" yMax="781">
      <contour>
        <pt x="31" y="715" on="1"/>
        <pt x="31" y="743" on="0"/>
        <pt x="70" y="781" on="0"/>
        <pt x="98" y="781" on="1"/>
        <pt x="126" y="781" on="0"/>
        <pt x="165" y="743" on="0"/>
        <pt x="165" y="715" on="1"/>
        <pt x="165" y="687" on="0"/>
        <pt x="126" y="648" on="0"/>
        <pt x="98" y="648" on="1"/>
        <pt x="70" y="648" on="0"/>
        <pt x="31" y="687" on="0"/>
      </contour>
      <contour>
        <pt x="250" y="715" on="1"/>
        <pt x="250" y="743" on="0"/>
        <pt x="289" y="781" on="0"/>
        <pt x="317" y="781" on="1"/>
        <pt x="345" y="781" on="0"/>
        <pt x="385" y="743" on="0"/>
        <pt x="385" y="715" on="1"/>
        <pt x="385" y="687" on="0"/>
        <pt x="345" y="648" on="0"/>
        <pt x="317" y="648" on="1"/>
        <pt x="289" y="648" on="0"/>
        <pt x="250" y="687" on="0"/>
      </contour>
    </TTGlyph>
    <TTGlyph name="dieresis.case" xMin="31" yMin="774" xMax="385" yMax="907">
      <component glyphName="dieresis" x="0" y="126" flags="0x4"/>
    </TTGlyph>
    <TTGlyph name="dieresis.sc" xMin="31" yMin="678" xMax="385" yMax="811">
      <component glyphName="dieresis" x="0" y="30" flags="0x4"/>
    </TTGlyph>
    <TTGlyph name="dieresisacutecomb" xMin="-44" yMin="629" xMax="315" yMax="967">
      <contour>
        <pt x="9" y="851" on="1"/>
        <pt x="218" y="967" on="1"/>
        <pt x="267" y="873" on="1"/>
        <pt x="42" y="789" on="1"/>
      </contour>
      <contour>
        <pt x="180" y="695" on="1"/>
        <pt x="180" y="723" on="0"/>
        <pt x="219" y="762" on="0"/>
        <pt x="247" y="762" on="1"/>
        <pt x="275" y="762" on="0"/>
        <pt x="315" y="723" on="0"/>
        <pt x="315" y="695" on="1"/>
        <pt x="315" y="667" on="0"/>
        <pt x="275" y="629" on="0"/>
        <pt x="247" y="629" on="1"/>
        <pt x="219" y="629" on="0"/>
        <pt x="180" y="667" on="0"/>
      </contour>
      <contour>
        <pt x="-44" y="695" on="1"/>
        <pt x="-44" y="723" on="0"/>
        <pt x="-5" y="762" on="0"/>
        <pt x="24" y="762" on="1"/>
        <pt x="52" y="762" on="0"/>
        <pt x="91" y="723" on="0"/>
        <pt x="91" y="695" on="1"/>
        <pt x="91" y="667" on="0"/>
        <pt x="52" y="629" on="0"/>
        <pt x="24" y="629" on="1"/>
        <pt x="-5" y="629" on="0"/>
        <pt x="-44" y="667" on="0"/>
      </contour>
    </TTGlyph>
    <TTGlyph name="dieresiscombcomb" xMin="40" yMin="648" xMax="394" yMax="781">
      <component glyphName="uni0308" x="0" y="0" flags="0x204"/>
    </TTGlyph>
    <TTGlyph name="dieresisgravecomb" xMin="-44" yMin="629" xMax="315" yMax="967">
      <contour>
        <pt x="4" y="873" on="1"/>
        <pt x="53" y="967" on="1"/>
        <pt x="262" y="851" on="1"/>
        <pt x="229" y="789" on="1"/>
      </contour>
      <contour>
        <pt x="-44" y="695" on="1"/>
        <pt x="-44" y="723" on="0"/>
        <pt x="-4" y="762" on="0"/>
        <pt x="24" y="762" on="1"/>
        <pt x="52" y="762" on="0"/>
        <pt x="91" y="723" on="0"/>
        <pt x="91" y="695" on="1"/>
        <pt x="91" y="667" on="0"/>
        <pt x="52" y="629" on="0"/>
        <pt x="24" y="629" on="1"/>
        <pt x="-4" y="629" on="0"/>
        <pt x="-44" y="667" on="0"/>
      </contour>
      <contour>
        <pt x="180" y="695" on="1"/>
        <pt x="180" y="723" on="0"/>
        <pt x="219" y="762" on="0"/>
        <pt x="247" y="762" on="1"/>
        <pt x="276" y="762" on="0"/>
        <pt x="315" y="723" on="0"/>
        <pt x="315" y="695" on="1"/>
        <pt x="315" y="667" on="0"/>
        <pt x="276" y="629" on="0"/>
        <pt x="247" y="629" on="1"/>
        <pt x="219" y="629" on="0"/>
        <pt x="180" y="667" on="0"/>
      </contour>
    </TTGlyph>
    <TTGlyph name="dieresistonos" xMin="30" yMin="618" xMax="409" yMax="932">
      <contour>
        <pt x="180" y="744" on="1"/>
        <pt x="209" y="932" on="1"/>
        <pt x="323" y="912" on="1"/>
        <pt x="257" y="732" on="1"/>
      </contour>
      <contour>
        <pt x="276" y="683" on="1"/>
        <pt x="276" y="711" on="0"/>
        <pt x="314" y="748" on="0"/>
        <pt x="342" y="748" on="1"/>
        <pt x="370" y="748" on="0"/>
        <pt x="409" y="711" on="0"/>
        <pt x="409" y="683" on="1"/>
        <pt x="409" y="655" on="0"/>
        <pt x="370" y="618" on="0"/>
        <pt x="342" y="618" on="1"/>
        <pt x="314" y="618" on="0"/>
        <pt x="276" y="655" on="0"/>
      </contour>
      <contour>
        <pt x="30" y="683" on="1"/>
        <pt x="30" y="711" on="0"/>
        <pt x="69" y="748" on="0"/>
        <pt x="97" y="748" on="1"/>
        <pt x="125" y="748" on="0"/>
        <pt x="163" y="711" on="0"/>
        <pt x="163" y="683" on="1"/>
        <pt x="163" y="655" on="0"/>
        <pt x="125" y="618" on="0"/>
        <pt x="97" y="618" on="1"/>
        <pt x="69" y="618" on="0"/>
        <pt x="30" y="655" on="0"/>
      </contour>
    </TTGlyph>
    <TTGlyph name="divide" xMin="80" yMin="21" xMax="476" yMax="645">
      <component glyphName="divide.lf" x="24" y="0" flags="0x4"/>
    </TTGlyph>
    <TTGlyph name="divide.lf" xMin="56" yMin="21" xMax="452" yMax="645">
      <component glyphName="minus.lf" x="0" y="0" flags="0x204"/>
      <component glyphName="period" x="135" y="35" flags="0x4"/>
      <component glyphName="period" x="135" y="502" flags="0x4"/>
    </TTGlyph>
    <TTGlyph name="divide.osf" xMin="56" yMin="21" xMax="452" yMax="645">
      <component glyphName="divide.lf" x="0" y="0" flags="0x204"/>
    </TTGlyph>
    <TTGlyph name="divide.tosf" xMin="80" yMin="21" xMax="476" yMax="645">
      <component glyphName="divide.lf" x="24" y="0" flags="0x4"/>
    </TTGlyph>
    <TTGlyph name="divisionslash" xMin="-167" yMin="-81" xMax="315" yMax="754">
      <component glyphName="fraction" x="0" y="0" flags="0x204"/>
    </TTGlyph>
    <TTGlyph name="dollar" xMin="23" yMin="-157" xMax="512" yMax="849">
      <contour>
        <pt x="326" y="-157" on="1"/>
        <pt x="231" y="-157" on="1"/>
        <pt x="231" y="-4" on="1"/>
        <pt x="165" y="0" on="0"/>
        <pt x="60" y="49" on="0"/>
        <pt x="23" y="85" on="1"/>
        <pt x="88" y="158" on="1"/>
        <pt x="122" y="126" on="0"/>
        <pt x="206" y="89" on="0"/>
        <pt x="259" y="89" on="1"/>
        <pt x="313" y="89" on="0"/>
        <pt x="387" y="143" on="0"/>
        <pt x="387" y="194" on="1"/>
        <pt x="387" y="238" on="0"/>
        <pt x="332" y="287" on="0"/>
        <pt x="252" y="312" on="1"/>
        <pt x="149" y="344" on="0"/>
        <pt x="51" y="436" on="0"/>
        <pt x="51" y="513" on="1"/>
        <pt x="51" y="585" on="0"/>
        <pt x="151" y="684" on="0"/>
        <pt x="231" y="695" on="1"/>
        <pt x="231" y="849" on="1"/>
        <pt x="326" y="849" on="1"/>
        <pt x="326" y="695" on="1"/>
        <pt x="377" y="688" on="0"/>
        <pt x="457" y="648" on="0"/>
        <pt x="491" y="616" on="1"/>
        <pt x="430" y="545" on="1"/>
        <pt x="396" y="576" on="0"/>
        <pt x="322" y="604" on="0"/>
        <pt x="281" y="604" on="1"/>
        <pt x="235" y="604" on="0"/>
        <pt x="173" y="562" on="0"/>
        <pt x="173" y="521" on="1"/>
        <pt x="173" y="482" on="0"/>
        <pt x="228" y="437" on="0"/>
        <pt x="313" y="411" on="1"/>
        <pt x="399" y="384" on="0"/>
        <pt x="512" y="296" on="0"/>
        <pt x="512" y="200" on="1"/>
        <pt x="512" y="124" on="0"/>
        <pt x="414" y="16" on="0"/>
        <pt x="326" y="0" on="1"/>
      </contour>
    </TTGlyph>
    <TTGlyph name="dollar.lf" xMin="18" yMin="-158" xMax="505" yMax="827">
      <contour>
        <pt x="323" y="-158" on="1"/>
        <pt x="228" y="-158" on="1"/>
        <pt x="228" y="-10" on="1"/>
        <pt x="161" y="-6" on="0"/>
        <pt x="56" y="42" on="0"/>
        <pt x="18" y="79" on="1"/>
        <pt x="83" y="150" on="1"/>
        <pt x="117" y="118" on="0"/>
        <pt x="202" y="82" on="0"/>
        <pt x="253" y="82" on="1"/>
        <pt x="307" y="82" on="0"/>
        <pt x="381" y="134" on="0"/>
        <pt x="381" y="185" on="1"/>
        <pt x="381" y="228" on="0"/>
        <pt x="325" y="277" on="0"/>
        <pt x="246" y="302" on="1"/>
        <pt x="143" y="334" on="0"/>
        <pt x="46" y="425" on="0"/>
        <pt x="46" y="501" on="1"/>
        <pt x="46" y="573" on="0"/>
        <pt x="147" y="670" on="0"/>
        <pt x="228" y="680" on="1"/>
        <pt x="228" y="827" on="1"/>
        <pt x="323" y="827" on="1"/>
        <pt x="323" y="680" on="1"/>
        <pt x="373" y="673" on="0"/>
        <pt x="451" y="632" on="0"/>
        <pt x="485" y="601" on="1"/>
        <pt x="424" y="532" on="1"/>
        <pt x="390" y="563" on="0"/>
        <pt x="317" y="590" on="0"/>
        <pt x="276" y="590" on="1"/>
        <pt x="230" y="590" on="0"/>
        <pt x="169" y="548" on="0"/>
        <pt x="169" y="508" on="1"/>
        <pt x="169" y="470" on="0"/>
        <pt x="223" y="426" on="0"/>
        <pt x="308" y="400" on="1"/>
        <pt x="393" y="373" on="0"/>
        <pt x="505" y="285" on="0"/>
        <pt x="505" y="192" on="1"/>
        <pt x="505" y="117" on="0"/>
        <pt x="410" y="10" on="0"/>
        <pt x="323" y="-5" on="1"/>
      </contour>
    </TTGlyph>
    <TTGlyph name="dollar.osf" xMin="18" yMin="-158" xMax="505" yMax="827">
      <component glyphName="dollar.lf" x="0" y="0" flags="0x204"/>
    </TTGlyph>
    <TTGlyph name="dollar.tosf" xMin="28" yMin="-157" xMax="503" yMax="827">
      <contour>
        <pt x="325" y="-157" on="1"/>
        <pt x="231" y="-157" on="1"/>
        <pt x="231" y="-9" on="1"/>
        <pt x="168" y="-5" on="0"/>
        <pt x="65" y="43" on="0"/>
        <pt x="28" y="80" on="1"/>
        <pt x="92" y="152" on="1"/>
        <pt x="127" y="119" on="0"/>
        <pt x="210" y="83" on="0"/>
        <pt x="258" y="83" on="1"/>
        <pt x="309" y="83" on="0"/>
        <pt x="382" y="135" on="0"/>
        <pt x="382" y="186" on="1"/>
        <pt x="382" y="229" on="0"/>
        <pt x="328" y="279" on="0"/>
        <pt x="252" y="304" on="1"/>
        <pt x="153" y="337" on="0"/>
        <pt x="58" y="426" on="0"/>
        <pt x="58" y="501" on="1"/>
        <pt x="58" y="573" on="0"/>
        <pt x="157" y="668" on="0"/>
        <pt x="231" y="680" on="1"/>
        <pt x="231" y="827" on="1"/>
        <pt x="325" y="827" on="1"/>
        <pt x="325" y="680" on="1"/>
        <pt x="374" y="673" on="0"/>
        <pt x="452" y="634" on="0"/>
        <pt x="486" y="602" on="1"/>
        <pt x="427" y="533" on="1"/>
        <pt x="391" y="563" on="0"/>
        <pt x="319" y="591" on="0"/>
        <pt x="284" y="591" on="1"/>
        <pt x="239" y="591" on="0"/>
        <pt x="178" y="549" on="0"/>
        <pt x="178" y="508" on="1"/>
        <pt x="178" y="471" on="0"/>
        <pt x="231" y="426" on="0"/>
        <pt x="312" y="399" on="1"/>
        <pt x="393" y="371" on="0"/>
        <pt x="503" y="286" on="0"/>
        <pt x="503" y="193" on="1"/>
        <pt x="503" y="117" on="0"/>
        <pt x="409" y="11" on="0"/>
        <pt x="325" y="-4" on="1"/>
      </contour>
    </TTGlyph>
    <TTGlyph name="dotaccent" xMin="30" yMin="645" xMax="184" yMax="793">
      <contour>
        <pt x="30" y="719" on="1"/>
        <pt x="30" y="750" on="0"/>
        <pt x="72" y="793" on="0"/>
        <pt x="106" y="793" on="1"/>
        <pt x="140" y="793" on="0"/>
        <pt x="184" y="750" on="0"/>
        <pt x="184" y="719" on="1"/>
        <pt x="184" y="688" on="0"/>
        <pt x="140" y="645" on="0"/>
        <pt x="106" y="645" on="1"/>
        <pt x="72" y="645" on="0"/>
        <pt x="30" y="688" on="0"/>
      </contour>
    </TTGlyph>
    <TTGlyph name="dotaccent.case" xMin="30" yMin="771" xMax="184" yMax="919">
      <component glyphName="dotaccent" x="0" y="126" flags="0x4"/>
    </TTGlyph>
    <TTGlyph name="dotaccent.sc" xMin="30" yMin="675" xMax="184" yMax="823">
      <component glyphName="dotaccent" x="0" y="30" flags="0x4"/>
    </TTGlyph>
    <TTGlyph name="dotaccentcombcomb" xMin="39" yMin="645" xMax="193" yMax="793">
      <component glyphName="uni0307" x="0" y="0" flags="0x204"/>
    </TTGlyph>
    <TTGlyph name="dotlessi" xMin="81" yMin="0" xMax="201" yMax="529">
      <contour>
        <pt x="81" y="529" on="1"/>
        <pt x="201" y="529" on="1"/>
        <pt x="201" y="0" on="1"/>
        <pt x="81" y="0" on="1"/>
      </contour>
    </TTGlyph>
    <TTGlyph name="dotlessi.sc" xMin="85" yMin="0" xMax="205" yMax="566">
      <component glyphName="i.sc" x="0" y="0" flags="0x204"/>
    </TTGlyph>
    <TTGlyph name="dotlessj.sc" xMin="-2" yMin="-132" xMax="209" yMax="566">
      <component glyphName="j.sc" x="0" y="0" flags="0x204"/>
    </TTGlyph>
    <TTGlyph name="dotmath" xMin="41" yMin="231" xMax="198" yMax="388">
      <component glyphName="periodcentered" x="0" y="0" flags="0x204"/>
    </TTGlyph>
    <TTGlyph name="e" xMin="46" yMin="-14" xMax="507" yMax="543">
      <contour>
        <pt x="280" y="456" on="1"/>
        <pt x="234" y="456" on="0"/>
        <pt x="177" y="387" on="0"/>
        <pt x="171" y="306" on="1"/>
        <pt x="388" y="306" on="1"/>
        <pt x="388" y="312" on="1"/>
        <pt x="388" y="379" on="0"/>
        <pt x="336" y="456" on="0"/>
      </contour>
      <contour>
        <pt x="487" y="55" on="1"/>
        <pt x="448" y="24" on="0"/>
        <pt x="352" y="-14" on="0"/>
        <pt x="294" y="-14" on="1"/>
        <pt x="175" y="-14" on="0"/>
        <pt x="46" y="136" on="0"/>
        <pt x="46" y="260" on="1"/>
        <pt x="46" y="381" on="0"/>
        <pt x="168" y="543" on="0"/>
        <pt x="278" y="543" on="1"/>
        <pt x="387" y="543" on="0"/>
        <pt x="507" y="401" on="0"/>
        <pt x="507" y="278" on="1"/>
        <pt x="507" y="265" on="0"/>
        <pt x="505" y="236" on="0"/>
        <pt x="504" y="226" on="1"/>
        <pt x="172" y="226" on="1"/>
        <pt x="179" y="143" on="0"/>
        <pt x="251" y="78" on="0"/>
        <pt x="304" y="78" on="1"/>
        <pt x="340" y="78" on="0"/>
        <pt x="403" y="100" on="0"/>
        <pt x="437" y="124" on="1"/>
      </contour>
    </TTGlyph>
    <TTGlyph name="e.sc" xMin="85" yMin="0" xMax="439" yMax="566">
      <contour>
        <pt x="85" y="566" on="1"/>
        <pt x="437" y="566" on="1"/>
        <pt x="424" y="478" on="1"/>
        <pt x="205" y="478" on="1"/>
        <pt x="205" y="332" on="1"/>
        <pt x="396" y="332" on="1"/>
        <pt x="396" y="245" on="1"/>
        <pt x="205" y="245" on="1"/>
        <pt x="205" y="88" on="1"/>
        <pt x="439" y="88" on="1"/>
        <pt x="439" y="0" on="1"/>
        <pt x="85" y="0" on="1"/>
      </contour>
    </TTGlyph>
    <TTGlyph name="eacute" xMin="46" yMin="-14" xMax="507" yMax="816">
      <component glyphName="acute" x="112" y="0" flags="0x4"/>
      <component glyphName="e" x="0" y="0" flags="0x204"/>
    </TTGlyph>
    <TTGlyph name="eacute.sc" xMin="85" yMin="0" xMax="439" yMax="846">
      <component glyphName="acute.sc" x="102" y="0" flags="0x4"/>
      <component glyphName="e.sc" x="0" y="0" flags="0x204"/>
    </TTGlyph>
    <TTGlyph name="ebreve" xMin="46" yMin="-14" xMax="507" yMax="802">
      <component glyphName="e" x="0" y="0" flags="0x204"/>
      <component glyphName="breve" x="90" y="0" flags="0x4"/>
    </TTGlyph>
    <TTGlyph name="ebreve.sc" xMin="85" yMin="0" xMax="439" yMax="832">
      <component glyphName="breve.sc" x="72" y="0" flags="0x4"/>
      <component glyphName="e.sc" x="0" y="0" flags="0x204"/>
    </TTGlyph>
    <TTGlyph name="ecaron" xMin="46" yMin="-14" xMax="507" yMax="797">
      <component glyphName="caron" x="75" y="0" flags="0x4"/>
      <component glyphName="e" x="0" y="0" flags="0x204"/>
    </TTGlyph>
    <TTGlyph name="ecaron.sc" xMin="85" yMin="0" xMax="439" yMax="827">
      <component glyphName="caron.sc" x="57" y="0" flags="0x4"/>
      <component glyphName="e.sc" x="0" y="0" flags="0x204"/>
    </TTGlyph>
    <TTGlyph name="ecircumflex" xMin="46" yMin="-14" xMax="507" yMax="805">
      <component glyphName="circumflex" x="75" y="0" flags="0x4"/>
      <component glyphName="e" x="0" y="0" flags="0x204"/>
    </TTGlyph>
    <TTGlyph name="ecircumflex.sc" xMin="85" yMin="0" xMax="439" yMax="835">
      <component glyphName="e.sc" x="0" y="0" flags="0x204"/>
      <component glyphName="circumflex.sc" x="57" y="0" flags="0x4"/>
    </TTGlyph>
    <TTGlyph name="edieresis" xMin="46" yMin="-14" xMax="507" yMax="781">
      <component glyphName="dieresis" x="73" y="0" flags="0x4"/>
      <component glyphName="e" x="0" y="0" flags="0x204"/>
    </TTGlyph>
    <TTGlyph name="edieresis.sc" xMin="85" yMin="0" xMax="440" yMax="811">
      <component glyphName="dieresis.sc" x="55" y="0" flags="0x4"/>
      <component glyphName="e.sc" x="0" y="0" flags="0x204"/>
    </TTGlyph>
    <TTGlyph name="edotaccent" xMin="46" yMin="-14" xMax="507" yMax="793">
      <component glyphName="e" x="0" y="0" flags="0x204"/>
      <component glyphName="dotaccent" x="173" y="0" flags="0x4"/>
    </TTGlyph>
    <TTGlyph name="edotaccent.sc" xMin="85" yMin="0" xMax="439" yMax="823">
      <component glyphName="dotaccent.sc" x="156" y="0" flags="0x4"/>
      <component glyphName="e.sc" x="0" y="0" flags="0x204"/>
    </TTGlyph>
    <TTGlyph name="egrave" xMin="46" yMin="-14" xMax="507" yMax="816">
      <component glyphName="e" x="0" y="0" flags="0x204"/>
      <component glyphName="grave" x="132" y="0" flags="0x4"/>
    </TTGlyph>
    <TTGlyph name="egrave.sc" xMin="85" yMin="0" xMax="439" yMax="846">
      <component glyphName="grave.sc" x="107" y="0" flags="0x4"/>
      <component glyphName="e.sc" x="0" y="0" flags="0x204"/>
    </TTGlyph>
    <TTGlyph name="eight" xMin="36" yMin="-14" xMax="520" yMax="705">
      <contour>
        <pt x="275" y="-14" on="1"/>
        <pt x="166" y="-14" on="0"/>
        <pt x="36" y="97" on="0"/>
        <pt x="36" y="183" on="1"/>
        <pt x="36" y="247" on="0"/>
        <pt x="105" y="334" on="0"/>
        <pt x="165" y="360" on="1"/>
        <pt x="111" y="389" on="0"/>
        <pt x="63" y="470" on="0"/>
        <pt x="63" y="522" on="1"/>
        <pt x="63" y="610" on="0"/>
        <pt x="192" y="705" on="0"/>
        <pt x="278" y="705" on="1"/>
        <pt x="363" y="705" on="0"/>
        <pt x="493" y="616" on="0"/>
        <pt x="493" y="526" on="1"/>
        <pt x="493" y="477" on="0"/>
        <pt x="439" y="400" on="0"/>
        <pt x="382" y="370" on="1"/>
        <pt x="449" y="341" on="0"/>
        <pt x="520" y="251" on="0"/>
        <pt x="520" y="186" on="1"/>
        <pt x="520" y="100" on="0"/>
        <pt x="386" y="-14" on="0"/>
      </contour>
      <contour>
        <pt x="293" y="404" on="1"/>
        <pt x="303" y="401" on="1"/>
        <pt x="344" y="426" on="0"/>
        <pt x="378" y="481" on="0"/>
        <pt x="378" y="521" on="1"/>
        <pt x="378" y="567" on="0"/>
        <pt x="324" y="620" on="0"/>
        <pt x="278" y="620" on="1"/>
        <pt x="232" y="620" on="0"/>
        <pt x="178" y="571" on="0"/>
        <pt x="178" y="520" on="1"/>
        <pt x="178" y="471" on="0"/>
        <pt x="236" y="423" on="0"/>
      </contour>
      <contour>
        <pt x="278" y="76" on="1"/>
        <pt x="335" y="76" on="0"/>
        <pt x="398" y="138" on="0"/>
        <pt x="398" y="184" on="1"/>
        <pt x="398" y="237" on="0"/>
        <pt x="341" y="295" on="0"/>
        <pt x="268" y="318" on="1"/>
        <pt x="242" y="328" on="1"/>
        <pt x="199" y="306" on="0"/>
        <pt x="157" y="237" on="0"/>
        <pt x="157" y="186" on="1"/>
        <pt x="157" y="134" on="0"/>
        <pt x="224" y="76" on="0"/>
      </contour>
    </TTGlyph>
    <TTGlyph name="eight.dnom" xMin="34" yMin="-10" xMax="366" yMax="427">
      <contour>
        <pt x="198" y="-10" on="1"/>
        <pt x="121" y="-10" on="0"/>
        <pt x="34" y="61" on="0"/>
        <pt x="34" y="112" on="1"/>
        <pt x="34" y="149" on="0"/>
        <pt x="78" y="200" on="0"/>
        <pt x="117" y="216" on="1"/>
        <pt x="82" y="235" on="0"/>
        <pt x="52" y="286" on="0"/>
        <pt x="52" y="315" on="1"/>
        <pt x="52" y="365" on="0"/>
        <pt x="138" y="427" on="0"/>
        <pt x="201" y="427" on="1"/>
        <pt x="263" y="427" on="0"/>
        <pt x="349" y="371" on="0"/>
        <pt x="349" y="320" on="1"/>
        <pt x="349" y="292" on="0"/>
        <pt x="315" y="243" on="0"/>
        <pt x="277" y="225" on="1"/>
        <pt x="323" y="204" on="0"/>
        <pt x="366" y="149" on="0"/>
        <pt x="366" y="113" on="1"/>
        <pt x="366" y="63" on="0"/>
        <pt x="277" y="-10" on="0"/>
      </contour>
      <contour>
        <pt x="202" y="254" on="1"/>
        <pt x="216" y="249" on="1"/>
        <pt x="240" y="264" on="0"/>
        <pt x="257" y="295" on="0"/>
        <pt x="257" y="315" on="1"/>
        <pt x="257" y="337" on="0"/>
        <pt x="229" y="364" on="0"/>
        <pt x="201" y="364" on="1"/>
        <pt x="175" y="364" on="0"/>
        <pt x="144" y="339" on="0"/>
        <pt x="144" y="314" on="1"/>
        <pt x="144" y="292" on="0"/>
        <pt x="173" y="264" on="0"/>
      </contour>
      <contour>
        <pt x="201" y="58" on="1"/>
        <pt x="235" y="58" on="0"/>
        <pt x="271" y="90" on="0"/>
        <pt x="271" y="114" on="1"/>
        <pt x="271" y="140" on="0"/>
        <pt x="238" y="169" on="0"/>
        <pt x="199" y="182" on="1"/>
        <pt x="177" y="190" on="1"/>
        <pt x="153" y="178" on="0"/>
        <pt x="130" y="140" on="0"/>
        <pt x="130" y="116" on="1"/>
        <pt x="130" y="89" on="0"/>
        <pt x="168" y="58" on="0"/>
      </contour>
    </TTGlyph>
    <TTGlyph name="eight.lf" xMin="38" yMin="-14" xMax="525" yMax="683">
      <contour>
        <pt x="280" y="-14" on="1"/>
        <pt x="169" y="-14" on="0"/>
        <pt x="38" y="97" on="0"/>
        <pt x="38" y="178" on="1"/>
        <pt x="38" y="241" on="0"/>
        <pt x="107" y="324" on="0"/>
        <pt x="167" y="350" on="1"/>
        <pt x="114" y="378" on="0"/>
        <pt x="66" y="458" on="0"/>
        <pt x="66" y="508" on="1"/>
        <pt x="66" y="591" on="0"/>
        <pt x="195" y="683" on="0"/>
        <pt x="282" y="683" on="1"/>
        <pt x="368" y="683" on="0"/>
        <pt x="499" y="596" on="0"/>
        <pt x="499" y="512" on="1"/>
        <pt x="499" y="465" on="0"/>
        <pt x="444" y="390" on="0"/>
        <pt x="387" y="360" on="1"/>
        <pt x="455" y="330" on="0"/>
        <pt x="525" y="241" on="0"/>
        <pt x="525" y="181" on="1"/>
        <pt x="525" y="98" on="0"/>
        <pt x="391" y="-14" on="0"/>
      </contour>
      <contour>
        <pt x="289" y="397" on="1"/>
        <pt x="308" y="391" on="1"/>
        <pt x="348" y="416" on="0"/>
        <pt x="382" y="470" on="0"/>
        <pt x="382" y="507" on="1"/>
        <pt x="382" y="548" on="0"/>
        <pt x="331" y="599" on="0"/>
        <pt x="283" y="599" on="1"/>
        <pt x="237" y="599" on="0"/>
        <pt x="183" y="551" on="0"/>
        <pt x="183" y="506" on="1"/>
        <pt x="183" y="462" on="0"/>
        <pt x="238" y="415" on="0"/>
      </contour>
      <contour>
        <pt x="282" y="76" on="1"/>
        <pt x="339" y="76" on="0"/>
        <pt x="403" y="135" on="0"/>
        <pt x="403" y="181" on="1"/>
        <pt x="403" y="230" on="0"/>
        <pt x="345" y="283" on="0"/>
        <pt x="275" y="308" on="1"/>
        <pt x="246" y="318" on="1"/>
        <pt x="203" y="297" on="0"/>
        <pt x="161" y="229" on="0"/>
        <pt x="161" y="181" on="1"/>
        <pt x="161" y="132" on="0"/>
        <pt x="226" y="76" on="0"/>
      </contour>
    </TTGlyph>
    <TTGlyph name="eight.numr" xMin="34" yMin="262" xMax="366" yMax="699">
      <component glyphName="eight.dnom" x="0" y="272" flags="0x4"/>
    </TTGlyph>
    <TTGlyph name="eight.osf" xMin="38" yMin="-14" xMax="525" yMax="683">
      <contour>
        <pt x="280" y="-14" on="1"/>
        <pt x="169" y="-14" on="0"/>
        <pt x="38" y="97" on="0"/>
        <pt x="38" y="178" on="1"/>
        <pt x="38" y="241" on="0"/>
        <pt x="107" y="324" on="0"/>
        <pt x="167" y="350" on="1"/>
        <pt x="114" y="378" on="0"/>
        <pt x="66" y="458" on="0"/>
        <pt x="66" y="508" on="1"/>
        <pt x="66" y="591" on="0"/>
        <pt x="195" y="683" on="0"/>
        <pt x="282" y="683" on="1"/>
        <pt x="368" y="683" on="0"/>
        <pt x="499" y="596" on="0"/>
        <pt x="499" y="512" on="1"/>
        <pt x="499" y="465" on="0"/>
        <pt x="444" y="390" on="0"/>
        <pt x="387" y="360" on="1"/>
        <pt x="455" y="330" on="0"/>
        <pt x="525" y="241" on="0"/>
        <pt x="525" y="181" on="1"/>
        <pt x="525" y="98" on="0"/>
        <pt x="391" y="-14" on="0"/>
      </contour>
      <contour>
        <pt x="289" y="397" on="1"/>
        <pt x="308" y="391" on="1"/>
        <pt x="348" y="416" on="0"/>
        <pt x="382" y="470" on="0"/>
        <pt x="382" y="507" on="1"/>
        <pt x="382" y="548" on="0"/>
        <pt x="331" y="599" on="0"/>
        <pt x="283" y="599" on="1"/>
        <pt x="237" y="599" on="0"/>
        <pt x="183" y="551" on="0"/>
        <pt x="183" y="506" on="1"/>
        <pt x="183" y="462" on="0"/>
        <pt x="238" y="415" on="0"/>
      </contour>
      <contour>
        <pt x="282" y="76" on="1"/>
        <pt x="339" y="76" on="0"/>
        <pt x="403" y="135" on="0"/>
        <pt x="403" y="181" on="1"/>
        <pt x="403" y="230" on="0"/>
        <pt x="345" y="283" on="0"/>
        <pt x="275" y="308" on="1"/>
        <pt x="246" y="318" on="1"/>
        <pt x="203" y="297" on="0"/>
        <pt x="161" y="229" on="0"/>
        <pt x="161" y="181" on="1"/>
        <pt x="161" y="132" on="0"/>
        <pt x="226" y="76" on="0"/>
      </contour>
    </TTGlyph>
    <TTGlyph name="eight.tosf" xMin="39" yMin="-14" xMax="523" yMax="683">
      <contour>
        <pt x="278" y="-14" on="1"/>
        <pt x="168" y="-14" on="0"/>
        <pt x="39" y="97" on="0"/>
        <pt x="39" y="178" on="1"/>
        <pt x="39" y="241" on="0"/>
        <pt x="108" y="324" on="0"/>
        <pt x="167" y="350" on="1"/>
        <pt x="114" y="379" on="0"/>
        <pt x="66" y="458" on="0"/>
        <pt x="66" y="507" on="1"/>
        <pt x="66" y="591" on="0"/>
        <pt x="194" y="683" on="0"/>
        <pt x="281" y="683" on="1"/>
        <pt x="367" y="683" on="0"/>
        <pt x="496" y="595" on="0"/>
        <pt x="496" y="511" on="1"/>
        <pt x="496" y="464" on="0"/>
        <pt x="442" y="390" on="0"/>
        <pt x="386" y="360" on="1"/>
        <pt x="453" y="329" on="0"/>
        <pt x="523" y="241" on="0"/>
        <pt x="523" y="181" on="1"/>
        <pt x="523" y="98" on="0"/>
        <pt x="390" y="-14" on="0"/>
      </contour>
      <contour>
        <pt x="290" y="396" on="1"/>
        <pt x="308" y="390" on="1"/>
        <pt x="348" y="415" on="0"/>
        <pt x="381" y="470" on="0"/>
        <pt x="381" y="507" on="1"/>
        <pt x="381" y="548" on="0"/>
        <pt x="330" y="599" on="0"/>
        <pt x="281" y="599" on="1"/>
        <pt x="235" y="599" on="0"/>
        <pt x="181" y="551" on="0"/>
        <pt x="181" y="506" on="1"/>
        <pt x="181" y="460" on="0"/>
        <pt x="238" y="413" on="0"/>
      </contour>
      <contour>
        <pt x="282" y="76" on="1"/>
        <pt x="339" y="76" on="0"/>
        <pt x="401" y="135" on="0"/>
        <pt x="401" y="181" on="1"/>
        <pt x="401" y="230" on="0"/>
        <pt x="342" y="283" on="0"/>
        <pt x="273" y="307" on="1"/>
        <pt x="244" y="318" on="1"/>
        <pt x="202" y="296" on="0"/>
        <pt x="160" y="229" on="0"/>
        <pt x="160" y="181" on="1"/>
        <pt x="160" y="132" on="0"/>
        <pt x="225" y="76" on="0"/>
      </contour>
    </TTGlyph>
    <TTGlyph name="eightinferior" xMin="34" yMin="-213" xMax="366" yMax="224">
      <component glyphName="eight.dnom" x="0" y="-203" flags="0x4"/>
    </TTGlyph>
    <TTGlyph name="eightsuperior" xMin="34" yMin="311" xMax="366" yMax="748">
      <component glyphName="eight.dnom" x="0" y="321" flags="0x4"/>
    </TTGlyph>
    <TTGlyph name="ellipsis" xMin="41" yMin="-14" xMax="691" yMax="143">
      <component glyphName="period" x="247" y="0" flags="0x4"/>
      <component glyphName="period" x="493" y="0" flags="0x4"/>
      <component glyphName="period" x="0" y="0" flags="0x204"/>
    </TTGlyph>
    <TTGlyph name="emacron" xMin="46" yMin="-14" xMax="507" yMax="748">
      <component glyphName="e" x="0" y="0" flags="0x204"/>
      <component glyphName="macron" x="107" y="0" flags="0x4"/>
    </TTGlyph>
    <TTGlyph name="emacron.sc" xMin="85" yMin="0" xMax="439" yMax="778">
      <component glyphName="macron.sc" x="89" y="0" flags="0x4"/>
      <component glyphName="e.sc" x="0" y="0" flags="0x204"/>
    </TTGlyph>
    <TTGlyph name="emdash" xMin="28" yMin="264" xMax="765" yMax="362">
      <contour>
        <pt x="765" y="264" on="1"/>
        <pt x="28" y="264" on="1"/>
        <pt x="28" y="362" on="1"/>
        <pt x="765" y="362" on="1"/>
      </contour>
    </TTGlyph>
    <TTGlyph name="emdash.case" xMin="28" yMin="309" xMax="765" yMax="407">
      <component glyphName="emdash" x="0" y="45" flags="0x4"/>
    </TTGlyph>
    <TTGlyph name="emptyset" xMin="84" yMin="-16" xMax="816" yMax="716">
      <contour>
        <pt x="451" y="-16" on="1"/>
        <pt x="397" y="-16" on="0"/>
        <pt x="298" y="13" on="0"/>
        <pt x="255" y="39" on="1"/>
        <pt x="217" y="-12" on="1"/>
        <pt x="130" y="-12" on="1"/>
        <pt x="199" y="82" on="1"/>
        <pt x="146" y="131" on="0"/>
        <pt x="84" y="270" on="0"/>
        <pt x="84" y="349" on="1"/>
        <pt x="84" y="425" on="0"/>
        <pt x="142" y="560" on="0"/>
        <pt x="241" y="659" on="0"/>
        <pt x="375" y="716" on="0"/>
        <pt x="451" y="716" on="1"/>
        <pt x="500" y="716" on="0"/>
        <pt x="591" y="691" on="0"/>
        <pt x="631" y="669" on="1"/>
        <pt x="663" y="712" on="1"/>
        <pt x="750" y="712" on="1"/>
        <pt x="689" y="629" on="1"/>
        <pt x="747" y="579" on="0"/>
        <pt x="816" y="433" on="0"/>
        <pt x="816" y="349" on="1"/>
        <pt x="816" y="273" on="0"/>
        <pt x="759" y="139" on="0"/>
        <pt x="660" y="41" on="0"/>
        <pt x="527" y="-16" on="0"/>
      </contour>
      <contour>
        <pt x="160" y="349" on="1"/>
        <pt x="160" y="289" on="0"/>
        <pt x="205" y="182" on="0"/>
        <pt x="244" y="142" on="1"/>
        <pt x="588" y="610" on="1"/>
        <pt x="557" y="626" on="0"/>
        <pt x="488" y="644" on="0"/>
        <pt x="451" y="644" on="1"/>
        <pt x="390" y="644" on="0"/>
        <pt x="283" y="597" on="0"/>
        <pt x="205" y="518" on="0"/>
        <pt x="160" y="410" on="0"/>
      </contour>
      <contour>
        <pt x="451" y="56" on="1"/>
        <pt x="512" y="56" on="0"/>
        <pt x="618" y="102" on="0"/>
        <pt x="695" y="181" on="0"/>
        <pt x="740" y="289" on="0"/>
        <pt x="740" y="349" on="1"/>
        <pt x="740" y="415" on="0"/>
        <pt x="689" y="529" on="0"/>
        <pt x="645" y="569" on="1"/>
        <pt x="299" y="99" on="1"/>
        <pt x="332" y="79" on="0"/>
        <pt x="409" y="56" on="0"/>
      </contour>
    </TTGlyph>
    <TTGlyph name="endash" xMin="28" yMin="264" xMax="492" yMax="362">
      <contour>
        <pt x="492" y="264" on="1"/>
        <pt x="28" y="264" on="1"/>
        <pt x="28" y="362" on="1"/>
        <pt x="492" y="362" on="1"/>
      </contour>
    </TTGlyph>
    <TTGlyph name="endash.case" xMin="28" yMin="309" xMax="492" yMax="407">
      <component glyphName="endash" x="0" y="45" flags="0x4"/>
    </TTGlyph>
    <TTGlyph name="eng" xMin="81" yMin="-216" xMax="506" yMax="543">
      <contour>
        <pt x="506" y="44" on="1"/>
        <pt x="506" y="-75" on="0"/>
        <pt x="407" y="-180" on="0"/>
        <pt x="319" y="-216" on="1"/>
        <pt x="282" y="-129" on="1"/>
        <pt x="333" y="-105" on="0"/>
        <pt x="386" y="-43" on="0"/>
        <pt x="386" y="36" on="1"/>
        <pt x="386" y="363" on="1"/>
        <pt x="386" y="414" on="0"/>
        <pt x="348" y="452" on="0"/>
        <pt x="317" y="452" on="1"/>
        <pt x="280" y="452" on="0"/>
        <pt x="225" y="407" on="0"/>
        <pt x="201" y="370" on="1"/>
        <pt x="201" y="0" on="1"/>
        <pt x="81" y="0" on="1"/>
        <pt x="81" y="529" on="1"/>
        <pt x="185" y="529" on="1"/>
        <pt x="195" y="457" on="1"/>
        <pt x="225" y="497" on="0"/>
        <pt x="305" y="543" on="0"/>
        <pt x="356" y="543" on="1"/>
        <pt x="426" y="543" on="0"/>
        <pt x="506" y="457" on="0"/>
        <pt x="506" y="382" on="1"/>
      </contour>
    </TTGlyph>
    <TTGlyph name="eng.sc" xMin="85" yMin="-216" xMax="530" yMax="566">
      <contour>
        <pt x="530" y="0" on="1"/>
        <pt x="530" y="-86" on="0"/>
        <pt x="433" y="-180" on="0"/>
        <pt x="343" y="-216" on="1"/>
        <pt x="311" y="-141" on="1"/>
        <pt x="369" y="-116" on="0"/>
        <pt x="426" y="-59" on="0"/>
        <pt x="426" y="0" on="1"/>
        <pt x="375" y="0" on="1"/>
        <pt x="175" y="455" on="1"/>
        <pt x="181" y="411" on="0"/>
        <pt x="193" y="299" on="0"/>
        <pt x="193" y="221" on="1"/>
        <pt x="193" y="0" on="1"/>
        <pt x="85" y="0" on="1"/>
        <pt x="85" y="566" on="1"/>
        <pt x="237" y="566" on="1"/>
        <pt x="440" y="109" on="1"/>
        <pt x="434" y="138" on="0"/>
        <pt x="422" y="254" on="0"/>
        <pt x="422" y="317" on="1"/>
        <pt x="422" y="566" on="1"/>
        <pt x="530" y="566" on="1"/>
      </contour>
    </TTGlyph>
    <TTGlyph name="eogonek" xMin="46" yMin="-231" xMax="507" yMax="543">
      <component glyphName="e" x="0" y="0" flags="0x204"/>
      <component glyphName="ogonek.thin" x="192" y="7" flags="0x4"/>
    </TTGlyph>
    <TTGlyph name="eogonek.sc" xMin="85" yMin="-238" xMax="439" yMax="566">
      <component glyphName="ogonek.thin.sc" x="197" y="0" flags="0x4"/>
      <component glyphName="e.sc" x="0" y="0" flags="0x204"/>
    </TTGlyph>
    <TTGlyph name="epsilon" xMin="46" yMin="-14" xMax="464" yMax="543">
      <contour>
        <pt x="67" y="401" on="1"/>
        <pt x="67" y="467" on="0"/>
        <pt x="175" y="543" on="0"/>
        <pt x="265" y="543" on="1"/>
        <pt x="321" y="543" on="0"/>
        <pt x="409" y="516" on="0"/>
        <pt x="446" y="489" on="1"/>
        <pt x="392" y="422" on="1"/>
        <pt x="366" y="438" on="0"/>
        <pt x="312" y="455" on="0"/>
        <pt x="277" y="455" on="1"/>
        <pt x="236" y="455" on="0"/>
        <pt x="190" y="420" on="0"/>
        <pt x="190" y="386" on="1"/>
        <pt x="190" y="355" on="0"/>
        <pt x="238" y="317" on="0"/>
        <pt x="281" y="317" on="1"/>
        <pt x="345" y="317" on="1"/>
        <pt x="332" y="232" on="1"/>
        <pt x="275" y="232" on="1"/>
        <pt x="221" y="232" on="0"/>
        <pt x="174" y="194" on="0"/>
        <pt x="174" y="155" on="1"/>
        <pt x="174" y="120" on="0"/>
        <pt x="226" y="76" on="0"/>
        <pt x="275" y="76" on="1"/>
        <pt x="313" y="76" on="0"/>
        <pt x="376" y="99" on="0"/>
        <pt x="410" y="121" on="1"/>
        <pt x="464" y="49" on="1"/>
        <pt x="426" y="19" on="0"/>
        <pt x="323" y="-14" on="0"/>
        <pt x="264" y="-14" on="1"/>
        <pt x="168" y="-14" on="0"/>
        <pt x="46" y="69" on="0"/>
        <pt x="46" y="145" on="1"/>
        <pt x="46" y="209" on="0"/>
        <pt x="119" y="275" on="0"/>
        <pt x="183" y="282" on="1"/>
        <pt x="126" y="292" on="0"/>
        <pt x="67" y="358" on="0"/>
      </contour>
    </TTGlyph>
    <TTGlyph name="epsilon.sc" xMin="85" yMin="0" xMax="439" yMax="566">
      <component glyphName="e.sc" x="0" y="0" flags="0x204"/>
    </TTGlyph>
    <TTGlyph name="epsilontonos" xMin="46" yMin="-14" xMax="464" yMax="827">
      <component glyphName="tonos" x="186" y="0" flags="0x4"/>
      <component glyphName="epsilon" x="0" y="0" flags="0x204"/>
    </TTGlyph>
    <TTGlyph name="epsilontonos.sc" xMin="85" yMin="0" xMax="439" yMax="566">
      <component glyphName="e.sc" x="0" y="0" flags="0x204"/>
    </TTGlyph>
    <TTGlyph name="equal" xMin="80" yMin="183" xMax="476" yMax="480">
      <component glyphName="equal.lf" x="24" y="0" flags="0x4"/>
    </TTGlyph>
    <TTGlyph name="equal.dnom" xMin="67" yMin="105" xMax="333" yMax="303">
      <contour>
        <pt x="333" y="231" on="1"/>
        <pt x="67" y="231" on="1"/>
        <pt x="67" y="303" on="1"/>
        <pt x="333" y="303" on="1"/>
      </contour>
      <contour>
        <pt x="333" y="105" on="1"/>
        <pt x="67" y="105" on="1"/>
        <pt x="67" y="177" on="1"/>
        <pt x="333" y="177" on="1"/>
      </contour>
    </TTGlyph>
    <TTGlyph name="equal.lf" xMin="56" yMin="183" xMax="452" yMax="480">
      <component glyphName="minus.lf" x="0" y="99" flags="0x4"/>
      <component glyphName="minus.lf" x="0" y="-101" flags="0x4"/>
    </TTGlyph>
    <TTGlyph name="equal.numr" xMin="67" yMin="382" xMax="333" yMax="580">
      <component glyphName="equal.dnom" x="0" y="277" flags="0x4"/>
    </TTGlyph>
    <TTGlyph name="equal.osf" xMin="56" yMin="183" xMax="452" yMax="480">
      <component glyphName="equal.lf" x="0" y="0" flags="0x204"/>
    </TTGlyph>
    <TTGlyph name="equal.tosf" xMin="80" yMin="183" xMax="476" yMax="480">
      <component glyphName="equal.lf" x="24" y="0" flags="0x4"/>
    </TTGlyph>
    <TTGlyph name="equalsuperior" xMin="67" yMin="420" xMax="333" yMax="618">
      <component glyphName="equal.dnom" x="0" y="315" flags="0x4"/>
    </TTGlyph>
    <TTGlyph name="estimated" xMin="70" yMin="-15" xMax="875" yMax="715">
      <contour>
        <pt x="875" y="339" on="1"/>
        <pt x="218" y="339" on="1"/>
        <pt x="218" y="121" on="1"/>
        <pt x="234" y="97" on="0"/>
        <pt x="291" y="61" on="0"/>
        <pt x="361" y="37" on="0"/>
        <pt x="438" y="24" on="0"/>
        <pt x="473" y="24" on="1"/>
        <pt x="543" y="24" on="0"/>
        <pt x="691" y="73" on="0"/>
        <pt x="733" y="122" on="1"/>
        <pt x="791" y="122" on="1"/>
        <pt x="737" y="59" on="0"/>
        <pt x="576" y="-15" on="0"/>
        <pt x="472" y="-15" on="1"/>
        <pt x="387" y="-15" on="0"/>
        <pt x="239" y="39" on="0"/>
        <pt x="131" y="135" on="0"/>
        <pt x="70" y="269" on="0"/>
        <pt x="70" y="347" on="1"/>
        <pt x="70" y="425" on="0"/>
        <pt x="134" y="561" on="0"/>
        <pt x="243" y="659" on="0"/>
        <pt x="390" y="715" on="0"/>
        <pt x="472" y="715" on="1"/>
        <pt x="552" y="715" on="0"/>
        <pt x="699" y="660" on="0"/>
        <pt x="809" y="561" on="0"/>
        <pt x="875" y="422" on="0"/>
      </contour>
      <contour>
        <pt x="727" y="379" on="1"/>
        <pt x="727" y="574" on="1"/>
        <pt x="685" y="620" on="0"/>
        <pt x="560" y="676" on="0"/>
        <pt x="473" y="676" on="1"/>
        <pt x="386" y="676" on="0"/>
        <pt x="256" y="621" on="0"/>
        <pt x="218" y="575" on="1"/>
        <pt x="218" y="379" on="1"/>
      </contour>
    </TTGlyph>
    <TTGlyph name="eta" xMin="62" yMin="-217" xMax="511" yMax="543">
      <contour>
        <pt x="511" y="-217" on="1"/>
        <pt x="391" y="-203" on="1"/>
        <pt x="391" y="363" on="1"/>
        <pt x="391" y="414" on="0"/>
        <pt x="353" y="452" on="0"/>
        <pt x="322" y="452" on="1"/>
        <pt x="285" y="452" on="0"/>
        <pt x="229" y="408" on="0"/>
        <pt x="206" y="372" on="1"/>
        <pt x="206" y="0" on="1"/>
        <pt x="86" y="0" on="1"/>
        <pt x="86" y="368" on="1"/>
        <pt x="86" y="419" on="0"/>
        <pt x="72" y="495" on="0"/>
        <pt x="62" y="526" on="1"/>
        <pt x="172" y="541" on="1"/>
        <pt x="180" y="526" on="0"/>
        <pt x="194" y="484" on="0"/>
        <pt x="198" y="456" on="1"/>
        <pt x="228" y="496" on="0"/>
        <pt x="309" y="543" on="0"/>
        <pt x="360" y="543" on="1"/>
        <pt x="431" y="543" on="0"/>
        <pt x="511" y="457" on="0"/>
        <pt x="511" y="382" on="1"/>
      </contour>
    </TTGlyph>
    <TTGlyph name="eta.sc" xMin="85" yMin="0" xMax="532" yMax="566">
      <component glyphName="h.sc" x="0" y="0" flags="0x204"/>
    </TTGlyph>
    <TTGlyph name="etatonos" xMin="62" yMin="-217" xMax="511" yMax="827">
      <component glyphName="tonos" x="219" y="0" flags="0x4"/>
      <component glyphName="eta" x="0" y="0" flags="0x204"/>
    </TTGlyph>
    <TTGlyph name="etatonos.sc" xMin="85" yMin="0" xMax="532" yMax="566">
      <component glyphName="h.sc" x="0" y="0" flags="0x204"/>
    </TTGlyph>
    <TTGlyph name="eth" xMin="46" yMin="-14" xMax="522" yMax="785">
      <contour>
        <pt x="280" y="-14" on="1"/>
        <pt x="182" y="-14" on="0"/>
        <pt x="46" y="116" on="0"/>
        <pt x="46" y="234" on="1"/>
        <pt x="46" y="281" on="0"/>
        <pt x="73" y="369" on="0"/>
        <pt x="125" y="436" on="0"/>
        <pt x="201" y="477" on="0"/>
        <pt x="250" y="477" on="1"/>
        <pt x="296" y="477" on="0"/>
        <pt x="365" y="446" on="0"/>
        <pt x="391" y="418" on="1"/>
        <pt x="378" y="472" on="0"/>
        <pt x="326" y="559" on="0"/>
        <pt x="279" y="596" on="1"/>
        <pt x="215" y="534" on="1"/>
        <pt x="136" y="572" on="1"/>
        <pt x="203" y="640" on="1"/>
        <pt x="175" y="650" on="0"/>
        <pt x="125" y="664" on="0"/>
        <pt x="99" y="669" on="1"/>
        <pt x="124" y="753" on="1"/>
        <pt x="162" y="746" on="0"/>
        <pt x="233" y="726" on="0"/>
        <pt x="271" y="710" on="1"/>
        <pt x="343" y="785" on="1"/>
        <pt x="408" y="728" on="1"/>
        <pt x="348" y="666" on="1"/>
        <pt x="445" y="595" on="0"/>
        <pt x="522" y="401" on="0"/>
        <pt x="522" y="270" on="1"/>
        <pt x="522" y="146" on="0"/>
        <pt x="391" y="-14" on="0"/>
      </contour>
      <contour>
        <pt x="280" y="77" on="1"/>
        <pt x="336" y="77" on="0"/>
        <pt x="400" y="170" on="0"/>
        <pt x="400" y="262" on="1"/>
        <pt x="400" y="279" on="0"/>
        <pt x="399" y="310" on="0"/>
        <pt x="399" y="326" on="1"/>
        <pt x="377" y="357" on="0"/>
        <pt x="316" y="388" on="0"/>
        <pt x="276" y="388" on="1"/>
        <pt x="216" y="388" on="0"/>
        <pt x="169" y="301" on="0"/>
        <pt x="169" y="238" on="1"/>
        <pt x="169" y="157" on="0"/>
        <pt x="230" y="77" on="0"/>
      </contour>
    </TTGlyph>
    <TTGlyph name="eth.sc" xMin="11" yMin="0" xMax="527" yMax="566">
      <contour>
        <pt x="235" y="0" on="1"/>
        <pt x="69" y="0" on="1"/>
        <pt x="69" y="252" on="1"/>
        <pt x="11" y="252" on="1"/>
        <pt x="11" y="330" on="1"/>
        <pt x="69" y="330" on="1"/>
        <pt x="69" y="566" on="1"/>
        <pt x="220" y="566" on="1"/>
        <pt x="279" y="566" on="0"/>
        <pt x="390" y="544" on="0"/>
        <pt x="475" y="483" on="0"/>
        <pt x="527" y="374" on="0"/>
        <pt x="527" y="287" on="1"/>
        <pt x="527" y="201" on="0"/>
        <pt x="476" y="89" on="0"/>
        <pt x="393" y="25" on="0"/>
        <pt x="288" y="0" on="0"/>
      </contour>
      <contour>
        <pt x="188" y="88" on="1"/>
        <pt x="243" y="88" on="1"/>
        <pt x="309" y="88" on="0"/>
        <pt x="402" y="167" on="0"/>
        <pt x="402" y="287" on="1"/>
        <pt x="402" y="406" on="0"/>
        <pt x="305" y="478" on="0"/>
        <pt x="239" y="478" on="1"/>
        <pt x="188" y="478" on="1"/>
        <pt x="188" y="330" on="1"/>
        <pt x="289" y="330" on="1"/>
        <pt x="289" y="252" on="1"/>
        <pt x="188" y="252" on="1"/>
      </contour>
    </TTGlyph>
    <TTGlyph name="exclam" xMin="42" yMin="-14" xMax="199" yMax="691">
      <contour>
        <pt x="54" y="691" on="1"/>
        <pt x="184" y="691" on="1"/>
        <pt x="170" y="241" on="1"/>
        <pt x="69" y="241" on="1"/>
      </contour>
      <contour>
        <pt x="42" y="65" on="1"/>
        <pt x="42" y="96" on="0"/>
        <pt x="87" y="143" on="0"/>
        <pt x="120" y="143" on="1"/>
        <pt x="153" y="143" on="0"/>
        <pt x="199" y="96" on="0"/>
        <pt x="199" y="65" on="1"/>
        <pt x="199" y="32" on="0"/>
        <pt x="153" y="-14" on="0"/>
        <pt x="120" y="-14" on="1"/>
        <pt x="87" y="-14" on="0"/>
        <pt x="42" y="32" on="0"/>
      </contour>
    </TTGlyph>
    <TTGlyph name="exclamdown" xMin="42" yMin="-203" xMax="199" yMax="501">
      <contour>
        <pt x="42" y="422" on="1"/>
        <pt x="42" y="455" on="0"/>
        <pt x="87" y="501" on="0"/>
        <pt x="121" y="501" on="1"/>
        <pt x="153" y="501" on="0"/>
        <pt x="199" y="455" on="0"/>
        <pt x="199" y="422" on="1"/>
        <pt x="199" y="391" on="0"/>
        <pt x="153" y="344" on="0"/>
        <pt x="121" y="344" on="1"/>
        <pt x="87" y="344" on="0"/>
        <pt x="42" y="391" on="0"/>
      </contour>
      <contour>
        <pt x="71" y="242" on="1"/>
        <pt x="172" y="242" on="1"/>
        <pt x="186" y="-203" on="1"/>
        <pt x="56" y="-203" on="1"/>
      </contour>
    </TTGlyph>
    <TTGlyph name="exclamdown.case" xMin="42" yMin="0" xMax="199" yMax="705">
      <contour>
        <pt x="199" y="626" on="1"/>
        <pt x="199" y="595" on="0"/>
        <pt x="154" y="548" on="0"/>
        <pt x="121" y="548" on="1"/>
        <pt x="88" y="548" on="0"/>
        <pt x="42" y="595" on="0"/>
        <pt x="42" y="626" on="1"/>
        <pt x="42" y="659" on="0"/>
        <pt x="88" y="705" on="0"/>
        <pt x="121" y="705" on="1"/>
        <pt x="154" y="705" on="0"/>
        <pt x="199" y="659" on="0"/>
      </contour>
      <contour>
        <pt x="187" y="0" on="1"/>
        <pt x="57" y="0" on="1"/>
        <pt x="71" y="450" on="1"/>
        <pt x="172" y="450" on="1"/>
      </contour>
    </TTGlyph>
    <TTGlyph name="f" xMin="7" yMin="0" xMax="410" yMax="754">
      <contour>
        <pt x="329" y="441" on="1"/>
        <pt x="215" y="441" on="1"/>
        <pt x="215" y="0" on="1"/>
        <pt x="95" y="0" on="1"/>
        <pt x="95" y="441" on="1"/>
        <pt x="7" y="441" on="1"/>
        <pt x="7" y="529" on="1"/>
        <pt x="95" y="529" on="1"/>
        <pt x="95" y="590" on="1"/>
        <pt x="95" y="660" on="0"/>
        <pt x="187" y="754" on="0"/>
        <pt x="276" y="754" on="1"/>
        <pt x="315" y="754" on="0"/>
        <pt x="380" y="738" on="0"/>
        <pt x="410" y="724" on="1"/>
        <pt x="375" y="642" on="1"/>
        <pt x="351" y="653" on="0"/>
        <pt x="306" y="662" on="0"/>
        <pt x="287" y="662" on="1"/>
        <pt x="247" y="662" on="0"/>
        <pt x="215" y="626" on="0"/>
        <pt x="215" y="588" on="1"/>
        <pt x="215" y="529" on="1"/>
        <pt x="342" y="529" on="1"/>
      </contour>
    </TTGlyph>
    <TTGlyph name="f.sc" xMin="85" yMin="0" xMax="428" yMax="566">
      <contour>
        <pt x="85" y="566" on="1"/>
        <pt x="428" y="566" on="1"/>
        <pt x="415" y="478" on="1"/>
        <pt x="205" y="478" on="1"/>
        <pt x="205" y="319" on="1"/>
        <pt x="387" y="319" on="1"/>
        <pt x="387" y="232" on="1"/>
        <pt x="205" y="232" on="1"/>
        <pt x="205" y="0" on="1"/>
        <pt x="85" y="0" on="1"/>
      </contour>
    </TTGlyph>
    <TTGlyph name="f_i" xMin="12" yMin="0" xMax="509" yMax="754">
      <component glyphName="fi" x="0" y="0" flags="0x204"/>
    </TTGlyph>
    <TTGlyph name="f_i.sc" xMin="85" yMin="0" xMax="651" yMax="566">
      <component glyphName="f.sc" x="0" y="0" flags="0x204"/>
      <component glyphName="i.sc" x="446" y="0" flags="0x4"/>
    </TTGlyph>
    <TTGlyph name="f_l" xMin="12" yMin="-14" xMax="603" yMax="754">
      <component glyphName="fl" x="0" y="0" flags="0x204"/>
    </TTGlyph>
    <TTGlyph name="f_l.sc" xMin="85" yMin="0" xMax="890" yMax="566">
      <component glyphName="l.sc" x="446" y="0" flags="0x4"/>
      <component glyphName="f.sc" x="0" y="0" flags="0x204"/>
    </TTGlyph>
    <TTGlyph name="fi" xMin="12" yMin="0" xMax="509" yMax="754">
      <contour>
        <pt x="95" y="588" on="1"/>
        <pt x="95" y="658" on="0"/>
        <pt x="189" y="754" on="0"/>
        <pt x="293" y="754" on="1"/>
        <pt x="342" y="754" on="0"/>
        <pt x="420" y="732" on="0"/>
        <pt x="452" y="716" on="1"/>
        <pt x="415" y="636" on="1"/>
        <pt x="391" y="647" on="0"/>
        <pt x="335" y="661" on="0"/>
        <pt x="304" y="661" on="1"/>
        <pt x="252" y="661" on="0"/>
        <pt x="215" y="623" on="0"/>
        <pt x="215" y="586" on="1"/>
        <pt x="215" y="529" on="1"/>
        <pt x="509" y="529" on="1"/>
        <pt x="509" y="0" on="1"/>
        <pt x="389" y="0" on="1"/>
        <pt x="389" y="441" on="1"/>
        <pt x="215" y="441" on="1"/>
        <pt x="215" y="0" on="1"/>
        <pt x="95" y="0" on="1"/>
        <pt x="95" y="441" on="1"/>
        <pt x="12" y="441" on="1"/>
        <pt x="12" y="529" on="1"/>
        <pt x="95" y="529" on="1"/>
      </contour>
    </TTGlyph>
    <TTGlyph name="fi.sc" xMin="85" yMin="0" xMax="651" yMax="566">
      <component glyphName="f.sc" x="0" y="0" flags="0x204"/>
      <component glyphName="i.sc" x="446" y="0" flags="0x4"/>
    </TTGlyph>
    <TTGlyph name="figuredash" xMin="19" yMin="284" xMax="537" yMax="382">
      <component glyphName="figuredash.lf" x="-2" y="0" flags="0x4"/>
    </TTGlyph>
    <TTGlyph name="figuredash.lf" xMin="21" yMin="284" xMax="539" yMax="382">
      <contour>
        <pt x="539" y="284" on="1"/>
        <pt x="21" y="284" on="1"/>
        <pt x="21" y="382" on="1"/>
        <pt x="539" y="382" on="1"/>
      </contour>
    </TTGlyph>
    <TTGlyph name="figuredash.osf" xMin="21" yMin="284" xMax="539" yMax="382">
      <component glyphName="figuredash.lf" x="0" y="0" flags="0x204"/>
    </TTGlyph>
    <TTGlyph name="figuredash.tosf" xMin="19" yMin="284" xMax="537" yMax="382">
      <component glyphName="figuredash.lf" x="-2" y="0" flags="0x4"/>
    </TTGlyph>
    <TTGlyph name="five" xMin="36" yMin="-14" xMax="500" yMax="691">
      <contour>
        <pt x="82" y="691" on="1"/>
        <pt x="474" y="691" on="1"/>
        <pt x="459" y="601" on="1"/>
        <pt x="197" y="601" on="1"/>
        <pt x="197" y="417" on="1"/>
        <pt x="226" y="432" on="0"/>
        <pt x="281" y="444" on="0"/>
        <pt x="309" y="444" on="1"/>
        <pt x="393" y="444" on="0"/>
        <pt x="500" y="328" on="0"/>
        <pt x="500" y="223" on="1"/>
        <pt x="500" y="117" on="0"/>
        <pt x="364" y="-14" on="0"/>
        <pt x="250" y="-14" on="1"/>
        <pt x="181" y="-14" on="0"/>
        <pt x="76" y="36" on="0"/>
        <pt x="36" y="78" on="1"/>
        <pt x="106" y="144" on="1"/>
        <pt x="134" y="113" on="0"/>
        <pt x="204" y="80" on="0"/>
        <pt x="247" y="80" on="1"/>
        <pt x="307" y="80" on="0"/>
        <pt x="376" y="153" on="0"/>
        <pt x="376" y="224" on="1"/>
        <pt x="376" y="298" on="0"/>
        <pt x="313" y="357" on="0"/>
        <pt x="266" y="357" on="1"/>
        <pt x="241" y="357" on="0"/>
        <pt x="197" y="345" on="0"/>
        <pt x="169" y="334" on="1"/>
        <pt x="82" y="334" on="1"/>
      </contour>
    </TTGlyph>
</ttFont>
